<svg xmlns="http://www.w3.org/2000/svg" viewBox="0 0 3969 3969" width="3969" height="3969">
	<defs>
		<clipPath clipPathUnits="userSpaceOnUse" id="cp1">
			<path d="M1195.07 567.08L1195.07 2962.69L2744.31 2962.69L2744.31 567.08L1195.07 567.08Z" />
		</clipPath>
		<clipPath clipPathUnits="userSpaceOnUse" id="cp2">
			<path d="M1861.74 1435.23L1892.49 1823.74L2077.01 1823.74L2107.76 1435.23L1861.74 1435.23Z" />
		</clipPath>
		<clipPath clipPathUnits="userSpaceOnUse" id="cp3">
			<path d="M2097.01 1455.85C2080.67 1455.85 1888.83 1455.85 1872.49 1455.85C1763.93 1455.85 1851.8 1564.16 1973.07 1572.48C1975.96 1572.8 1983.76 1572.98 1984.75 1572.96C1985.75 1572.98 1993.54 1572.8 1996.44 1572.48C2117.7 1564.16 2205.57 1455.85 2097.01 1455.85Z" />
		</clipPath>
	</defs>
	<style>
		tspan { white-space:pre }
		.shp0 { fill: #ddab89 } 
		.shp1 { fill: #ededed } 
		.shp2 { fill: #ffffff } 
		.shp3 { fill: #254553 } 
		.shp4 { fill: #e8ba9c } 
		.shp5 { fill: #efcfb9 } 
		.shp6 { fill: #a2c73b } 
		.shp7 { fill: #e25e62 } 
		.shp8 { fill: #eaa182 } 
		.shp9 { fill: #fabf97 } 
		.shp10 { fill: #284354 } 
		.shp11 { fill: #e26668 } 
		.shp12 { fill: #fc9493 } 
		.shp13 { fill: #416170 } 
		.shp14 { fill: #688da7 } 
	</style>
	<g id="Capa 1">
		<g id="&lt;Group&gt;">
			<path id="&lt;Path&gt;" class="shp0" d="M2951.23 1658.5C2986.53 1784.56 2903.43 1872.26 2701.95 1921.58L1843.24 2131.82C1780.43 2147.2 1740.31 2123.76 1722.87 2061.48L1696.08 1965.8C1660.78 1839.74 1743.87 1752.05 1945.36 1702.71L2708.88 1515.78C2835.15 1484.86 2915.81 1532 2950.87 1657.18L2951.23 1658.5Z" />
			<path id="&lt;Path&gt;" class="shp0" d="M2903.08 2263.5C2915.43 2388.52 2822.29 2457.54 2623.66 2470.58L1777.06 2526.17C1715.19 2530.24 1681.21 2501.42 1675.12 2439.72L1665.73 2344.75C1653.37 2219.75 1746.51 2150.72 1945.15 2137.67L2697.95 2088.24C2822.35 2080.08 2890.68 2138.02 2902.94 2262.08L2903.08 2263.5Z" />
			<path id="&lt;Path&gt;" class="shp0" d="M2868.8 2724.28C2881.8 2855.87 2783.76 2928.53 2574.68 2942.26L1683.62 3000.76C1618.42 3005.05 1582.62 2974.68 1576.2 2909.66L1566.33 2809.8C1553.33 2678.21 1651.37 2605.55 1860.45 2591.82L2652.72 2539.8C2783.77 2531.2 2855.75 2592.24 2868.67 2722.94L2868.8 2724.28Z" />
			<path id="&lt;Path&gt;" class="shp0" d="M2523.07 3335.09C2512.01 3453.02 2413.39 3500.15 2227.21 3476.48L1432.97 3375.52C1375.43 3368.21 1349.36 3335.68 1354.78 3277.93L1363.25 3187.67C1374.3 3069.75 1472.92 3022.62 1659.11 3046.28L2365.06 3136.01C2481.45 3150.81 2534.17 3216.61 2523.22 3333.43L2523.07 3335.09Z" />
			<path id="&lt;Path&gt;" class="shp1" d="M1195.07 567.08L1195.07 2962.69L2744.31 2962.69L2744.31 567.08L1195.07 567.08Z" />
			<g id="&lt;Clip Group&gt;" clip-path="url(#cp1)">
				<path id="&lt;Path&gt;" class="shp2" d="M1290.78 566.93L1290.78 2962.69L2648.6 2962.69L2648.6 566.93L1290.78 566.93Z" />
			</g>
			<path id="&lt;Compound Path&gt;" class="shp3" d="M2743.73 569.23L2743.73 502.45C2743.73 344.24 2645.01 265.13 2447.59 265.13L1490.76 265.13C1293.34 250.29 1194.63 329.4 1194.63 502.45L1194.63 569.23L2743.73 569.23ZM1194.63 2964.84L1194.63 3166.7C1194.63 3285.72 1293.34 3345.23 1490.76 3345.23L2447.59 3345.23C2645.01 3354.25 2743.73 3272.35 2743.73 3099.51L2743.73 2964.84L1194.63 2964.84Z" />
			<path id="&lt;Path&gt;" class="shp1" d="M1844.83 404.07L1844.83 447.41L2190.36 447.41L2190.36 404.07L1844.83 404.07Z" />
			<path id="&lt;Path&gt;" class="shp1" d="M1749.48 404.07L1749.48 447.41L1807.15 447.41L1807.15 404.07L1749.48 404.07Z" />
			<path id="&lt;Path&gt;" class="shp4" d="M1729.66 3351.52C2129.83 3034.1 2230.24 2794.88 2030.88 2633.87C1847.4 2485.67 1733.56 2779.72 1559.66 2856.62C1372.86 2939.21 1251.19 3010.73 1194.63 3071.19L1194.63 2079.66C1150.9 2091.94 956.58 2185.08 881.71 2293.2C806.84 2401.33 420.56 3467.85 397.2 3539.73C386.07 3573.99 236.6 3918.56 196.92 3968L1412.25 3968C1508.57 3885.85 1662.82 3693.03 1729.66 3351.52Z" />
			<path id="&lt;Path&gt;" class="shp5" d="M1791.64 2888.37C1705.02 2837.33 1681.66 2785.04 1721.56 2731.5C1810.07 2601.03 1892.15 2569.46 1967.81 2636.78C1981.93 2649.34 2079.38 2714.9 2003.92 2822.66L1978.67 2858.73C1928.36 2930.57 1867.29 2941.34 1795.45 2891.03L1791.64 2888.37Z" />
			<path id="&lt;Path&gt;" class="shp6" d="M1700.18 2607.83C1812.11 2607.83 1902.86 2517.09 1902.86 2405.16C1902.86 2293.22 1812.11 2202.48 1700.18 2202.48C1588.24 2202.48 1497.5 2293.22 1497.5 2405.16C1497.5 2517.09 1588.24 2607.83 1700.18 2607.83Z" />
			<path id="&lt;Path&gt;" class="shp7" d="M2238.76 2607.83C2350.7 2607.83 2441.44 2517.09 2441.44 2405.16C2441.44 2293.22 2350.7 2202.48 2238.76 2202.48C2126.82 2202.48 2036.08 2293.22 2036.08 2405.16C2036.08 2517.09 2126.82 2607.83 2238.76 2607.83Z" />
			<path id="&lt;Path&gt;" class="shp1" d="M1984.75 1997.37C1679.87 1997.37 1432.72 1750.22 1432.72 1445.34C1432.72 1140.46 1679.87 893.31 1984.75 893.31C2289.63 893.31 2536.78 1140.46 2536.78 1445.34C2536.78 1750.22 2289.63 1997.37 1984.75 1997.37Z" />
			<path id="&lt;Path&gt;" class="shp8" d="M1767.46 1375.74C1792.38 1365.67 1799.21 1324.42 1782.72 1283.6C1766.23 1242.78 1732.66 1217.85 1707.73 1227.92C1682.81 1237.99 1675.98 1279.24 1692.47 1320.06C1708.96 1360.88 1742.53 1385.81 1767.46 1375.74Z" />
			<path id="&lt;Path&gt;" class="shp8" d="M2202.05 1375.74C2177.13 1365.67 2170.29 1324.42 2186.78 1283.6C2203.27 1242.78 2236.85 1217.85 2261.77 1227.92C2286.69 1237.99 2293.52 1279.24 2277.03 1320.06C2260.54 1360.88 2226.97 1385.81 2202.05 1375.74Z" />
			<path id="&lt;Path&gt;" class="shp9" d="M1861.74 1435.23L1892.49 1823.74L2077.01 1823.74L2107.76 1435.23L1861.74 1435.23Z" />
			<g id="&lt;Clip Group&gt;" clip-path="url(#cp2)">
				<path id="&lt;Path&gt;" class="shp8" d="M1984.75 1693.04C2131.95 1693.04 2292.28 1473.19 2292.28 1222.22C2292.28 971.25 2382.49 767.8 1984.75 767.8C1587.02 767.8 1677.22 971.25 1677.22 1222.22C1677.22 1473.19 1837.55 1693.04 1984.75 1693.04Z" />
			</g>
			<path id="&lt;Path&gt;" class="shp9" d="M1984.75 1654.08C2031.99 1654.08 2161.29 1592.74 2209.57 1527.4C2242.49 1482.83 2227.49 1453.96 2227.49 1372.56C2227.49 1171.78 2302.94 927.02 1984.75 927.02C1666.56 927.02 1742.01 1171.78 1742.01 1372.56C1742.01 1455.33 1727.73 1483.26 1761.61 1527.99C1809.9 1591.75 1937.51 1654.08 1984.75 1654.08Z" />
			<path id="&lt;Path&gt;" class="shp10" d="M2100.53 1273.56C2075.28 1275.32 2051.33 1293.3 2049.17 1270.02C2046.68 1243.14 2071.66 1225.39 2096.83 1222.79C2116.42 1220.77 2144.4 1241.24 2143.48 1264.63C2142.45 1290.71 2125.77 1271.79 2100.53 1273.56Z" />
			<path id="&lt;Path&gt;" class="shp10" d="M1868.98 1273.56C1894.22 1275.32 1918.17 1293.3 1920.33 1270.02C1922.82 1243.14 1897.84 1225.39 1872.67 1222.79C1853.09 1220.77 1825.1 1241.24 1826.02 1264.63C1827.05 1290.71 1843.74 1271.79 1868.98 1273.56Z" />
			<path id="&lt;Path&gt;" class="shp11" d="M2097.01 1455.85C2080.67 1455.85 1888.83 1455.85 1872.49 1455.85C1763.93 1455.85 1851.8 1564.16 1973.07 1572.48C1975.96 1572.8 1983.76 1572.98 1984.75 1572.96C1985.75 1572.98 1993.54 1572.8 1996.44 1572.48C2117.7 1564.16 2205.57 1455.85 2097.01 1455.85Z" />
			<g id="&lt;Clip Group&gt;" clip-path="url(#cp3)">
				<path id="&lt;Path&gt;" class="shp2" d="M1887.42 1419.66C1870.02 1419.66 1861.33 1428.36 1861.33 1445.75L1861.33 1458.8C1861.33 1476.2 1870.02 1484.89 1887.42 1484.89L2082.08 1484.89C2099.48 1484.89 2108.18 1476.2 2108.18 1458.8L2108.18 1445.75C2108.18 1428.36 2099.48 1419.66 2082.08 1419.66L1887.42 1419.66Z" />
				<path id="&lt;Path&gt;" class="shp12" d="M2097.01 1609.15C2080.67 1609.15 1888.83 1609.15 1872.49 1609.15C1763.93 1609.15 1851.8 1500.84 1973.07 1492.52C1975.96 1492.2 1983.76 1492.02 1984.75 1492.04C1985.75 1492.02 1993.54 1492.2 1996.44 1492.52C2117.7 1500.84 2205.57 1609.15 2097.01 1609.15Z" />
				<path id="&lt;Path&gt;" class="shp2" d="M1913.8 1545.92C1901.12 1545.92 1894.78 1552.26 1894.78 1564.94L1894.78 1574.45C1894.78 1587.13 1901.12 1593.47 1913.8 1593.47L2055.71 1593.47C2068.39 1593.47 2074.73 1587.13 2074.73 1574.45L2074.73 1564.94C2074.73 1552.26 2068.39 1545.92 2055.71 1545.92L1913.8 1545.92Z" />
			</g>
			<path id="&lt;Path&gt;" class="shp13" d="M1692.21 925.22C1694 911.06 1708.43 913.2 1722.67 914.09C1767.11 916.87 1777.97 901.9 1868.7 848.49C1959.11 795.26 2051.62 816.48 2113.27 862.3C2302.34 905.94 2341.51 1056.09 2230.77 1312.74C2231.46 1177.66 2202.57 1089.58 2144.1 1048.5C1997.22 1148.65 1847.14 1154.1 1761.69 1094.54C1739.71 1145.8 1732.31 1218.54 1739.49 1312.74C1701.67 1217.45 1693.08 1127.64 1713.73 1043.3C1694.75 1011.17 1686.4 971.38 1692.21 925.22Z" />
			<path id="&lt;Path&gt;" class="shp14" d="M1584.87 2002.9C1615.47 1920.71 1645.86 1844.38 1676.02 1773.91C1676.67 1772.66 1677.74 1771.86 1679.23 1771.52C1720.18 1742 1788.62 1723.28 1884.56 1715.37C1884.57 1715.44 1891.01 1789.32 1984.91 1789.32C2047.53 1789.32 2081 1764.67 2085.31 1715.37C2181.51 1723.3 2250.05 1742.08 2290.91 1771.7C2292.09 1772.16 2292.95 1772.89 2293.49 1773.91C2323.64 1844.38 2354.02 1920.71 2384.63 2002.9C2330.04 2023.07 2273.13 2039.21 2214.37 2050.95C2214.23 2050.98 2214.1 2051 2213.96 2051.03C2205.93 2052.63 2197.85 2054.13 2189.75 2055.56C2187.46 2055.97 2185.17 2056.36 2182.88 2056.76C2176.11 2057.92 2169.31 2059.02 2162.49 2060.06C2160.71 2060.33 2158.94 2060.63 2157.16 2060.89C2149.29 2062.05 2141.38 2063.13 2133.45 2064.13C2130.3 2064.54 2127.15 2064.9 2123.99 2065.28C2118.77 2065.89 2113.54 2066.48 2108.3 2067.03C2104.83 2067.39 2101.35 2067.77 2097.87 2068.11C2090.58 2068.8 2083.27 2069.45 2075.94 2070.02L2075.94 2070.01C2045.88 2072.34 2015.48 2073.56 1984.75 2073.56C1954.15 2073.56 1923.87 2072.35 1893.94 2070.04L1893.94 2070.05C1886.56 2069.48 1879.21 2068.83 1871.88 2068.13C1868.41 2067.8 1864.95 2067.42 1861.48 2067.06C1856.22 2066.51 1850.96 2065.92 1845.72 2065.3C1842.61 2064.93 1839.5 2064.57 1836.4 2064.18C1828.45 2063.17 1820.51 2062.1 1812.62 2060.93C1810.88 2060.68 1809.16 2060.39 1807.43 2060.13C1800.54 2059.07 1793.67 2057.96 1786.82 2056.79C1784.63 2056.42 1782.44 2056.04 1780.25 2055.65C1712.74 2043.72 1647.54 2026.02 1585.36 2003.08C1585.2 2003.02 1585.03 2002.96 1584.87 2002.9Z" />
			<path id="&lt;Path&gt;" class="shp2" d="M1760.21 2442.41C1752.68 2434.98 1743.27 2434.98 1735.78 2442.41C1730.07 2448.08 1724.36 2453.74 1718.74 2459.5C1717.21 2461.09 1715.91 2461.42 1714.04 2460.36C1710.34 2458.35 1706.41 2456.72 1702.86 2454.51C1686.29 2444.09 1672.42 2430.7 1660.14 2415.63C1654.04 2408.14 1648.61 2400.13 1644.82 2391.1C1644.06 2389.28 1644.2 2388.08 1645.69 2386.59C1651.4 2381.07 1656.97 2375.41 1662.58 2369.74C1670.41 2361.87 1670.41 2352.65 1662.54 2344.73C1658.07 2340.22 1653.61 2335.81 1649.14 2331.29C1644.54 2326.69 1639.97 2322.03 1635.32 2317.47C1627.78 2310.13 1618.37 2310.13 1610.89 2317.52C1605.13 2323.18 1599.61 2328.99 1593.75 2334.56C1588.33 2339.69 1585.59 2345.98 1585.01 2353.33C1584.1 2365.28 1587.03 2376.56 1591.16 2387.55C1599.61 2410.3 1612.47 2430.51 1628.07 2449.04C1649.14 2474.09 1674.29 2493.92 1703.72 2508.22C1716.97 2514.65 1730.69 2519.6 1745.62 2520.41C1755.89 2520.99 1764.82 2518.4 1771.97 2510.38C1776.87 2504.91 1782.39 2499.92 1787.57 2494.69C1795.26 2486.91 1795.3 2477.5 1787.67 2469.82C1778.55 2460.65 1769.38 2451.53 1760.21 2442.41Z" />
			<path id="&lt;Path&gt;" class="shp2" d="M1751.05 2404.16L1768.76 2401.13C1765.97 2384.86 1758.29 2370.13 1746.63 2358.41C1734.29 2346.08 1718.69 2338.3 1701.51 2335.9L1699.01 2353.71C1712.31 2355.58 1724.41 2361.58 1733.96 2371.13C1742.98 2380.16 1748.89 2391.58 1751.05 2404.16Z" />
			<path id="&lt;Path&gt;" class="shp2" d="M1778.74 2327.17C1758.29 2306.72 1732.42 2293.81 1703.86 2289.82L1701.37 2307.63C1726.04 2311.09 1748.41 2322.27 1766.07 2339.89C1782.82 2356.64 1793.81 2377.81 1797.8 2401.09L1815.51 2398.06C1810.85 2371.09 1798.14 2346.61 1778.74 2327.17Z" />
			<path id="&lt;Path&gt;" class="shp2" d="M2169.98 2454.64C2180.57 2454.57 2187.23 2447.92 2187.26 2437.36C2187.29 2429.32 2187.33 2421.27 2187.23 2413.23C2187.19 2411.02 2187.87 2409.87 2189.94 2409.29C2193.98 2408.1 2197.92 2406.47 2201.99 2405.52C2221.07 2401.18 2240.34 2400.84 2259.69 2402.81C2269.3 2403.79 2278.8 2405.62 2287.86 2409.32C2289.69 2410.07 2290.44 2411.02 2290.44 2413.13C2290.31 2421.07 2290.37 2429.01 2290.41 2436.99C2290.44 2448.09 2296.96 2454.6 2308.12 2454.64C2314.47 2454.67 2320.75 2454.64 2327.1 2454.67C2333.61 2454.67 2340.13 2454.74 2346.65 2454.67C2357.17 2454.53 2363.82 2447.88 2363.89 2437.36C2363.96 2429.28 2363.75 2421.27 2363.96 2413.2C2364.16 2405.73 2361.65 2399.35 2356.86 2393.75C2349.06 2384.65 2339.01 2378.74 2328.32 2373.89C2306.26 2363.78 2282.87 2358.58 2258.74 2356.51C2226.12 2353.7 2194.32 2357.46 2163.4 2368.15C2149.48 2372.97 2136.28 2379.18 2125.15 2389.16C2117.48 2396.02 2113 2404.17 2113.61 2414.89C2114.02 2422.22 2113.64 2429.66 2113.68 2437.02C2113.74 2447.95 2120.36 2454.64 2131.19 2454.67C2144.12 2454.71 2157.05 2454.67 2169.98 2454.64Z" />
		</g>
	</g>
</svg>