<svg xmlns="http://www.w3.org/2000/svg" viewBox="0 0 2244 2244" width="2244" height="2244">
	<style>
		tspan { white-space:pre }
		.shp0 { fill: #616e7d } 
		.shp1 { fill: #aad4c8 } 
		.shp2 { fill: #ffffff } 
	</style>
	<g id="Object">
		<g id="&lt;Group&gt;">
			<path id="&lt;Path&gt;" class="shp0" d="M481.42 793.78L481.42 1592.85C481.42 1597.16 486.19 1599.5 489.25 1596.69L904.8 1216.45C909.76 1211.99 909.85 1203.99 905.16 1199.32L489.45 790.07C486.34 787.08 481.42 789.38 481.42 793.78Z" />
			<path id="&lt;Path&gt;" class="shp0" d="M1293.85 1236.48L1196.88 1331.94C1175.45 1353.07 1147.28 1364.71 1117.63 1364.71C1088.95 1364.71 1061.92 1353.68 1041.66 1333.72L942.83 1236.44L940.05 1233.67L531.5 1607.48C529.71 1609.13 530.8 1612.27 533.17 1612.27L1703.56 1612.27C1705.97 1612.27 1707.01 1609.13 1705.22 1607.48L1296.65 1233.67L1293.85 1236.48Z" />
			<path id="&lt;Compound Path&gt;" fill-rule="evenodd" class="shp0" d="M1331.57 1199.32L1561.09 973.39C1552.02 965.3 1543.68 956.4 1536.24 946.77L1295.79 1183.45L1269.75 1209.09L1172.81 1304.54C1169.01 1308.29 1164.92 1311.52 1160.61 1314.34L1156.03 1316.79C1153.09 1318.42 1150.21 1320.19 1147.11 1321.43L1141.34 1323.22C1138.56 1324.14 1135.77 1325.16 1132.89 1325.7L1126.55 1326.41C1123.75 1326.74 1120.99 1327.21 1118.28 1327.21C1115.5 1327.25 1112.81 1326.82 1110.15 1326.59L1104.02 1326.03C1101.23 1325.52 1098.56 1324.58 1095.85 1323.78L1090.21 1322.15C1087.28 1321.01 1084.57 1319.41 1081.77 1317.91L1077.32 1315.57C1073.16 1312.93 1069.33 1309.89 1065.76 1306.32L966.93 1209.09L940.92 1183.45L507.23 756.51C505.52 754.83 506.65 751.78 508.97 751.78L1510.51 751.78C1540.11 681.32 1609.85 631.73 1690.93 631.73C1798.82 631.73 1886.58 719.49 1886.58 827.38C1886.58 913.04 1831.19 985.84 1754.41 1012.31L1754.41 1592.04C1754.41 1596.36 1749.64 1598.66 1746.55 1595.84L1331.83 1216.45C1326.99 1212 1326.85 1204.01 1331.57 1199.32ZM1690.93 973.06C1771.23 973.06 1836.61 907.73 1836.61 827.38C1836.61 747.03 1771.23 681.71 1690.93 681.71C1610.58 681.71 1545.23 747.03 1545.23 827.38C1545.23 907.73 1610.58 973.06 1690.93 973.06Z" />
			<path id="&lt;Compound Path&gt;" fill-rule="evenodd" class="shp1" d="M1690.93 681.71C1771.23 681.71 1836.61 747.03 1836.61 827.38C1836.61 907.73 1771.23 973.06 1690.93 973.06C1610.58 973.06 1545.23 907.73 1545.23 827.38C1545.23 747.03 1610.58 681.71 1690.93 681.71ZM1678.29 799.53L1681.97 773.56L1747.39 773.56L1747.39 741.12L1654.42 741.12L1643.25 829.68C1650.26 828.61 1656.74 828.08 1666.08 828.08C1699.83 828.08 1713.65 838.74 1713.65 856.15C1713.65 874.09 1696.23 881.83 1679.84 881.83C1664.58 881.83 1649.22 877.19 1641.7 873.52L1634.65 903.12C1644.04 908.11 1661.16 912.75 1681.65 912.75C1727.17 912.75 1754.13 884.97 1754.13 853.55C1754.13 833.81 1746.35 819.78 1733.63 811.19C1721.66 802.65 1705.34 798.99 1689.23 798.99C1685.07 798.99 1681.97 798.99 1678.29 799.53Z" />
			<path id="&lt;Path&gt;" class="shp2" d="M1679.84 881.83C1664.58 881.83 1649.22 877.19 1641.7 873.52L1634.65 903.12C1644.04 908.11 1661.16 912.75 1681.65 912.75C1727.17 912.75 1754.13 884.97 1754.13 853.55C1754.13 833.81 1746.35 819.78 1733.63 811.19C1721.66 802.65 1705.34 798.99 1689.23 798.99C1685.07 798.99 1681.97 798.99 1678.29 799.53L1681.97 773.56L1747.39 773.56L1747.39 741.12L1654.42 741.12L1643.25 829.68C1650.26 828.61 1656.74 828.08 1666.08 828.08C1699.83 828.08 1713.65 838.74 1713.65 856.15C1713.65 874.09 1696.23 881.83 1679.84 881.83Z" />
		</g>
	</g>
</svg>