<svg xmlns="http://www.w3.org/2000/svg" viewBox="0 0 1270 1270" width="1270" height="1270">
	<style>
		tspan { white-space:pre }
		.shp0 { fill: #334c60 } 
		.shp1 { fill: #d7e6ed } 
		.shp2 { fill: #ffffff } 
		.shp3 { fill: #000000 } 
		.shp4 { fill: #f4ebe1 } 
		.shp5 { fill: #a6caa2 } 
		.shp6 { fill: #bd242b } 
		.shp7 { fill: #cd4a45 } 
		.shp8 { fill: #ac262b } 
		.shp9 { fill: #ecc192 } 
		.shp10 { fill: #ba7765 } 
		.shp11 { fill: #ad6f5e } 
		.shp12 { fill: #c98471 } 
		.shp13 { fill: #ecd292 } 
	</style>
	<g id="object">
		<g id="&lt;Group&gt;">
			<g id="&lt;Group&gt;">
				<g id="&lt;Group&gt;">
					<g id="&lt;Group&gt;">
						<g id="&lt;Group&gt;">
							<g id="&lt;Group&gt;">
								<path id="&lt;Path&gt;" class="shp0" d="M837.84 1006.91L449.16 1006.91C440.79 1006.91 434 1000.12 434 991.74L434 354.98C434 346.6 440.79 339.81 449.16 339.81L837.84 339.81C846.21 339.81 853 346.6 853 354.98L853 991.74C853 1000.12 846.21 1006.91 837.84 1006.91Z" />
							</g>
							<g id="&lt;Group&gt;">
								<path id="&lt;Path&gt;" class="shp1" d="M830.51 944.91L455.63 944.91L455.63 375.21L830.51 375.21L830.51 944.91Z" />
							</g>
							<g id="&lt;Group&gt;">
								<path id="&lt;Path&gt;" class="shp2" d="M665.94 982.03L621.06 982.03L621.06 971.67L665.94 971.67L665.94 982.03Z" />
							</g>
						</g>
						<g id="&lt;Group&gt;" style="opacity: 0.039">
							<path id="&lt;Path&gt;" class="shp3" d="M455.63 454.29L455.63 944.91L830.51 944.91L455.63 454.29Z" />
						</g>
					</g>
				</g>
				<g id="&lt;Group&gt;">
					<g id="&lt;Group&gt;">
						<path id="&lt;Path&gt;" class="shp2" d="M455.63 397.34L455.63 534.23L455.63 568.76L455.63 716.73L455.63 743.3L455.63 875.25L455.63 902.07L455.63 397.34Z" />
					</g>
					<g id="&lt;Group&gt;">
						<path id="&lt;Path&gt;" class="shp4" d="M455.63 902.07L455.63 944.91L458.69 944.91L466.18 905.82L455.63 902.07Z" />
					</g>
					<g id="&lt;Group&gt;">
						<path id="&lt;Path&gt;" class="shp4" d="M795.67 886.94L830.51 900.83L830.51 741.07L824.18 738.17L795.67 886.94Z" />
					</g>
					<g id="&lt;Group&gt;">
						<path id="&lt;Path&gt;" class="shp4" d="M567.87 375.21L486.79 375.21L560.88 411.68L567.87 375.21Z" />
					</g>
					<g id="&lt;Group&gt;">
						<path id="&lt;Path&gt;" class="shp4" d="M784.56 944.91L830.51 944.91L830.51 924.15L791.45 908.96L784.56 944.91Z" />
					</g>
					<g id="&lt;Group&gt;">
						<path id="&lt;Path&gt;" class="shp4" d="M524.69 600.5L455.63 568.76L455.63 716.73L500.51 726.69L524.69 600.5Z" />
					</g>
					<g id="&lt;Group&gt;">
						<path id="&lt;Path&gt;" class="shp4" d="M495.58 752.43L455.63 743.3L455.63 875.25L471.03 880.56L495.58 752.43Z" />
					</g>
					<g id="&lt;Group&gt;">
						<path id="&lt;Path&gt;" class="shp4" d="M555.37 440.42L455.63 397.34L455.63 534.23L530.74 568.93L555.37 440.42Z" />
					</g>
					<g id="&lt;Group&gt;">
						<path id="&lt;Path&gt;" class="shp4" d="M679.39 637.6L742.74 375.21L615.29 375.21L574.3 589.05L679.39 637.6Z" />
					</g>
					<g id="&lt;Group&gt;">
						<path id="&lt;Path&gt;" class="shp4" d="M808.33 697.17L830.51 581.44L830.51 375.21L787.27 375.21L715.8 654.42L808.33 697.17Z" />
					</g>
					<g id="&lt;Group&gt;">
						<path id="&lt;Path&gt;" class="shp5" d="M568.27 620.54L506.11 944.91L582.86 944.91L611.39 853.49L711.81 912.15L708.49 944.91L760.85 944.91L802.39 728.15L568.27 620.54Z" />
					</g>
					<g id="&lt;Group&gt;">
						<path id="&lt;Path&gt;" class="shp2" d="M559.53 418.7L555.37 440.42L530.74 568.93L574.3 589.05L615.29 375.21L567.87 375.21L560.88 411.69L559.53 418.7Z" />
					</g>
					<g id="&lt;Group&gt;">
						<path id="&lt;Path&gt;" class="shp2" d="M560.88 411.69L567.87 375.21L567.87 375.21L560.88 411.68L560.88 411.69Z" />
					</g>
					<g id="&lt;Group&gt;">
						<path id="&lt;Path&gt;" class="shp2" d="M524.69 600.5L500.51 726.69L516.97 730.34L499.23 753.26L495.58 752.43L471.03 880.56L477.35 882.74L466.18 905.82L458.69 944.91L490.56 944.91L553.43 613.71L524.69 600.5Z" />
					</g>
					<g id="&lt;Group&gt;">
						<path id="&lt;Path&gt;" class="shp2" d="M553.43 613.71L490.56 944.91L506.11 944.91L568.27 620.54L553.43 613.71Z" />
					</g>
					<g id="&lt;Group&gt;">
						<path id="&lt;Path&gt;" class="shp2" d="M792.35 885.62L795.67 886.94L824.18 738.17L820.9 736.66L792.35 885.62Z" />
					</g>
					<g id="&lt;Group&gt;">
						<path id="&lt;Path&gt;" class="shp2" d="M788.13 907.66L780.99 944.91L784.56 944.91L791.45 908.96L788.13 907.66Z" />
					</g>
					<g id="&lt;Group&gt;">
						<path id="&lt;Path&gt;" class="shp2" d="M830.11 707.23L830.51 705.15L830.51 581.44L808.33 697.17L830.11 707.23Z" />
					</g>
					<g id="&lt;Group&gt;">
						<path id="&lt;Path&gt;" class="shp2" d="M786.43 907L787.03 883.5L792.35 885.62L820.9 736.66L802.39 728.15L760.85 944.91L780.99 944.91L788.13 907.66L786.43 907Z" />
					</g>
					<g id="&lt;Group&gt;">
						<path id="&lt;Path&gt;" class="shp2" d="M530.74 568.93L455.63 534.23L455.63 568.76L524.69 600.5L530.74 568.93Z" />
					</g>
					<g id="&lt;Group&gt;">
						<path id="&lt;Path&gt;" class="shp2" d="M804.4 717.69L808.33 697.17L715.8 654.42L714.38 659.94L674.24 658.91L679.39 637.6L574.3 589.05L569.94 611.81L804.4 717.69Z" />
					</g>
					<g id="&lt;Group&gt;">
						<path id="&lt;Path&gt;" class="shp2" d="M830.11 707.23L824.18 738.17L830.51 741.07L830.51 707.41L830.11 707.23Z" />
					</g>
					<g id="&lt;Group&gt;">
						<path id="&lt;Path&gt;" class="shp2" d="M569.94 611.81L568.27 620.54L802.39 728.15L804.4 717.69L569.94 611.81Z" />
					</g>
					<g id="&lt;Group&gt;">
						<path id="&lt;Path&gt;" class="shp2" d="M569.94 611.81L574.3 589.05L530.74 568.93L524.69 600.5L553.43 613.71L555.06 605.09L569.94 611.81Z" />
					</g>
					<g id="&lt;Group&gt;">
						<path id="&lt;Path&gt;" class="shp2" d="M555.06 605.09L553.43 613.71L568.27 620.54L569.94 611.81L555.06 605.09Z" />
					</g>
					<g id="&lt;Group&gt;">
						<path id="&lt;Path&gt;" class="shp2" d="M804.4 717.69L822.93 726.06L820.9 736.66L824.18 738.17L830.11 707.23L808.33 697.17L804.4 717.69Z" />
					</g>
					<g id="&lt;Group&gt;">
						<path id="&lt;Path&gt;" class="shp2" d="M804.4 717.69L802.39 728.15L820.9 736.66L822.93 726.06L804.4 717.69Z" />
					</g>
					<g id="&lt;Group&gt;">
						<path id="&lt;Path&gt;" class="shp2" d="M791.45 908.96L830.51 924.15L830.51 900.83L795.67 886.94L791.45 908.96Z" />
					</g>
					<g id="&lt;Group&gt;">
						<path id="&lt;Path&gt;" class="shp2" d="M788.13 907.66L791.45 908.96L795.67 886.94L792.35 885.62L788.13 907.66Z" />
					</g>
					<g id="&lt;Group&gt;">
						<path id="&lt;Path&gt;" class="shp2" d="M787.03 883.5L786.43 907L788.13 907.66L792.35 885.62L787.03 883.5Z" />
					</g>
					<g id="&lt;Group&gt;">
						<path id="&lt;Path&gt;" class="shp2" d="M559.53 418.7L560.88 411.68L486.79 375.21L455.63 375.21L455.63 397.34L555.37 440.42L559.53 418.7Z" />
					</g>
					<g id="&lt;Group&gt;">
						<path id="&lt;Path&gt;" class="shp2" d="M560.88 411.68L559.53 418.7L560.88 411.69L560.88 411.68Z" />
					</g>
					<g id="&lt;Group&gt;">
						<path id="&lt;Path&gt;" class="shp2" d="M471.03 880.56L455.63 875.25L455.63 902.07L466.18 905.82L471.03 880.56Z" />
					</g>
					<g id="&lt;Group&gt;">
						<path id="&lt;Path&gt;" class="shp2" d="M477.35 882.74L471.03 880.56L466.18 905.82L477.35 882.74Z" />
					</g>
					<g id="&lt;Group&gt;">
						<path id="&lt;Path&gt;" class="shp2" d="M500.51 726.69L455.63 716.73L455.63 743.3L495.58 752.43L500.51 726.69Z" />
					</g>
					<g id="&lt;Group&gt;">
						<path id="&lt;Path&gt;" class="shp2" d="M499.23 753.26L516.97 730.34L500.51 726.69L495.58 752.43L499.23 753.26Z" />
					</g>
					<g id="&lt;Group&gt;">
						<path id="&lt;Path&gt;" class="shp2" d="M715.8 654.42L787.27 375.21L742.74 375.21L679.39 637.6L715.8 654.42Z" />
					</g>
					<g id="&lt;Group&gt;">
						<path id="&lt;Path&gt;" class="shp2" d="M714.38 659.94L715.8 654.42L679.39 637.6L674.24 658.91L714.38 659.94Z" />
					</g>
					<g id="&lt;Group&gt;">
						<path id="&lt;Path&gt;" class="shp4" d="M611.39 853.49L582.86 944.91L708.49 944.91L711.81 912.15L611.39 853.49Z" />
					</g>
				</g>
				<g id="&lt;Group&gt;">
					<g id="&lt;Group&gt;">
						<g id="&lt;Group&gt;">
							<g id="&lt;Group&gt;">
								<path id="&lt;Path&gt;" class="shp6" d="M690.14 511.6C690 528.65 674.07 559.53 642.35 604.25C611.37 559.01 595.96 527.87 596.1 510.83C596.31 485.26 617.53 464.7 643.5 464.92C669.47 465.13 690.35 486.03 690.14 511.6Z" />
							</g>
							<g id="&lt;Group&gt;">
								<path id="&lt;Path&gt;" class="shp2" d="M665.24 509.35C665.14 521.37 655.16 531.04 642.96 530.94C630.75 530.83 620.93 521.01 621.03 508.99C621.13 496.97 631.11 487.31 643.32 487.41C655.52 487.51 665.34 497.34 665.24 509.35Z" />
							</g>
						</g>
						<g id="&lt;Group&gt;">
							<path id="&lt;Path&gt;" class="shp7" d="M604.12 514.96C604.3 492.75 622.74 474.89 645.3 475.08C658.49 475.18 670.16 481.44 677.55 491.05C670.6 478.93 657.45 470.7 642.3 470.58C619.74 470.39 601.3 488.25 601.12 510.46C601.04 519.69 604.13 528.22 609.38 535.05C605.98 529.12 604.06 522.26 604.12 514.96Z" />
						</g>
						<g id="&lt;Group&gt;">
							<path id="&lt;Path&gt;" class="shp8" d="M631.03 586.91C635.24 593.99 639.02 599.77 642.35 604.25C674.07 559.53 690 528.65 690.14 511.6C690.15 510.26 690.09 508.93 689.99 507.62C688.08 514.71 685.4 521.6 682.12 528.17C673.07 546.34 659.81 557.92 645.67 572.61C641.11 577.34 635.99 582.48 631.03 586.91Z" />
						</g>
					</g>
				</g>
			</g>
			<g id="&lt;Group&gt;">
				<path id="&lt;Path&gt;" class="shp9" d="M1063 1055L880.39 743.92L863 650L837.79 626.1L789.27 611.69L772 616L716.32 549L699.44 557.44L751.3 685.17L735 668L720 676L740 728L797.71 759L798.54 758.85L889 1055L933.55 1159.01L1083.78 1134.78L1063 1055Z" />
			</g>
			<g id="&lt;Group&gt;">
				<g id="&lt;Group&gt;">
					<path id="&lt;Path&gt;" class="shp10" d="M960 872L849 956L870 1010L990 925L960 872Z" />
				</g>
				<g id="&lt;Group&gt;">
					<path id="&lt;Path&gt;" class="shp11" d="M1186 1270L996.6 920.34L859.3 1017.73L937 1270L1186 1270Z" />
				</g>
			</g>
			<g id="&lt;Group&gt;">
				<g id="&lt;Group&gt;">
					<path id="&lt;Path&gt;" class="shp12" d="M856.93 950L874.35 1007.05L884.2 1000.07L862.16 946.04L856.93 950Z" />
				</g>
				<g id="&lt;Group&gt;">
					<path id="&lt;Path&gt;" class="shp12" d="M870.56 939.68L893.14 993.73L904.83 985.43L879.25 933.11L870.56 939.68Z" />
				</g>
				<g id="&lt;Group&gt;">
					<path id="&lt;Path&gt;" class="shp12" d="M887.7 927.49L910.62 981.33L923.92 971.89L896.12 920.34L887.7 927.49Z" />
				</g>
				<g id="&lt;Group&gt;">
					<path id="&lt;Path&gt;" class="shp12" d="M904.83 913.75L930.56 967.18L941.65 959.32L913.66 907.07L904.83 913.75Z" />
				</g>
				<g id="&lt;Group&gt;">
					<path id="&lt;Path&gt;" class="shp12" d="M923.24 899.82L950.25 953.22L960.36 946.04L932.15 893.08L923.24 899.82Z" />
				</g>
				<g id="&lt;Group&gt;">
					<path id="&lt;Path&gt;" class="shp12" d="M941.8 885.77L967.48 941L978.6 933.11L951.55 878.39L941.8 885.77Z" />
				</g>
			</g>
			<g id="&lt;Group&gt;">
				<g id="&lt;Group&gt;">
					<path id="&lt;Path&gt;" class="shp9" d="M383.19 734.87L386.92 643.91L433.5 582.35L433.5 803L393 1023L243 1020.99L383.19 734.87Z" />
				</g>
				<g id="&lt;Group&gt;">
					<path id="&lt;Path&gt;" class="shp9" d="M401.83 644.65L448.06 626.01L501 638.69L501 666.52L454.02 666.28L433.5 701.48L401.83 644.65Z" />
				</g>
				<g id="&lt;Group&gt;">
					<g id="&lt;Group&gt;">
						<path id="&lt;Path&gt;" class="shp10" d="M402 1018L272 941L246 1005L388 1063L402 1018Z" />
					</g>
					<g id="&lt;Group&gt;">
						<path id="&lt;Path&gt;" class="shp11" d="M239.63 1002.65L111 1270L373 1270L396.46 1065.8L239.63 1002.65Z" />
					</g>
				</g>
				<g id="&lt;Group&gt;">
					<path id="&lt;Path&gt;" class="shp12" d="M258.24 1010L285.5 949L296.71 955.64L272.55 1015.91L258.24 1010Z" />
				</g>
				<g id="&lt;Group&gt;">
					<path id="&lt;Path&gt;" class="shp12" d="M309.85 963.42L286.63 1021.57L300 1027L321.21 970.15L309.85 963.42Z" />
				</g>
				<g id="&lt;Group&gt;">
					<path id="&lt;Path&gt;" class="shp12" d="M332.02 976.55L312.5 1032.5L324 1036.86L344.96 984.22L332.02 976.55Z" />
				</g>
				<g id="&lt;Group&gt;">
					<path id="&lt;Path&gt;" class="shp12" d="M334.55 1040.87L356.85 991.26L368.5 998.16L348.33 1046.42L334.55 1040.87Z" />
				</g>
				<g id="&lt;Group&gt;">
					<path id="&lt;Path&gt;" class="shp12" d="M357.89 1050.27L376.08 1002.65L388.49 1010L373.19 1056.95L357.89 1050.27Z" />
				</g>
			</g>
			<g id="&lt;Group&gt;">
				<g id="&lt;Group&gt;">
					<g id="&lt;Group&gt;">
						<path id="&lt;Path&gt;" class="shp13" d="M992.18 60.86L277.82 60.86C276.26 60.86 275 62.24 275 63.93L275 322.32C275 324.02 276.26 325.4 277.82 325.4L505.41 325.4L568.16 413.44C570 416.01 574.05 414.75 574.1 411.59L575.38 325.4L907.2 325.4C955.69 325.4 995 282.57 995 229.73L995 63.93C995 62.24 993.74 60.86 992.18 60.86Z" />
					</g>
				</g>
			</g>
		</g>
	</g>
</svg>