<svg xmlns="http://www.w3.org/2000/svg" viewBox="0 0 3710 3710" width="3710" height="3710">
	<defs>
		<linearGradient id="grd1" gradientUnits="userSpaceOnUse"  x1="2699.391" y1="813.199" x2="3211.96" y2="2444.099">
			<stop offset="0.004" stop-color="#e38ddd"  />
			<stop offset="1" stop-color="#9571f6"  />
		</linearGradient>
		<clipPath clipPathUnits="userSpaceOnUse" id="cp1">
			<path d="M1874.75 3107.61C1826.99 2962.06 1778.37 2739.87 1835.28 2493.18C1900.63 2209.91 2045.39 2153.24 2175.36 1850.45C2360.89 1418.23 2150.91 1105.14 2342.98 973.03C2436.64 908.61 2583.92 908.56 2674.73 973.23C2933.8 1157.76 2862.78 1961.51 2451.73 2275.16C2265.83 2417.01 2103.61 2400.18 1964.1 2583.75C1840.83 2745.94 1850.5 2959.92 1874.75 3107.61Z" />
		</clipPath>
		<linearGradient id="grd2" gradientUnits="userSpaceOnUse"  x1="2272.843" y1="5271.252" x2="2181.195" y2="4866.92">
			<stop offset="0" stop-color="#aa80f9"  />
			<stop offset="0.996" stop-color="#6165d7"  />
		</linearGradient>
		<clipPath clipPathUnits="userSpaceOnUse" id="cp2">
			<path d="M1726.69 2879.43C1710.53 2781.66 1701.24 2628.97 1780.82 2492.41C1919.66 2254.19 2172.73 2333.21 2414.95 2077.98C2610.32 1872.13 2548.76 1712.14 2765.24 1575.34C2801.47 1552.44 2992.94 1426.42 3135.32 1502.32C3215.55 1545.09 3244.62 1632.89 3250.08 1649.38C3332.56 1898.5 3078.81 2288.52 2748.08 2466.91C2558.06 2569.4 2496.75 2535.91 2162.36 2655.44C1965.87 2725.68 1818.34 2816.13 1726.69 2879.43Z" />
		</clipPath>
		<linearGradient id="grd3" gradientUnits="userSpaceOnUse"  x1="3203.205" y1="2794.308" x2="1511.068" y2="3424.535">
			<stop offset="0" stop-color="#ff9085"  />
			<stop offset="1" stop-color="#fb6fbb"  />
		</linearGradient>
		<linearGradient id="grd4" gradientUnits="userSpaceOnUse"  x1="1895.962" y1="2226.392" x2="3056.516" y2="2226.392">
			<stop offset="0" stop-color="#ff9085"  />
			<stop offset="1" stop-color="#fb6fbb"  />
		</linearGradient>
		<clipPath clipPathUnits="userSpaceOnUse" id="cp3">
			<path d="M2881.73 2616.46L2881.93 2613.75C2890.16 2504.48 2824.36 2421.59 2767.71 2371.29C2706.22 2316.69 2641.98 2287.65 2641.33 2287.37L2642.78 2284.14C2643.42 2284.43 2708.16 2313.69 2770.06 2368.65C2826.83 2419.05 2892.69 2501.9 2885.65 2611.26C2909.58 2601.99 3093.24 2525.99 3105.28 2375.73L3108.8 2376.02C3095.8 2538.25 2886.4 2614.8 2884.29 2615.55L2881.73 2616.46Z" />
		</clipPath>
		<clipPath clipPathUnits="userSpaceOnUse" id="cp4">
			<path d="M2841.3 2865.09C2809.8 2865.09 2781.96 2861.9 2758.26 2857.36C2670.43 2840.52 2619.07 2801.94 2618.56 2801.55L2617.19 2800.5L2618.2 2799.11C2682.18 2710.9 2671.54 2614.23 2651.35 2548.66C2629.44 2477.5 2591.9 2426.63 2591.52 2426.13L2594.36 2424.01C2594.74 2424.52 2632.64 2475.88 2654.73 2547.62C2675.05 2613.6 2685.78 2710.75 2622.09 2799.75C2630.82 2805.93 2680.02 2838.8 2759.11 2853.92C2839.48 2869.29 2968.02 2868.96 3124.09 2780.14L3125.84 2783.21C3014.73 2846.45 2917.4 2865.09 2841.3 2865.09Z" />
		</clipPath>
		<linearGradient id="grd5" gradientUnits="userSpaceOnUse"  x1="975.842" y1="2794.664" x2="836.583" y2="2794.664">
			<stop offset="0" stop-color="#311944"  />
			<stop offset="1" stop-color="#6b3976"  />
		</linearGradient>
		<linearGradient id="grd6" gradientUnits="userSpaceOnUse"  x1="895.215" y1="2813.889" x2="792.289" y2="2505.11">
			<stop offset="0" stop-color="#ffc444"  />
			<stop offset="0.996" stop-color="#f36f56"  />
		</linearGradient>
		<linearGradient id="grd7" gradientUnits="userSpaceOnUse"  x1="1457.19" y1="2737.89" x2="1317.931" y2="2737.89">
			<stop offset="0" stop-color="#311944"  />
			<stop offset="1" stop-color="#6b3976"  />
		</linearGradient>
		<linearGradient id="grd8" gradientUnits="userSpaceOnUse"  x1="1370.36" y1="2761.929" x2="1255.93" y2="2418.639">
			<stop offset="0" stop-color="#ffc444"  />
			<stop offset="0.996" stop-color="#f36f56"  />
		</linearGradient>
		<linearGradient id="grd9" gradientUnits="userSpaceOnUse"  x1="1252.279" y1="1258.031" x2="1565.553" y2="2438.27">
			<stop offset="0" stop-color="#311944"  />
			<stop offset="1" stop-color="#6b3976"  />
		</linearGradient>
		<linearGradient id="grd10" gradientUnits="userSpaceOnUse"  x1="637.6" y1="1473.734" x2="1092.26" y2="1473.734">
			<stop offset="0" stop-color="#311944"  />
			<stop offset="1" stop-color="#6b3976"  />
		</linearGradient>
		<linearGradient id="grd11" gradientUnits="userSpaceOnUse"  x1="2353.179" y1="1445.575" x2="2223.396" y2="1889.198">
			<stop offset="0" stop-color="#ffc444"  />
			<stop offset="0.996" stop-color="#f36f56"  />
		</linearGradient>
		<linearGradient id="grd12" gradientUnits="userSpaceOnUse"  x1="1084.888" y1="1448.456" x2="1862.922" y2="721.802">
			<stop offset="0" stop-color="#aa80f9"  />
			<stop offset="0.996" stop-color="#6165d7"  />
		</linearGradient>
		<linearGradient id="grd13" gradientUnits="userSpaceOnUse"  x1="654.643" y1="997.934" x2="1428.874" y2="274.832">
			<stop offset="0" stop-color="#aa80f9"  />
			<stop offset="0.996" stop-color="#6165d7"  />
		</linearGradient>
		<linearGradient id="grd14" gradientUnits="userSpaceOnUse"  x1="1739.194" y1="1166.787" x2="1456.565" y2="1505.244">
			<stop offset="0" stop-color="#444b8c"  />
			<stop offset="0.996" stop-color="#26264f"  />
		</linearGradient>
		<linearGradient id="grd15" gradientUnits="userSpaceOnUse"  x1="1337.929" y1="1149.497" x2="1206.879" y2="1597.45">
			<stop offset="0" stop-color="#ffc444"  />
			<stop offset="0.996" stop-color="#f36f56"  />
		</linearGradient>
		<linearGradient id="grd16" gradientUnits="userSpaceOnUse"  x1="690.804" y1="1027.286" x2="1466.106" y2="303.184">
			<stop offset="0" stop-color="#aa80f9"  />
			<stop offset="0.996" stop-color="#6165d7"  />
		</linearGradient>
		<linearGradient id="grd17" gradientUnits="userSpaceOnUse"  x1="1348.887" y1="730.006" x2="1700.171" y2="422.252">
			<stop offset="0" stop-color="#ffc444"  />
			<stop offset="0.996" stop-color="#f36f56"  />
		</linearGradient>
		<linearGradient id="grd18" gradientUnits="userSpaceOnUse"  x1="1597.392" y1="812.148" x2="1846.85" y2="630.517">
			<stop offset="0" stop-color="#311944"  />
			<stop offset="1" stop-color="#6b3976"  />
		</linearGradient>
		<linearGradient id="grd19" gradientUnits="userSpaceOnUse"  x1="1805.174" y1="654.69" x2="1623.818" y2="973.259">
			<stop offset="0" stop-color="#ffc444"  />
			<stop offset="0.996" stop-color="#f36f56"  />
		</linearGradient>
		<linearGradient id="grd20" gradientUnits="userSpaceOnUse"  x1="619.408" y1="977.237" x2="1375.151" y2="271.401">
			<stop offset="0" stop-color="#aa80f9"  />
			<stop offset="0.996" stop-color="#6165d7"  />
		</linearGradient>
		<linearGradient id="grd21" gradientUnits="userSpaceOnUse"  x1="2360.602" y1="825.414" x2="1890.669" y2="811.468">
			<stop offset="0" stop-color="#ab316d"  />
			<stop offset="1" stop-color="#792d3d"  />
		</linearGradient>
		<linearGradient id="grd22" gradientUnits="userSpaceOnUse"  x1="1291.701" y1="2534.38" x2="1496.537" y2="2719.939">
			<stop offset="0" stop-color="#ab316d"  />
			<stop offset="1" stop-color="#792d3d"  />
		</linearGradient>
		<linearGradient id="grd23" gradientUnits="userSpaceOnUse"  x1="3045.425" y1="388.753" x2="2408.816" y2="1574.263">
			<stop offset="0" stop-color="#ffc444"  />
			<stop offset="0.996" stop-color="#f36f56"  />
		</linearGradient>
		<linearGradient id="grd24" gradientUnits="userSpaceOnUse"  x1="3189.879" y1="337.012" x2="2931.869" y2="740.016">
			<stop offset="0" stop-color="#ab316d"  />
			<stop offset="1" stop-color="#792d3d"  />
		</linearGradient>
		<linearGradient id="grd25" gradientUnits="userSpaceOnUse"  x1="2014.25" y1="1225.909" x2="1680.377" y2="1282.26">
			<stop offset="0" stop-color="#40447e"  />
			<stop offset="0.996" stop-color="#3c3b6b"  />
		</linearGradient>
		<linearGradient id="grd26" gradientUnits="userSpaceOnUse"  x1="2434.183" y1="821.514" x2="2154.924" y2="1737.477">
			<stop offset="0" stop-color="#ffc444"  />
			<stop offset="0.996" stop-color="#f36f56"  />
		</linearGradient>
		<linearGradient id="grd27" gradientUnits="userSpaceOnUse"  x1="2530.786" y1="764.134" x2="2405.178" y2="1085.507">
			<stop offset="0" stop-color="#ab316d"  />
			<stop offset="1" stop-color="#792d3d"  />
		</linearGradient>
		<linearGradient id="grd28" gradientUnits="userSpaceOnUse"  x1="2833.669" y1="528.47" x2="2596.578" y2="960.35">
			<stop offset="0" stop-color="#ff9085"  />
			<stop offset="1" stop-color="#fb6fbb"  />
		</linearGradient>
		<linearGradient id="grd29" gradientUnits="userSpaceOnUse"  x1="2833.669" y1="528.47" x2="2596.578" y2="960.35">
			<stop offset="0" stop-color="#ff9085"  />
			<stop offset="1" stop-color="#fb6fbb"  />
		</linearGradient>
		<linearGradient id="grd30" gradientUnits="userSpaceOnUse"  x1="2827.369" y1="540.169" x2="2603.124" y2="948.65">
			<stop offset="0" stop-color="#ff9085"  />
			<stop offset="1" stop-color="#fb6fbb"  />
		</linearGradient>
		<linearGradient id="grd31" gradientUnits="userSpaceOnUse"  x1="1851.114" y1="3667.758" x2="1654.153" y2="3750.482">
			<stop offset="0" stop-color="#40447e"  />
			<stop offset="0.996" stop-color="#3c3b6b"  />
		</linearGradient>
		<linearGradient id="grd32" gradientUnits="userSpaceOnUse"  x1="1741.793" y1="3163.431" x2="1527.691" y2="3253.354">
			<stop offset="0" stop-color="#40447e"  />
			<stop offset="0.996" stop-color="#3c3b6b"  />
		</linearGradient>
		<linearGradient id="grd33" gradientUnits="userSpaceOnUse"  x1="437.583" y1="1576.418" x2="2421.726" y2="1576.418">
			<stop offset="0" stop-color="#40447e"  />
			<stop offset="0.996" stop-color="#3c3b6b"  />
		</linearGradient>
		<linearGradient id="grd34" gradientUnits="userSpaceOnUse"  x1="437.583" y1="2893.664" x2="3245.958" y2="2893.664">
			<stop offset="0" stop-color="#40447e"  />
			<stop offset="0.996" stop-color="#3c3b6b"  />
		</linearGradient>
		<linearGradient id="grd35" gradientUnits="userSpaceOnUse"  x1="712.992" y1="2919.161" x2="2770.67" y2="2919.161">
			<stop offset="0" stop-color="#40447e"  />
			<stop offset="0.996" stop-color="#3c3b6b"  />
		</linearGradient>
		<linearGradient id="grd36" gradientUnits="userSpaceOnUse"  x1="2878.904" y1="1603.298" x2="2104.545" y2="2614.706">
			<stop offset="0" stop-color="#ff9085"  />
			<stop offset="1" stop-color="#fb6fbb"  />
		</linearGradient>
		<linearGradient id="grd37" gradientUnits="userSpaceOnUse"  x1="961.649" y1="1942.177" x2="1699.419" y2="1172.79">
			<stop offset="0.004" stop-color="#e38ddd"  />
			<stop offset="1" stop-color="#9571f6"  />
		</linearGradient>
		<linearGradient id="grd38" gradientUnits="userSpaceOnUse"  x1="2820.007" y1="2070.402" x2="2187.632" y2="3219.215">
			<stop offset="0" stop-color="#ffc444"  />
			<stop offset="0.996" stop-color="#f36f56"  />
		</linearGradient>
		<linearGradient id="grd39" gradientUnits="userSpaceOnUse"  x1="2990.172" y1="2164.071" x2="2357.799" y2="3312.881">
			<stop offset="0" stop-color="#ffc444"  />
			<stop offset="0.996" stop-color="#f36f56"  />
		</linearGradient>
		<linearGradient id="grd40" gradientUnits="userSpaceOnUse"  x1="1466.908" y1="2414.078" x2="2429.569" y2="2013.553">
			<stop offset="0.004" stop-color="#e38ddd"  />
			<stop offset="1" stop-color="#9571f6"  />
		</linearGradient>
		<linearGradient id="grd41" gradientUnits="userSpaceOnUse"  x1="810.34" y1="1506.41" x2="795.097" y2="1553.19">
			<stop offset="0.494" stop-color="#ebeff2"  />
			<stop offset="1" stop-color="#ffffff"  />
		</linearGradient>
		<linearGradient id="grd42" gradientUnits="userSpaceOnUse"  x1="891.147" y1="1506.41" x2="875.904" y2="1553.19">
			<stop offset="0.494" stop-color="#ebeff2"  />
			<stop offset="1" stop-color="#ffffff"  />
		</linearGradient>
		<linearGradient id="grd43" gradientUnits="userSpaceOnUse"  x1="971.954" y1="1506.41" x2="956.711" y2="1553.19">
			<stop offset="0.494" stop-color="#ebeff2"  />
			<stop offset="1" stop-color="#ffffff"  />
		</linearGradient>
		<linearGradient id="grd44" gradientUnits="userSpaceOnUse"  x1="2315.392" y1="1551.808" x2="2278.977" y2="1709.607">
			<stop offset="0" stop-color="#ffc444"  />
			<stop offset="0.996" stop-color="#f36f56"  />
		</linearGradient>
	</defs>
	<style>
		tspan { white-space:pre }
		.shp0 { fill: #f4f7fa } 
		.shp1 { fill: url(#grd1) } 
		.shp2 { fill: #ffffff } 
		.shp3 { fill: url(#grd2) } 
		.shp4 { fill: url(#grd3) } 
		.shp5 { fill: url(#grd4) } 
		.shp6 { fill: url(#grd5) } 
		.shp7 { fill: url(#grd6) } 
		.shp8 { fill: url(#grd7) } 
		.shp9 { fill: url(#grd8) } 
		.shp10 { fill: url(#grd9) } 
		.shp11 { fill: url(#grd10) } 
		.shp12 { fill: url(#grd11) } 
		.shp13 { fill: url(#grd12) } 
		.shp14 { fill: url(#grd13) } 
		.shp15 { fill: url(#grd14) } 
		.shp16 { fill: url(#grd15) } 
		.shp17 { opacity: 0.302;mix-blend-mode: multiply;fill: url(#grd16) } 
		.shp18 { fill: url(#grd17) } 
		.shp19 { fill: url(#grd18) } 
		.shp20 { fill: url(#grd19) } 
		.shp21 { fill: url(#grd20) } 
		.shp22 { fill: url(#grd21) } 
		.shp23 { fill: url(#grd22) } 
		.shp24 { fill: url(#grd23) } 
		.shp25 { fill: url(#grd24) } 
		.shp26 { fill: url(#grd25) } 
		.shp27 { fill: url(#grd26) } 
		.shp28 { fill: url(#grd27) } 
		.shp29 { fill: url(#grd28) } 
		.shp30 { fill: url(#grd29) } 
		.shp31 { fill: url(#grd30) } 
		.shp32 { fill: url(#grd31) } 
		.shp33 { fill: url(#grd32) } 
		.shp34 { fill: url(#grd33) } 
		.shp35 { opacity: 0.478;fill: #ffffff } 
		.shp36 { fill: url(#grd34) } 
		.shp37 { opacity: 0.302;mix-blend-mode: multiply;fill: url(#grd35) } 
		.shp38 { fill: #d8dee8 } 
		.shp39 { fill: url(#grd36) } 
		.shp40 { fill: url(#grd37) } 
		.shp41 { fill: url(#grd38) } 
		.shp42 { fill: url(#grd39) } 
		.shp43 { fill: url(#grd40) } 
		.shp44 { fill: url(#grd41) } 
		.shp45 { fill: url(#grd42) } 
		.shp46 { fill: url(#grd43) } 
		.shp47 { fill: url(#grd44) } 
	</style>
	<g id="Background">
		<g id="&lt;Group&gt;">
			<g id="&lt;Group&gt;">
			</g>
		</g>
	</g>
	<g id="Illustration">
		<g id="&lt;Group&gt;">
			<path id="&lt;Path&gt;" class="shp0" d="M1095.54 555.2C999.09 695.8 1112.18 923.76 969.06 1029.5C829.74 1132.44 658.59 963.71 527.29 1052.32C332.52 1183.76 368.09 1785.22 652.86 2158.92C738.5 2271.3 810.06 2315.03 841.75 2442.13C909.8 2715.05 670.63 2877.39 716.14 3012.37C818.63 3316.3 2394.71 3571.33 3027.1 2657.93C3322.46 2231.34 3366.65 1615.33 3102.76 1147.47C2625.91 302.05 1311.97 239.71 1095.54 555.2Z" />
			<g id="&lt;Group&gt;">
				<g id="&lt;Group&gt;">
					<g id="&lt;Group&gt;">
						<path id="&lt;Path&gt;" class="shp1" d="M1874.75 3107.61C1826.99 2962.06 1778.37 2739.87 1835.28 2493.18C1900.63 2209.91 2045.39 2153.24 2175.36 1850.45C2360.89 1418.23 2150.91 1105.14 2342.98 973.03C2436.64 908.61 2583.92 908.56 2674.73 973.23C2933.8 1157.76 2862.78 1961.51 2451.73 2275.16C2265.83 2417.01 2103.61 2400.18 1964.1 2583.75C1840.83 2745.94 1850.5 2959.92 1874.75 3107.61Z" />
					</g>
					<g id="&lt;Clip Group&gt;" clip-path="url(#cp1)">
						<g id="&lt;Group&gt;">
						</g>
						<g id="&lt;Group&gt;">
							<path id="&lt;Path&gt;" class="shp2" d="M1845 2741.25L1841.57 2740.38C1857.21 2678.93 1878.23 2618.56 1904.05 2560.93C1963.43 2428.39 2028.87 2355.59 2111.72 2263.43C2165.56 2203.53 2226.59 2135.63 2297.08 2038.34C2428.94 1856.36 2469.85 1792.46 2506.41 1689.68C2578.82 1486.16 2567.7 1303.7 2554.62 1213.06C2536.08 1084.47 2492.93 962.09 2426.38 849.33L2429.43 847.54C2496.21 960.69 2539.51 1083.5 2558.12 1212.55C2571.24 1303.52 2582.4 1486.63 2509.74 1690.87C2473.03 1794.06 2432.04 1858.11 2299.94 2040.42C2229.34 2137.86 2168.25 2205.82 2114.34 2265.79C2031.7 2357.72 1966.43 2430.34 1907.27 2562.38C1881.54 2619.82 1860.59 2680 1845 2741.25Z" />
							<path id="&lt;Path&gt;" class="shp2" d="M2546.3 1545.78L2546.25 1542.87C2543.59 1392.89 2447.73 1295.82 2367.79 1240.8C2281.04 1181.09 2193.84 1156.63 2192.97 1156.39L2193.91 1152.98C2194.78 1153.22 2282.55 1177.85 2369.79 1237.88C2449.89 1293.01 2545.84 1390.03 2549.72 1539.83C2563.53 1531.78 2630.99 1490.24 2691.67 1413.81C2754.05 1335.23 2821.83 1202.61 2790.47 1017.03L2793.96 1016.44C2825.55 1203.37 2757.23 1336.96 2694.35 1416.12C2626.25 1501.86 2549.62 1543.97 2548.86 1544.39L2546.3 1545.78Z" />
							<path id="&lt;Path&gt;" class="shp2" d="M2522.8 2027.3C2507.47 2027.3 2492.99 2026.54 2479.6 2025.32C2395.42 2017.62 2335.11 1990.31 2334.51 1990.04L2333.16 1989.42L2333.53 1987.98C2372.14 1840.77 2338.64 1732.31 2303.73 1667.24C2265.89 1596.7 2218.29 1560.51 2217.81 1560.15L2219.93 1557.32C2220.41 1557.68 2268.55 1594.25 2306.77 1665.42C2341.9 1730.85 2375.65 1839.76 2337.33 1987.42C2346.68 1991.46 2403.37 2014.82 2480.05 2021.81C2557.11 2028.83 2670.74 2020.28 2774.37 1939.62L2776.54 1942.41C2689.98 2009.79 2596.52 2027.3 2522.8 2027.3Z" />
							<path id="&lt;Path&gt;" class="shp2" d="M2349.46 2308.6C2304.57 2308.6 2267.67 2302.36 2239.14 2294.59C2168.65 2275.4 2132.48 2242.94 2132.12 2242.62L2131.19 2241.76L2131.69 2240.6C2196.98 2091.05 2105.91 1846.4 2104.98 1843.95L2108.29 1842.7C2109.22 1845.16 2200.31 2089.87 2135.45 2240.82C2141.53 2245.96 2176.8 2274 2240.3 2291.24C2304.7 2308.73 2412.15 2318.38 2558.29 2264.98L2559.5 2268.3C2477.02 2298.44 2406.74 2308.6 2349.46 2308.6Z" />
						</g>
					</g>
				</g>
				<g id="&lt;Group&gt;">
					<g id="&lt;Group&gt;">
						<path id="&lt;Path&gt;" class="shp3" d="M1726.69 2879.43C1710.53 2781.66 1701.24 2628.97 1780.82 2492.41C1919.66 2254.19 2172.73 2333.21 2414.95 2077.98C2610.32 1872.13 2548.76 1712.14 2765.24 1575.34C2801.47 1552.44 2992.94 1426.42 3135.32 1502.32C3215.55 1545.09 3244.62 1632.89 3250.08 1649.38C3332.56 1898.5 3078.81 2288.52 2748.08 2466.91C2558.06 2569.4 2496.75 2535.91 2162.36 2655.44C1965.87 2725.68 1818.34 2816.13 1726.69 2879.43Z" />
					</g>
					<g id="&lt;Clip Group&gt;" clip-path="url(#cp2)">
						<g id="&lt;Group&gt;">
						</g>
						<g id="&lt;Group&gt;">
							<path id="&lt;Path&gt;" class="shp2" d="M1698.1 2997.02L1694.64 2996.3C1743.29 2762.61 1835.57 2605.61 1968.91 2529.65C2034.18 2492.46 2086.15 2486.58 2141.17 2480.35C2200.35 2473.66 2261.54 2466.73 2342.31 2417.89C2420.81 2370.42 2448.95 2324.71 2484.58 2266.85C2516.63 2214.8 2556.51 2150.03 2646.03 2063.75C2724.49 1988.12 2781.63 1952.73 2832.04 1921.5C2886.65 1887.68 2929.78 1860.96 2979.72 1795.51C3061.29 1688.62 3103.93 1551.55 3106.44 1388.13L3109.97 1388.18C3107.45 1552.38 3064.57 1690.15 2982.53 1797.66C2932.19 1863.62 2888.81 1890.49 2833.9 1924.51C2783.64 1955.64 2726.67 1990.93 2648.48 2066.29C2559.29 2152.26 2519.53 2216.82 2487.59 2268.7C2451.71 2326.97 2423.37 2373 2344.14 2420.92C2262.7 2470.16 2201.12 2477.13 2141.57 2483.87C2086.92 2490.05 2035.3 2495.89 1970.66 2532.72C1838.24 2608.16 1746.54 2764.37 1698.1 2997.02Z" />
							<path id="&lt;Path&gt;" class="shp2" d="M2831.38 1938.75C2824.64 1938.75 2817.86 1938.65 2810.98 1938.44L2808.62 1938.37L2809.36 1936.12C2810.43 1932.86 2915.34 1608.48 2795.84 1474.39L2798.48 1472.04C2833.39 1511.2 2870.91 1592.31 2851.44 1756.31C2840.9 1845.14 2817.81 1921.11 2813.43 1934.97C2991.11 1939.79 3123.36 1872.52 3203.06 1815.11C3289.85 1752.6 3334.87 1687.95 3335.32 1687.3L3338.23 1689.3C3337.78 1689.95 3292.48 1755.02 3205.24 1817.89C3127.8 1873.7 3001.09 1938.75 2831.38 1938.75Z" />
							<path id="&lt;Path&gt;" class="shp2" d="M2844.43 2215.12C2817.03 2215.12 2791.55 2213.7 2768.43 2211.47C2644.13 2199.5 2559.82 2162.36 2558.98 2161.99L2557.6 2161.37L2558 2159.9C2604.72 1990.76 2563.5 1750.11 2563.08 1747.7L2566.56 1747.09C2566.98 1749.5 2608.09 1989.54 2561.81 2159.36C2573.24 2164.2 2653.83 2196.91 2768.9 2207.97C2883.06 2218.95 3055.48 2210.23 3228.6 2106.45L3230.42 2109.48C3091.49 2192.77 2953 2215.12 2844.43 2215.12Z" />
							<path id="&lt;Path&gt;" class="shp2" d="M2697.14 2609.71C2534.72 2609.71 2409.22 2575.38 2331.18 2545.76C2242.26 2512.01 2193.97 2476.86 2193.49 2476.51L2191.99 2475.41L2193.17 2473.97C2321.6 2317.19 2271.56 2058.18 2271.04 2055.59L2274.51 2054.89C2275.03 2057.5 2325.06 2316.54 2197.11 2474.73C2215.82 2487.71 2404.91 2612.77 2722.08 2605.9L2722.16 2609.43C2713.73 2609.62 2705.38 2609.71 2697.14 2609.71Z" />
						</g>
					</g>
				</g>
				<g id="&lt;Group&gt;">
					<path id="&lt;Path&gt;" class="shp4" d="M1895.96 2862.32C1950.34 2823.24 2039.33 2766.68 2159.04 2724.24C2371.96 2648.76 2469.54 2693.29 2559.68 2603.28C2652.98 2510.1 2592.55 2418.33 2704.25 2314.27C2713.64 2305.53 2833.59 2196.69 2942.09 2237.22C3018 2265.57 3047.56 2351.8 3061.43 2392.26C3115.25 2549.28 3083.96 2788.54 2916.44 2906.56C2757.62 3018.44 2556.54 2965.12 2492.7 2947.74C2380.7 2917.24 2354.15 2873.59 2240.3 2845.98C2101.83 2812.41 1977.38 2837.28 1895.96 2862.32Z" />
				</g>
				<g id="&lt;Group&gt;">
					<path id="&lt;Path&gt;" class="shp5" d="M1895.96 2862.32C1950.34 2823.24 2039.33 2766.68 2159.04 2724.24C2371.96 2648.76 2469.54 2693.29 2559.68 2603.28C2652.98 2510.1 2592.55 2418.33 2704.25 2314.27C2713.64 2305.53 2833.59 2196.69 2942.09 2237.22C3018 2265.57 3047.56 2351.8 3061.43 2392.26C3115.25 2549.28 3083.96 2788.54 2916.44 2906.56C2757.62 3018.44 2556.54 2965.12 2492.7 2947.74C2380.7 2917.24 2354.15 2873.59 2240.3 2845.98C2101.83 2812.41 1977.38 2837.28 1895.96 2862.32Z" />
				</g>
				<g id="&lt;Clip Group&gt;" clip-path="url(#cp3)">
					<g id="&lt;Group&gt;">
					</g>
					<g id="&lt;Group&gt;">
						<path id="&lt;Path&gt;" class="shp2" d="M1851.28 2897.63L1849.2 2894.78C1981.65 2797.86 2111 2752.19 2233.6 2759.05C2287.21 2762.06 2324.83 2773.99 2361.21 2785.53C2406.7 2799.95 2449.66 2813.58 2520.93 2810.6C2649.19 2805.25 2758.63 2761.72 2829.1 2688.05C2938.23 2573.95 2962.38 2382.54 2890.62 2200.41L2893.91 2199.11C2966.17 2382.52 2941.73 2575.4 2831.65 2690.49C2760.56 2764.83 2650.26 2808.74 2521.08 2814.13C2449.14 2817.14 2405.93 2803.42 2360.14 2788.9C2323.97 2777.42 2286.56 2765.56 2233.4 2762.58C2111.61 2755.78 1983.06 2801.21 1851.28 2897.63Z" />
						<path id="&lt;Path&gt;" class="shp2" d="M2881.73 2616.46L2881.93 2613.75C2890.16 2504.48 2824.36 2421.59 2767.71 2371.29C2706.22 2316.69 2641.98 2287.65 2641.33 2287.37L2642.78 2284.14C2643.42 2284.43 2708.16 2313.69 2770.06 2368.65C2826.83 2419.05 2892.69 2501.9 2885.65 2611.26C2909.58 2601.99 3093.24 2525.99 3105.28 2375.73L3108.8 2376.02C3095.8 2538.25 2886.4 2614.8 2884.29 2615.55L2881.73 2616.46Z" />
						<path id="&lt;Path&gt;" class="shp2" d="M2841.3 2865.09C2809.8 2865.09 2781.96 2861.9 2758.26 2857.36C2670.43 2840.52 2619.07 2801.94 2618.56 2801.55L2617.19 2800.5L2618.2 2799.11C2682.18 2710.9 2671.54 2614.23 2651.35 2548.66C2629.44 2477.5 2591.9 2426.63 2591.52 2426.13L2594.36 2424.01C2594.74 2424.52 2632.64 2475.88 2654.73 2547.62C2675.05 2613.6 2685.78 2710.75 2622.09 2799.75C2630.82 2805.93 2680.02 2838.8 2759.11 2853.92C2839.48 2869.29 2968.02 2868.96 3124.09 2780.14L3125.84 2783.21C3014.73 2846.45 2917.4 2865.09 2841.3 2865.09Z" />
					</g>
					<g id="&lt;Clip Group&gt;" clip-path="url(#cp4)">
						<g id="&lt;Group&gt;">
						</g>
					</g>
				</g>
			</g>
			<g id="&lt;Group&gt;">
				<g id="&lt;Group&gt;">
					<path id="&lt;Path&gt;" class="shp6" d="M949.89 2839.92L877.89 2796.66L845.4 2796.66C838.02 2824.13 834.75 2838.55 835.59 2839.92C850.07 2863.64 917.47 2881.69 959.53 2883.18C966.51 2883.43 976.25 2883.46 978.77 2878.4C983.04 2869.83 963.99 2851.85 949.89 2839.92Z" />
					<path id="&lt;Path&gt;" class="shp7" d="M876.62 2749.46C876.5 2774.66 877.58 2792.44 883.89 2800.26C888.33 2805.77 845.64 2818.15 845.4 2796.66C845.25 2782.51 843.03 2758.24 840.77 2751.12C852.72 2750.56 864.67 2750.01 876.62 2749.46Z" />
				</g>
				<g id="&lt;Group&gt;">
					<path id="&lt;Path&gt;" class="shp8" d="M1431.24 2783.14L1359.24 2739.89L1326.75 2739.89C1319.37 2767.35 1316.1 2781.77 1316.94 2783.14C1331.41 2806.86 1398.82 2824.91 1440.88 2826.4C1447.86 2826.65 1457.6 2826.69 1460.12 2821.63C1464.38 2813.06 1445.34 2795.07 1431.24 2783.14Z" />
					<path id="&lt;Path&gt;" class="shp9" d="M1337.37 2692.99C1347.86 2713.05 1358.93 2735.67 1365.24 2743.49C1369.68 2748.99 1334.2 2760.05 1326.75 2739.89C1320.71 2723.54 1303.78 2701.78 1301.52 2694.65C1313.47 2694.1 1325.42 2693.54 1337.37 2692.99Z" />
				</g>
				<path id="&lt;Path&gt;" class="shp10" d="M1322.56 1512.76C1294.71 1698.01 1276.51 1928.42 1292.94 2191.58C1305.08 2385.97 1333.63 2558.56 1367 2705.02C1344.78 2710.78 1322.56 2716.54 1300.35 2722.3C1272.69 2715.9 1233.48 2702.03 1206.55 2668C1171.13 2623.25 1187.28 2581.98 1162.11 2507.55C1138.09 2436.49 1109.38 2432.71 1080.66 2371.78C1043.19 2292.31 1066.07 2243.63 1063.38 2137.28C1058.82 1957.37 989.46 1943.43 967.11 1720.11C955.4 1603.19 949.63 1536.05 991.79 1493.01C1050.83 1432.74 1180.65 1443.43 1322.56 1512.76Z" />
				<path id="&lt;Path&gt;" class="shp11" d="M1169.52 1525.1C1093.43 1702.16 1014.35 1928.93 962.17 2198.99C920.47 2414.81 905.32 2609.74 902.93 2774.14C878.24 2774.14 853.56 2774.14 828.87 2774.14C807.46 2742.97 779.3 2694.65 762.22 2630.97C745.2 2567.47 755.91 2551.11 744.95 2450.77C730 2314.03 710.43 2307.74 712.85 2226.14C715.64 2132.38 744.13 2132.75 754.82 2038.54C770.63 1899.17 713.07 1856.16 715.32 1727.52C716.34 1669.73 729.64 1582.67 794.31 1475.73C919.38 1492.19 1044.45 1508.65 1169.52 1525.1Z" />
				<path id="&lt;Path&gt;" class="shp12" d="M2142.1 1503.44L2171.13 1529.17C2213.62 1527.49 2242.51 1528.6 2257.81 1532.49C2273.11 1536.38 2293.96 1544.96 2320.35 1558.23C2313.75 1567.97 2305.78 1571 2296.42 1567.3C2282.38 1561.77 2260.69 1554.29 2256.53 1556.32C2252.36 1558.35 2242.55 1584.78 2209.13 1589.19C2186.85 1592.14 2170.53 1580.5 2160.16 1554.28L2128.52 1527.41L2142.1 1503.44Z" />
				<path id="&lt;Path&gt;" class="shp13" d="M1809.47 825.91C1821.23 827.36 1844.27 834.47 1896.48 931.44C1968.98 1066.11 1968.84 1142.72 2007.56 1225.8C2036.46 1287.83 2093.79 1367.87 2219.68 1439.17C2210.17 1450.37 2200.66 1461.57 2191.15 1472.77C2140.11 1476.85 2059.72 1477.04 1967.37 1449.35C1938.57 1440.71 1886.01 1424.55 1829.74 1388C1787.72 1360.71 1658.53 1276.81 1639.14 1136.94C1617.95 984.04 1735.57 816.84 1809.47 825.91Z" />
				<path id="&lt;Path&gt;" class="shp14" d="M1146.69 653.74C1222.41 629.48 1281.68 636.2 1387.36 648.19C1541.59 665.68 1640.46 716.8 1726.15 761.12C1810.38 804.67 1832.68 829.25 1844.64 857.39C1872.54 923 1838.55 994.69 1816.87 1038.82C1761.52 1151.49 1710.15 1147.57 1592.86 1283.19C1489.67 1402.51 1438.07 1462.17 1404.02 1549.79C1388.96 1588.55 1374.25 1638.74 1326.27 1668.27C1279.69 1696.94 1226.81 1690.73 1196.67 1686.79C1070.08 1670.22 1058.85 1588.51 976.36 1594.22C910.63 1598.77 896.38 1652.13 783.82 1670.12C733.52 1678.17 718.84 1670.31 711.62 1664.57C684.23 1642.82 687.42 1590.82 713.47 1484.99C753.53 1322.28 789.22 1269.53 822.7 1140.64C857.47 1006.79 830.69 1018.56 859.73 942.55C869.49 917 949.44 716.93 1146.69 653.74Z" />
				<path id="&lt;Path&gt;" class="shp15" d="M1162.22 1328.32L1429.09 1035.41C1435.53 1026.91 1446.15 1022.66 1456.68 1024.38L1762.31 1074.34C1775.41 1076.48 1781.44 1091.86 1773.3 1102.33L1524.84 1421.99C1518.18 1430.56 1507.26 1434.66 1496.61 1432.58L1179.66 1373.95C1158.76 1369.88 1149.36 1345.3 1162.22 1328.32Z" />
				<path id="&lt;Path&gt;" class="shp16" d="M1151.01 1234.03L1208.13 1209.1C1222.68 1188.33 1235.83 1176.21 1247.6 1172.75C1259.38 1169.29 1286.38 1169.98 1328.62 1174.83C1324.47 1191.45 1318.24 1201.14 1309.93 1203.91C1297.46 1208.07 1259.03 1211.18 1252.8 1223.65C1246.57 1236.11 1223.71 1245.46 1215.4 1241.3C1209.87 1238.53 1189.44 1243.04 1154.12 1254.81L1151.01 1234.03Z" />
				<path id="&lt;Path&gt;" class="shp17" d="M1170.75 1620.14C1144.42 1587.98 1158.63 1549.41 1122.62 1516.46C1063.96 1462.8 957.81 1502.5 952.3 1483.14C945.69 1459.94 1104.68 1426.32 1122.62 1335.03C1130.75 1293.64 1100.81 1286.6 1104.11 1231.36C1107.2 1179.56 1139.53 1136.88 1204.08 1053.63C1255.04 987.9 1268.82 982.55 1270.73 957.36C1276.45 881.64 1180.8 828.94 1141.13 801.85C1092.62 768.71 1041.93 751.53 994.61 743.66C906.3 825 866.43 924.99 859.73 942.55C830.69 1018.56 857.47 1006.79 822.7 1140.64C789.22 1269.53 753.53 1322.28 713.47 1484.99C687.42 1590.82 684.23 1642.82 711.62 1664.57C718.84 1670.31 733.52 1678.17 783.82 1670.12C896.38 1652.13 910.63 1598.77 976.36 1594.22C1058.85 1588.51 1070.08 1670.22 1196.67 1686.79C1226.81 1690.73 1279.69 1696.94 1326.27 1668.27C1336.75 1661.82 1345.57 1654.34 1353.23 1646.24C1241.29 1666.81 1192.84 1647.11 1170.75 1620.14Z" />
				<g id="&lt;Group&gt;">
					<path id="&lt;Path&gt;" class="shp18" d="M1687.89 573.51C1670.98 614.15 1607.67 716.68 1470.83 666.44C1434.21 653 1427.96 657.73 1425.84 660.55C1415.51 674.32 1488.87 765.88 1592.67 793.78C1655.99 810.8 1723.71 802.27 1727.31 784.64C1730.94 766.89 1685.69 768.51 1680.49 731.5C1676.87 705.73 1728.97 674.86 1755.78 657.44C1751.4 623.76 1692.29 607.26 1687.89 573.51Z" />
					<g id="&lt;Group&gt;">
						<path id="&lt;Path&gt;" class="shp19" d="M1801.72 653.84C1825.17 646.15 1844.17 619.61 1840.69 593.55C1837.7 571.12 1818.8 556.83 1807.49 548.27C1774.66 523.44 1721.15 509.85 1685.97 529.62C1665.11 541.35 1660.85 589.14 1659.63 597.45C1658.24 606.85 1662.97 613.18 1665.18 622.23C1668.24 634.78 1672.91 654.61 1680.19 687.43C1685.86 682.41 1693.34 676.46 1702.7 670.77C1706.31 668.58 1720.54 660.12 1736.49 655.59C1768.43 646.51 1779.48 661.14 1801.72 653.84Z" />
						<path id="&lt;Path&gt;" class="shp20" d="M1661.77 652.5C1661.96 684.5 1678.1 708.79 1710.2 725.38C1753.23 747.62 1815.17 668.26 1800.65 634.89C1795.8 623.75 1779.8 610.75 1763.02 605.75C1753.11 602.8 1748.11 604.24 1731.98 599.12C1717.09 594.41 1714.32 590.96 1708.46 591.55C1701.13 592.3 1691.51 599.13 1683.25 628.29C1680.16 616.4 1672.5 607.97 1663.84 606.78C1662.46 606.6 1658.44 606.62 1655.06 608.29C1642.84 614.32 1644.38 632.25 1661.77 652.5Z" />
					</g>
				</g>
				<path id="&lt;Path&gt;" class="shp21" d="M1391.06 679.66C1341.02 595.18 1105.44 626.08 946.74 718.54C895.06 748.64 737.45 840.46 726.43 999.94C725.23 1017.27 722.15 1087.7 763.46 1153.6C832.93 1264.44 997.2 1313.35 1170.75 1270.23C1168.9 1251.72 1167.05 1233.21 1165.2 1214.7C1150.42 1215.21 1091.59 1215.54 1039.31 1172.11C1028.84 1163.42 966.6 1111.72 976.36 1064.74C992.75 985.85 1189.48 1028.86 1317.01 896.26C1374.19 836.81 1424 735.26 1391.06 679.66Z" />
			</g>
			<g id="&lt;Group&gt;">
				<path id="&lt;Path&gt;" class="shp22" d="M1528.98 2735C1560.94 2785.99 1606.54 2816.7 1665.8 2827.14L2941.61 932.74L2804.79 840.6L1528.98 2735Z" />
				<path id="&lt;Path&gt;" class="shp23" d="M1614.98 2811.74C1595.86 2803.12 1578.66 2791.64 1563.4 2777.28L2848.06 869.73L2899.51 904.39L1614.98 2811.74Z" />
				<path id="&lt;Path&gt;" class="shp24" d="M2804.79 840.6C2832.13 897.32 2877.53 928.33 2941.61 932.74L3166.45 460.83C3168.84 455.29 3161.79 450.54 3157.55 454.84L2804.79 840.6Z" />
				<path id="&lt;Path&gt;" class="shp25" d="M3166.45 460.83L3079.05 644.28C3056.1 635.96 3036.56 622.79 3020.37 604.86L3157.55 454.84C3161.79 450.54 3168.84 455.29 3166.45 460.83Z" />
			</g>
			<g id="&lt;Group&gt;">
				<path id="&lt;Path&gt;" class="shp26" d="M1696 2692.43C1725.75 2723.94 1762.29 2739.2 1805.61 2738.23L2439.82 1220.46L2330.21 1174.66L1696 2692.43Z" />
				<path id="&lt;Path&gt;" class="shp27" d="M2330.21 1174.66C2357.51 1210.87 2393.94 1226.37 2439.82 1220.46L2532.14 855.48C2533.05 851.22 2527.4 848.86 2525.01 852.5L2330.21 1174.66Z" />
				<path id="&lt;Path&gt;" class="shp28" d="M2532.14 855.48L2496.25 997.36C2478.88 994.71 2463.22 988.16 2449.26 977.78L2525.01 852.5C2527.4 848.86 2533.05 851.22 2532.14 855.48Z" />
				<path id="&lt;Path&gt;" class="shp29" d="M2675.5 418.55C2719.47 508.62 2725.24 617.09 2692.8 743.96C2644.15 934.27 2510.57 1026.24 2464.05 997.54C2417.54 968.85 2357.28 857.25 2406.35 766.71C2455.42 676.16 2647 540.81 2675.5 418.55Z" />
				<path id="&lt;Path&gt;" class="shp30" d="M2675.5 418.55C2719.47 508.62 2725.24 617.09 2692.8 743.96C2644.15 934.27 2510.57 1026.24 2464.05 997.54C2417.54 968.85 2357.28 857.25 2406.35 766.71C2455.42 676.16 2647 540.81 2675.5 418.55Z" />
				<g id="&lt;Group&gt;" style="opacity: 0.302;mix-blend-mode: multiply">
					<path id="&lt;Path&gt;" class="shp31" d="M2675.5 418.55C2672.77 430.29 2668.52 442.14 2663.05 454.07C2689.38 554.14 2674.15 608.71 2648.51 640.46C2612.72 684.79 2563.52 676.24 2526.28 734.11C2477.39 810.09 2527.22 879.2 2487.13 932.98C2476.91 946.7 2460.51 959.82 2433.13 968.25C2443.25 981.2 2453.97 991.32 2464.05 997.54C2510.57 1026.24 2644.15 934.27 2692.8 743.96C2725.24 617.09 2719.47 508.62 2675.5 418.55Z" />
				</g>
			</g>
			<g id="&lt;Group&gt;">
				<path id="&lt;Path&gt;" class="shp32" d="M3245.96 3019.37L437.58 2994.91L437.58 3067.28C437.58 3086.92 449.83 3103.62 466.42 3106.6L1260.55 3249.11C1269.97 3250.8 1279.53 3251.25 1289.04 3250.45L3215.44 3087.96C3232.64 3086.51 3245.96 3069.76 3245.96 3049.58L3245.96 3019.37Z" />
				<g id="&lt;Group&gt;">
					<path id="&lt;Path&gt;" class="shp33" d="M2341.91 2902.05L468.49 3034.44C434.97 3036.81 407.71 3011.64 407.71 2978.21L407.71 1638.94C407.71 1605.51 434.97 1578.41 468.49 1578.41L2341.91 1578.41C2369.52 1578.41 2391.85 1602.91 2391.85 1633.13L2391.85 2843.81C2391.85 2874.02 2369.52 2900.1 2341.91 2902.05Z" />
					<path id="&lt;Path&gt;" class="shp34" d="M2371.78 2902.05L498.36 3034.44C464.84 3036.81 437.58 3011.64 437.58 2978.21L437.58 1638.94C437.58 1605.51 464.84 1578.41 498.36 1578.41L2371.78 1578.41C2399.4 1578.41 2421.73 1602.91 2421.73 1633.13L2421.73 2843.81C2421.73 2874.02 2399.4 2900.1 2371.78 2902.05Z" />
					<path id="&lt;Path&gt;" class="shp2" d="M2313.42 2816.7L568.53 2931.7C541.25 2933.49 519.08 2912.83 519.08 2885.54L519.08 1713.01C519.08 1685.72 541.25 1663.51 568.53 1663.39L2313.42 1656.17C2336.2 1656.08 2354.63 1676.15 2354.63 1701.01L2354.63 2768.97C2354.63 2793.83 2336.2 2815.2 2313.42 2816.7Z" />
					<path id="&lt;Path&gt;" class="shp2" d="M1501.23 1615.05C1501.23 1627.49 1491.59 1637.61 1479.69 1637.64C1467.76 1637.68 1458.09 1627.6 1458.09 1615.13C1458.09 1602.66 1467.76 1592.54 1479.69 1592.53C1491.59 1592.52 1501.23 1602.6 1501.23 1615.05Z" />
					<path id="&lt;Path&gt;" class="shp35" d="M1920.41 2534.74C1775.98 2457.03 1662.43 2555.49 1552.83 2458.34C1486.39 2399.44 1519.01 2355.52 1437.25 2267.51C1346.7 2170.02 1287.75 2202.79 1196.75 2115.05C1081.68 2004.11 1139.23 1917.8 1040.11 1838.15C919.87 1741.52 790.2 1830.96 675.74 1738.29C626.37 1698.32 599.29 1640.21 585.14 1578.41L473.15 1578.41C453.52 1578.41 437.58 1594.32 437.58 1613.94L437.58 3002.21C437.58 3021.83 453.52 3036.61 473.15 3035.21L2382.46 2899.69C2391.83 2899.02 2400.14 2893.55 2405.47 2885.62C2265.7 2880.53 2179.84 2833.67 2124.95 2785.23C2017.57 2690.48 2036.2 2597.04 1920.41 2534.74Z" />
				</g>
				<path id="&lt;Path&gt;" class="shp36" d="M2325.03 2896.05L437.58 3035.4L1260.55 3183.09C1269.97 3184.78 1279.53 3185.23 1289.04 3184.42L3245.96 3019.37L2355.06 2896.99C2345.09 2895.62 2335.04 2895.31 2325.03 2896.05Z" />
				<path id="&lt;Path&gt;" class="shp37" d="M712.99 3038.91L2284.35 2921.16L2770.67 2987.42L1212.85 3113.29L712.99 3038.91Z" />
			</g>
			<g id="&lt;Group&gt;">
				<path id="&lt;Path&gt;" class="shp38" d="M2308.64 1989.57L563.57 2016.17L563.57 1698.96L2308.64 1698.96L2308.64 1989.57Z" />
				<path id="&lt;Path&gt;" class="shp38" d="M1755.3 2555.36L649.71 2603.62L649.71 2071.4L1755.3 2051.53L1755.3 2555.36Z" />
				<path id="&lt;Path&gt;" class="shp38" d="M2235.77 2190.35L1819.9 2201.02L1819.9 2050.37L2235.77 2042.9L2235.77 2190.35Z" />
				<path id="&lt;Path&gt;" class="shp38" d="M2235.77 2534.39L1819.9 2552.54L1819.9 2254.38L2235.77 2242.57L2235.77 2534.39Z" />
				<path id="&lt;Path&gt;" class="shp38" d="M2235.77 2601.97L649.71 2676.8L649.71 2803.2L2235.77 2718.7L2235.77 2601.97Z" />
			</g>
			<g id="&lt;Group&gt;">
				<path id="&lt;Path&gt;" class="shp39" d="M2713.62 1799.13L716.19 1824.21C704.87 1824.35 695.62 1815.22 695.62 1803.9L695.62 1476.42C695.62 1465.2 704.72 1456.1 715.94 1456.1L2713.37 1456.1C2724.59 1456.1 2733.68 1465.2 2733.68 1476.42L2733.68 1778.82C2733.68 1789.94 2724.74 1798.99 2713.62 1799.13Z" />
				<path id="&lt;Path&gt;" class="shp40" d="M2273.09 2467.39L1005.34 2513.58L1005.34 1899.5L2273.09 1880.14L2273.09 2467.39Z" />
				<path id="&lt;Path&gt;" class="shp41" d="M2832.13 2044.23L2347.96 2054.69L2347.96 1878.99L2832.13 1871.6L2832.13 2044.23Z" />
				<path id="&lt;Path&gt;" class="shp42" d="M2832.13 2447.03L2347.96 2464.67L2347.96 2116.92L2832.13 2105.37L2832.13 2447.03Z" />
				<path id="&lt;Path&gt;" class="shp43" d="M2887.87 2511.17L1068.81 2581.88L1068.81 2727.4L2887.87 2647.56L2887.87 2511.17Z" />
				<path id="&lt;Path&gt;" class="shp44" d="M799.18 1520.63C799.18 1534.21 788.17 1545.23 774.58 1545.23C761 1545.23 749.99 1534.21 749.99 1520.63C749.99 1507.05 761 1496.04 774.58 1496.04C788.17 1496.04 799.18 1507.05 799.18 1520.63Z" />
				<path id="&lt;Path&gt;" class="shp45" d="M879.98 1520.63C879.98 1534.21 868.97 1545.23 855.39 1545.23C841.81 1545.23 830.8 1534.21 830.8 1520.63C830.8 1507.05 841.81 1496.04 855.39 1496.04C868.97 1496.04 879.98 1507.05 879.98 1520.63Z" />
				<path id="&lt;Path&gt;" class="shp46" d="M960.79 1520.63C960.79 1534.21 949.78 1545.23 936.2 1545.23C922.61 1545.23 911.6 1534.21 911.6 1520.63C911.6 1507.05 922.61 1496.04 936.2 1496.04C949.78 1496.04 960.79 1507.05 960.79 1520.63Z" />
			</g>
			<path id="&lt;Path&gt;" class="shp47" d="M2170.48 1456.1C2227.21 1433.47 2261.42 1425.8 2273.09 1433.11C2290.6 1444.08 2308.64 1487.26 2321.58 1503.44C2334.52 1519.62 2299.5 1519.89 2273.09 1496.04C2255.48 1480.14 2221.28 1466.83 2170.48 1456.1Z" />
		</g>
	</g>
</svg>