<svg xmlns="http://www.w3.org/2000/svg" viewBox="0 0 1000 1000" width="1000" height="1000">
	<style>
		tspan { white-space:pre }
		.shp0 { fill: #e0e0e0 } 
		.shp1 { fill: #ebebeb } 
		.shp2 { fill: #f5f5f5 } 
		.shp3 { fill: #e8505b } 
		.shp4 { fill: #ffffff } 
		.shp5 { fill: #ffbe9d } 
		.shp6 { opacity: 0.302;fill: #ffffff } 
		.shp7 { fill: #263238 } 
		.shp8 { fill: #fafafa } 
		.shp9 { fill: #455a64 } 
		.shp10 { fill: #000000 } 
		.shp11 { opacity: 0.4;fill: #000000 } 
		.shp12 { opacity: 0.6;fill: #ffffff } 
		.shp13 { fill: #eb996e } 
	</style>
	<g id="Background Complete">
		<g id="&lt;Group&gt;">
			<g id="&lt;Group&gt;">
				<g id="&lt;Group&gt;">
					<g id="&lt;Group&gt;">
						<g id="&lt;Group&gt;">
							<g id="&lt;Group&gt;">
								<path id="&lt;Path&gt;" class="shp0" d="M664.36 184.16L795.86 184.16C788.11 170.05 772.95 164.02 750.39 166.08C718.06 169.02 716.41 155.67 699.98 154.02C683.54 152.38 669.84 164.98 664.36 184.16Z" />
							</g>
						</g>
					</g>
				</g>
			</g>
		</g>
		<g id="&lt;Group&gt;">
			<g id="&lt;Group&gt;">
				<g id="&lt;Group&gt;">
					<path id="&lt;Path&gt;" class="shp1" d="M320.64 531.8C311.86 536.55 313.86 548.09 326.65 566.44C339.43 584.78 349.99 598.35 358.31 607.16C360.73 611.5 360.06 614.28 356.3 615.53C350.66 617.39 337.65 617.12 336.04 624.55C334.38 632.26 340.67 638.45 352.32 643.03C363.97 647.62 389.12 658.6 391.39 659.6C393.61 660.58 396.12 663.49 392.48 665.38C388.84 667.26 360.61 674.2 364.7 687.4C368.8 700.6 403.34 708.04 407.11 708.93C410.87 709.81 411.93 711.21 411.91 713.21C411.89 715.21 402.18 716.65 394.23 718.95C386.28 721.25 377.47 725.31 380.47 732.73C383.47 740.15 405.18 753.61 453.13 751.73L475.3 749.4L484.73 729.1C502.29 684.43 496.71 659.5 490.7 654.23C484.68 648.96 477.94 655.94 473.15 662.69C468.37 669.44 463.81 678.14 461.92 677.5C460.02 676.86 459.05 675.4 459.45 671.56C459.85 667.72 464.19 632.64 453.07 624.44C441.95 616.23 426.12 640.61 423.14 643.42C420.16 646.24 418.23 642.92 418.04 640.49C417.84 638.02 415.74 610.65 415.24 598.15C414.74 585.64 410.97 577.67 403.14 576.7C395.6 575.77 391.57 588.15 387.96 592.86C385.55 596 382.7 595.71 379.4 592.01C373.82 581.25 364.47 566.82 351.35 548.71C338.23 530.61 327.91 525.02 320.39 531.96" />
				</g>
				<g id="&lt;Group&gt;">
					<g id="&lt;Group&gt;">
						<path id="&lt;Path&gt;" class="shp0" d="M477.15 754.43C462.78 734.43 437.84 698.44 416.26 667.66C394.69 636.89 375.13 609.04 360.86 588.97C353.73 578.95 347.95 570.84 343.94 565.21C341.96 562.42 340.41 560.25 339.34 558.75C338.83 558.02 338.44 557.46 338.16 557.06C337.98 556.8 337.86 556.6 337.78 556.47C337.88 556.59 338.03 556.77 338.22 557.01C338.51 557.41 338.92 557.96 339.45 558.67C340.55 560.15 342.13 562.3 344.16 565.05C348.23 570.6 354.08 578.68 361.26 588.68C375.63 608.69 395.25 636.49 416.82 667.26C438.4 698.04 463.28 734.07 477.55 754.15" />
					</g>
				</g>
				<g id="&lt;Group&gt;">
					<g id="&lt;Group&gt;">
						<path id="&lt;Path&gt;" class="shp0" d="M354.24 625.67C354.25 625.62 354.82 625.7 355.83 625.88C356.86 626.06 358.32 626.37 360.13 626.76C363.75 627.55 368.72 628.76 374.18 630.2C379.56 631.65 384.42 632.95 388.14 633.95C389.82 634.39 391.24 634.76 392.38 635.05C393.38 635.31 393.93 635.47 393.92 635.52C393.91 635.57 393.34 635.49 392.32 635.32C391.3 635.13 389.83 634.83 388.03 634.42C384.41 633.6 379.46 632.32 374 630.87C368.62 629.47 363.75 628.2 360.02 627.23C358.34 626.8 356.92 626.44 355.78 626.15C354.78 625.88 354.23 625.71 354.24 625.67Z" />
					</g>
				</g>
				<g id="&lt;Group&gt;">
					<g id="&lt;Group&gt;">
						<path id="&lt;Path&gt;" class="shp0" d="M395.23 633.9C395.05 633.86 397.1 623.51 399.83 610.77C402.55 598.04 404.91 587.75 405.1 587.79C405.29 587.83 403.23 598.18 400.51 610.92C397.78 623.65 395.42 633.94 395.23 633.9Z" />
					</g>
				</g>
				<g id="&lt;Group&gt;">
					<g id="&lt;Group&gt;">
						<path id="&lt;Path&gt;" class="shp0" d="M426.23 682.66C426.19 682.64 426.45 682.11 426.94 681.17C427.51 680.12 428.22 678.8 429.06 677.24C430.85 673.91 433.3 669.31 435.81 664.13C438.34 658.95 440.46 654.19 441.97 650.73C442.68 649.1 443.28 647.73 443.76 646.64C444.19 645.67 444.45 645.14 444.49 645.16C444.54 645.18 444.36 645.74 444.01 646.74C443.66 647.73 443.12 649.17 442.42 650.92C441.02 654.44 438.97 659.24 436.43 664.43C433.91 669.63 431.39 674.21 429.49 677.48C428.54 679.11 427.75 680.42 427.18 681.31C426.61 682.2 426.28 682.68 426.23 682.66Z" />
					</g>
				</g>
				<g id="&lt;Group&gt;">
					<g id="&lt;Group&gt;">
						<path id="&lt;Path&gt;" class="shp0" d="M387.51 683.37C387.51 683.33 388.05 683.26 389.02 683.19C390.15 683.13 391.53 683.05 393.15 682.95C396.64 682.78 401.46 682.59 406.78 682.43C412.1 682.26 416.93 682.15 420.42 682.1C422.05 682.09 423.43 682.09 424.55 682.08C425.53 682.09 426.07 682.12 426.07 682.17C426.07 682.22 425.53 682.28 424.56 682.35C423.44 682.42 422.06 682.5 420.43 682.59C416.95 682.76 412.13 682.95 406.8 683.12C401.48 683.28 396.66 683.4 393.17 683.44C391.54 683.45 390.16 683.46 389.03 683.46C388.05 683.45 387.51 683.42 387.51 683.37Z" />
					</g>
				</g>
				<g id="&lt;Group&gt;">
					<g id="&lt;Group&gt;">
						<path id="&lt;Path&gt;" class="shp0" d="M409.41 729.9C409.41 729.85 410.1 729.77 411.35 729.68C412.73 729.6 414.5 729.49 416.64 729.36C421.1 729.11 427.28 728.82 434.1 728.54C440.92 728.26 447.1 728.05 451.57 727.93C453.71 727.89 455.49 727.85 456.87 727.82C458.12 727.82 458.81 727.83 458.81 727.88C458.82 727.93 458.13 728 456.88 728.09C455.5 728.18 453.72 728.29 451.59 728.42C447.12 728.66 440.95 728.96 434.13 729.23C427.31 729.51 421.13 729.73 416.66 729.85C414.52 729.89 412.74 729.92 411.36 729.95C410.11 729.96 409.41 729.94 409.41 729.9Z" />
					</g>
				</g>
				<g id="&lt;Group&gt;">
					<g id="&lt;Group&gt;">
						<path id="&lt;Path&gt;" class="shp0" d="M457.62 727.6C457.58 727.57 457.88 726.9 458.47 725.69C459.12 724.38 459.96 722.67 460.98 720.6C463.09 716.3 465.99 710.36 469 703.7C472.02 697.05 474.6 690.95 476.44 686.53C477.32 684.4 478.05 682.64 478.61 681.29C479.13 680.05 479.44 679.38 479.49 679.39C479.53 679.41 479.31 680.12 478.87 681.38C478.42 682.65 477.75 684.47 476.89 686.71C475.17 691.18 472.66 697.32 469.63 703.99C466.61 710.65 463.64 716.58 461.41 720.82C460.3 722.94 459.37 724.65 458.71 725.82C458.05 726.98 457.66 727.62 457.62 727.6Z" />
					</g>
				</g>
			</g>
			<g id="&lt;Group&gt;">
				<g id="&lt;Group&gt;">
					<g id="&lt;Group&gt;">
						<g id="&lt;Group&gt;">
							<g id="&lt;Group&gt;">
								<path id="&lt;Path&gt;" class="shp2" d="M643.61 432.44C619.8 405.75 622.09 367.21 631.1 334.21C632.6 328.71 633.38 322.71 637.17 318.46C640.97 314.22 647.92 312.35 652.33 315.87C656 318.78 656.66 324.01 658.03 328.52C659.84 334.52 663.38 339.97 668.1 344.04C671.2 346.71 675.31 348.87 679.26 347.77C684.67 346.26 686.8 339.78 688.08 334.25C690.45 323.94 692.82 313.63 695.2 303.33C696.47 297.8 697.79 292.16 700.75 287.32C703.71 282.49 708.66 278.52 714.26 278.29C719.86 278.07 725.64 282.63 725.47 288.3C725.4 290.66 724.38 292.89 724 295.21C723.61 297.54 724.07 300.33 726.1 301.49C728.15 302.65 730.73 301.61 732.76 300.39C739.78 296.16 745.35 289.9 750.66 283.61C755.97 277.32 761.21 270.84 767.82 265.98C774.43 261.13 782.73 258 790.74 259.43C798.75 260.85 806.02 267.73 806.18 275.97C806.34 284.23 799.93 291.05 793.5 296.18C783.95 303.79 773.32 310.01 762.04 314.57C760 315.39 757.8 316.28 756.65 318.17C754.58 321.56 757.2 326.05 760.55 328.12C764.34 330.46 768.91 331.09 773.09 332.62C777.28 334.15 781.49 337.15 782.16 341.61C783.08 347.79 776.96 352.58 771.4 355.36C760.26 360.91 748.19 364.53 735.88 366C731.46 366.52 726.88 366.81 722.93 368.89C718.97 370.97 715.82 375.46 716.88 379.82C717.94 384.18 722.72 386.63 727.16 386.85C731.6 387.07 735.96 385.66 740.38 385.09C748.65 384.02 758.32 386.87 761.63 394.58C763.8 399.65 762.66 405.72 759.83 410.47C757 415.23 752.67 418.88 748.22 422.14C732.68 433.52 714.39 441.32 695.34 443.26C676.29 445.19 659.59 442.98 643.61 432.44Z" />
							</g>
						</g>
					</g>
				</g>
				<g id="&lt;Group&gt;">
					<g id="&lt;Group&gt;">
						<g id="&lt;Group&gt;">
							<g id="&lt;Group&gt;">
								<g id="&lt;Group&gt;">
									<path id="&lt;Path&gt;" class="shp0" d="M648.43 435.65C652.76 422.76 648.23 429.23 657.13 413.62C666 398 677.15 381.67 689.39 365C692.47 360.85 695.51 356.74 698.5 352.69C701.5 348.66 704.48 344.66 707.63 340.92C713.9 333.43 720.5 326.7 726.97 320.51C733.43 314.32 739.79 308.68 745.77 303.44C751.77 298.22 757.46 293.46 762.82 289.34C773.53 281.06 782.94 275.41 789.56 271.8C792.87 269.99 795.48 268.66 797.26 267.79C798.12 267.37 798.79 267.05 799.29 266.81C799.75 266.59 799.99 266.49 800 266.5C800.01 266.52 799.79 266.66 799.34 266.9C798.85 267.17 798.19 267.52 797.35 267.98C795.6 268.91 793.03 270.29 789.75 272.16C783.2 275.88 773.89 281.6 763.27 289.93C757.95 294.08 752.3 298.86 746.34 304.1C740.38 309.36 734.05 315.02 727.62 321.22C721.19 327.41 714.63 334.13 708.41 341.59C705.28 345.31 702.34 349.27 699.33 353.32C696.34 357.37 693.3 361.47 690.23 365.63C678 382.29 666.86 398.55 657.96 414.1C649.05 429.64 653.53 423.07 649.13 435.89" />
								</g>
							</g>
						</g>
					</g>
				</g>
				<g id="&lt;Group&gt;">
					<g id="&lt;Group&gt;">
						<g id="&lt;Group&gt;">
							<g id="&lt;Group&gt;">
								<g id="&lt;Group&gt;">
									<path id="&lt;Path&gt;" class="shp0" d="M707.93 340.95C707.86 340.95 707.87 340.07 707.95 338.47C708.02 336.88 708.2 334.57 708.46 331.73C708.98 326.05 709.97 318.22 711.09 309.6C712.22 300.98 713.09 293.16 713.52 287.49C713.75 284.65 713.91 282.35 714 280.76C714.1 279.17 714.18 278.29 714.26 278.29C714.33 278.29 714.38 279.17 714.4 280.77C714.44 282.37 714.39 284.68 714.26 287.53C714.01 293.24 713.25 301.1 712.13 309.73C711 318.24 709.98 325.93 709.2 331.81C708.86 334.47 708.58 336.71 708.35 338.51C708.15 340.09 708 340.96 707.93 340.95Z" />
								</g>
							</g>
						</g>
					</g>
				</g>
				<g id="&lt;Group&gt;">
					<g id="&lt;Group&gt;">
						<g id="&lt;Group&gt;">
							<g id="&lt;Group&gt;">
								<g id="&lt;Group&gt;">
									<path id="&lt;Path&gt;" class="shp0" d="M782.07 344.5C782.05 344.57 781.02 344.45 779.16 344.17C777.3 343.9 774.61 343.5 771.27 343.1C764.6 342.27 755.35 341.43 745.1 340.96C734.85 340.5 725.55 340.48 718.83 340.66C715.46 340.73 712.74 340.85 710.86 340.93C708.98 341.01 707.94 341.03 707.93 340.95C707.92 340.88 708.96 340.73 710.83 340.52C712.71 340.32 715.43 340.08 718.8 339.91C725.54 339.54 734.87 339.44 745.15 339.9C755.43 340.38 764.71 341.33 771.37 342.37C774.71 342.85 777.39 343.37 779.23 343.77C781.07 344.17 782.08 344.43 782.07 344.5Z" />
								</g>
							</g>
						</g>
					</g>
				</g>
				<g id="&lt;Group&gt;">
					<g id="&lt;Group&gt;">
						<g id="&lt;Group&gt;">
							<g id="&lt;Group&gt;">
								<g id="&lt;Group&gt;">
									<path id="&lt;Path&gt;" class="shp0" d="M658.32 412.52C658.28 412.53 658.18 412.19 658.03 411.54C657.87 410.77 657.67 409.83 657.43 408.69C656.91 406.2 656.26 402.59 655.52 398.12C654.02 389.17 652.34 376.75 650.67 363.02C648.99 349.29 647.43 336.87 646.12 327.9C645.47 323.54 644.94 319.96 644.54 317.29C644.37 316.14 644.23 315.18 644.12 314.4C644.04 313.74 644.01 313.39 644.05 313.38C644.08 313.37 644.18 313.71 644.33 314.36C644.49 315.13 644.69 316.08 644.94 317.22C645.45 319.7 646.1 323.31 646.85 327.78C648.35 336.73 650.03 349.15 651.7 362.89C653.37 376.62 654.94 389.04 656.24 398C656.9 402.36 657.43 405.95 657.83 408.61C657.99 409.77 658.13 410.72 658.24 411.5C658.32 412.16 658.35 412.52 658.32 412.52Z" />
								</g>
							</g>
						</g>
					</g>
				</g>
				<g id="&lt;Group&gt;">
					<g id="&lt;Group&gt;">
						<g id="&lt;Group&gt;">
							<g id="&lt;Group&gt;">
								<g id="&lt;Group&gt;">
									<path id="&lt;Path&gt;" class="shp0" d="M759.86 404.46C759.86 404.5 759.51 404.55 758.83 404.63C758.04 404.7 757.06 404.79 755.88 404.9C753.15 405.12 749.47 405.42 745 405.78C735.81 406.52 723.14 407.7 709.13 409.02C695.13 410.34 682.43 411.4 673.23 411.95C668.62 412.23 664.9 412.42 662.32 412.5C661.13 412.53 660.15 412.55 659.35 412.57C658.68 412.57 658.32 412.56 658.32 412.52C658.31 412.49 658.67 412.43 659.34 412.36C660.14 412.29 661.12 412.2 662.3 412.09C665.03 411.87 668.7 411.57 673.18 411.21C682.36 410.46 695.04 409.29 709.05 407.97C723.05 406.65 735.75 405.59 744.95 405.03C749.55 404.75 753.28 404.56 755.85 404.49C757.04 404.46 758.02 404.43 758.82 404.42C759.5 404.41 759.86 404.43 759.86 404.46Z" />
								</g>
							</g>
						</g>
					</g>
				</g>
			</g>
			<g id="&lt;Group&gt;">
				<g id="&lt;Group&gt;">
					<g id="&lt;Group&gt;">
						<g id="&lt;Group&gt;">
							<g id="&lt;Group&gt;">
								<g id="&lt;Group&gt;">
									<path id="&lt;Path&gt;" class="shp0" d="M838.63 608C838.65 608.01 838.53 608.33 838.29 608.94C838.02 609.6 837.66 610.49 837.2 611.6C836.18 614 834.75 617.39 832.93 621.66C829.17 630.35 823.86 642.64 817.52 657.31L817.43 657.53L817.19 657.57C802.98 659.92 786.39 662.65 768.75 665.57C763.23 666.47 757.8 667.36 752.52 668.22L751.78 668.34L751.96 667.62C755.91 652.04 759.54 637.7 762.63 625.51L762.86 625.98C751.03 620.69 741.27 616.33 734.39 613.26C731.05 611.73 728.42 610.53 726.54 609.68C725.69 609.28 725.01 608.96 724.49 608.71C724.04 608.49 723.8 608.36 723.81 608.34C723.82 608.33 724.07 608.41 724.54 608.6C725.08 608.82 725.77 609.1 726.64 609.46C728.53 610.26 731.2 611.4 734.58 612.83C741.49 615.83 751.3 620.09 763.18 625.24L763.5 625.38L763.41 625.71C760.37 637.9 756.8 652.26 752.91 667.86L752.36 667.26C757.64 666.39 763.07 665.5 768.59 664.59C786.24 661.72 802.83 659.02 817.05 656.71L816.72 656.96C823.2 642.35 828.62 630.11 832.46 621.45C834.37 617.22 835.88 613.87 836.95 611.5C837.46 610.4 837.86 609.53 838.17 608.88C838.45 608.29 838.61 607.99 838.63 608Z" />
								</g>
							</g>
						</g>
					</g>
				</g>
				<g id="&lt;Group&gt;">
					<g id="&lt;Group&gt;">
						<g id="&lt;Group&gt;">
							<g id="&lt;Group&gt;">
								<path id="&lt;Path&gt;" class="shp0" d="M758.19 662.5L756.87 665.99L758.99 669.06L755.26 668.87L753 671.84L752.03 668.24L748.51 667.01L751.63 664.96L751.71 661.24L754.62 663.57L758.19 662.5Z" />
							</g>
						</g>
					</g>
				</g>
				<g id="&lt;Group&gt;">
					<g id="&lt;Group&gt;">
						<g id="&lt;Group&gt;">
							<g id="&lt;Group&gt;">
								<path id="&lt;Path&gt;" class="shp0" d="M724.93 606L724.27 607.73L725.33 609.26L723.48 609.17L722.35 610.64L721.86 608.85L720.11 608.24L721.67 607.22L721.71 605.37L723.16 606.53L724.93 606Z" />
							</g>
						</g>
					</g>
				</g>
				<g id="&lt;Group&gt;">
					<g id="&lt;Group&gt;">
						<g id="&lt;Group&gt;">
							<g id="&lt;Group&gt;">
								<path id="&lt;Path&gt;" class="shp0" d="M818.87 655.13L818.21 656.86L819.27 658.39L817.42 658.3L816.29 659.77L815.81 657.98L814.06 657.37L815.61 656.35L815.65 654.5L817.1 655.66L818.87 655.13Z" />
							</g>
						</g>
					</g>
				</g>
				<g id="&lt;Group&gt;">
					<g id="&lt;Group&gt;">
						<g id="&lt;Group&gt;">
							<g id="&lt;Group&gt;">
								<path id="&lt;Path&gt;" class="shp0" d="M764.66 623.94L764.01 625.67L765.06 627.2L763.21 627.1L762.08 628.58L761.6 626.79L759.85 626.18L761.4 625.16L761.44 623.31L762.89 624.47L764.66 623.94Z" />
							</g>
						</g>
					</g>
				</g>
				<g id="&lt;Group&gt;">
					<g id="&lt;Group&gt;">
						<g id="&lt;Group&gt;">
							<g id="&lt;Group&gt;">
								<path id="&lt;Path&gt;" class="shp0" d="M840.88 606.27L840.22 608L841.28 609.53L839.43 609.44L838.3 610.91L837.81 609.12L836.06 608.51L837.62 607.49L837.66 605.64L839.1 606.8L840.88 606.27Z" />
							</g>
						</g>
					</g>
				</g>
			</g>
			<g id="&lt;Group&gt;">
				<g id="&lt;Group&gt;">
					<g id="&lt;Group&gt;">
						<g id="&lt;Group&gt;">
							<g id="&lt;Group&gt;">
								<g id="&lt;Group&gt;">
									<path id="&lt;Path&gt;" class="shp0" d="M234.69 751.81L339.39 751.81C333.22 740.58 321.15 735.78 303.18 737.42C277.44 739.76 276.13 729.13 263.05 727.82C249.96 726.51 239.05 736.54 234.69 751.81Z" />
								</g>
							</g>
						</g>
					</g>
				</g>
			</g>
			<g id="&lt;Group&gt;">
				<g id="&lt;Group&gt;">
					<g id="&lt;Group&gt;">
						<g id="&lt;Group&gt;">
							<g id="&lt;Group&gt;">
								<g id="&lt;Group&gt;">
									<path id="&lt;Path&gt;" class="shp2" d="M255.48 339.59L360.18 339.59C354.01 328.35 341.94 323.55 323.97 325.19C298.23 327.53 296.92 316.9 283.83 315.59C270.75 314.28 259.84 324.32 255.48 339.59Z" />
								</g>
							</g>
						</g>
					</g>
				</g>
			</g>
			<g id="&lt;Group&gt;">
				<g id="&lt;Group&gt;">
					<g id="&lt;Group&gt;">
						<g id="&lt;Group&gt;">
							<g id="&lt;Group&gt;">
								<g id="&lt;Group&gt;">
									<path id="&lt;Path&gt;" class="shp2" d="M787.24 412.4L873.26 412.4C868.19 403.17 858.27 399.22 843.51 400.57C822.36 402.49 821.29 393.76 810.54 392.68C799.78 391.61 790.82 399.85 787.24 412.4Z" />
								</g>
							</g>
						</g>
					</g>
				</g>
			</g>
		</g>
	</g>
	<g id="Pencil">
		<g id="&lt;Group&gt;">
			<g id="&lt;Group&gt;">
				<path id="&lt;Path&gt;" class="shp3" d="M615.46 582.19C619.73 549.95 597.07 523.36 568.75 507.38C540.43 491.4 507.58 486.05 476.3 477.16C446.8 468.78 417.46 456.55 395.61 435.03C373.76 413.51 360.65 381.16 368.51 351.51C370.48 344.07 374.01 336.59 380.4 332.3C386.79 328.01 396.55 328.12 401.32 334.16C411.47 347.04 391.68 370.1 404.07 380.85C406.92 383.31 410.83 384.22 413.77 386.57C421.61 392.81 419.07 404.96 420.18 414.92C422.36 434.62 440.83 448.29 458.97 456.28C483.27 466.96 509.59 471.99 535.37 478.33C561.14 484.66 587.13 492.64 608.61 508.25C630.08 523.85 648.71 548.27 648.56 574.81C648.52 582.23 647.58 591.35 642.92 597.13C638.27 602.9 632.34 604.1 625.63 600.94C618.92 597.78 614.22 592.9 615.46 582.19Z" />
				<g id="&lt;Group&gt;" style="opacity: 0.8">
					<path id="&lt;Path&gt;" class="shp4" d="M615.46 582.19C619.73 549.95 597.07 523.36 568.75 507.38C540.43 491.4 507.58 486.05 476.3 477.16C446.8 468.78 417.46 456.55 395.61 435.03C373.76 413.51 360.65 381.16 368.51 351.51C370.48 344.07 374.01 336.59 380.4 332.3C386.79 328.01 396.55 328.12 401.32 334.16C411.47 347.04 391.68 370.1 404.07 380.85C406.92 383.31 410.83 384.22 413.77 386.57C421.61 392.81 419.07 404.96 420.18 414.92C422.36 434.62 440.83 448.29 458.97 456.28C483.27 466.96 509.59 471.99 535.37 478.33C561.14 484.66 587.13 492.64 608.61 508.25C630.08 523.85 648.71 548.27 648.56 574.81C648.52 582.23 647.58 591.35 642.92 597.13C638.27 602.9 632.34 604.1 625.63 600.94C618.92 597.78 614.22 592.9 615.46 582.19Z" />
				</g>
			</g>
			<g id="&lt;Group&gt;">
				<path id="&lt;Path&gt;" class="shp3" d="M478.46 325.94C477.44 314 486.33 303.61 496.45 298.03C506.57 292.46 518.15 290.2 528.58 285.25C554.48 272.97 570.94 244.08 572.16 214.45C573.37 184.82 560.53 155.2 540.43 133.44C532.26 124.59 522.22 115.33 522.1 103.26C521.97 90.67 534.18 80.75 546.38 80.91C558.58 81.07 569.82 89.23 577.12 99.5C584.42 109.77 588.46 122.01 592.39 134.03C589.59 129.01 595.35 122.78 600.89 123.32C606.43 123.86 610.81 128.48 614.23 133.09C628.93 152.87 636.2 178.29 634.17 202.77C632.14 227.26 620.84 250.56 603.17 266.66C583.44 284.65 557.33 293.09 532.03 301.07C514.42 306.63 496.8 312.18 479.19 317.74" />
				<g id="&lt;Group&gt;" style="opacity: 0.8">
					<path id="&lt;Path&gt;" class="shp4" d="M478.46 325.94C477.44 314 486.33 303.61 496.45 298.03C506.57 292.46 518.15 290.2 528.58 285.25C554.48 272.97 570.94 244.08 572.16 214.45C573.37 184.82 560.53 155.2 540.43 133.44C532.26 124.59 522.22 115.33 522.1 103.26C521.97 90.67 534.18 80.75 546.38 80.91C558.58 81.07 569.82 89.23 577.12 99.5C584.42 109.77 588.46 122.01 592.39 134.03C589.59 129.01 595.35 122.78 600.89 123.32C606.43 123.86 610.81 128.48 614.23 133.09C628.93 152.87 636.2 178.29 634.17 202.77C632.14 227.26 620.84 250.56 603.17 266.66C583.44 284.65 557.33 293.09 532.03 301.07C514.42 306.63 496.8 312.18 479.19 317.74" />
				</g>
			</g>
			<g id="&lt;Group&gt;">
				<path id="&lt;Path&gt;" class="shp3" d="M463.76 75.05C458.51 77.26 455.63 83.9 457.61 89.24C459.59 94.58 466.11 97.75 471.53 96C476.95 94.26 480.39 87.88 478.88 82.39C477.37 76.9 471.16 73.18 465.61 74.45" />
				<g id="&lt;Group&gt;" style="opacity: 0.8">
					<path id="&lt;Path&gt;" class="shp4" d="M463.76 75.05C458.51 77.26 455.63 83.9 457.61 89.24C459.59 94.58 466.11 97.75 471.53 96C476.95 94.26 480.39 87.88 478.88 82.39C477.37 76.9 471.16 73.18 465.61 74.45" />
				</g>
			</g>
		</g>
		<g id="&lt;Group&gt;">
			<path id="&lt;Path&gt;" class="shp3" d="M528.9 845.68C522.43 832.26 528.07 815.52 538.39 804.76C548.71 794 562.8 787.86 576.44 781.85C606.55 768.59 638.43 752.78 653.74 723.66C658.9 713.84 661.84 703.03 664.75 692.33C670.37 671.6 675.64 648.06 664.34 629.8C661.08 624.55 656.2 619.87 650.11 618.79C643.19 617.56 636.07 621.38 631.8 626.97C627.53 632.56 625.7 639.64 624.82 646.61C623.14 659.89 624.53 673.39 623.13 686.7C621.74 700 616.87 713.92 605.89 721.57C592.57 730.86 573.55 728.78 560.6 738.59C550.15 746.52 546.17 760.27 537.99 770.53C531.12 779.16 521.51 785.05 512.7 791.68C503.89 798.31 495.37 806.41 492.38 817.02C489.27 828.04 493.16 840.72 501.91 848.11C510.67 855.49 523.82 857.19 534.16 852.27" />
			<g id="&lt;Group&gt;" style="opacity: 0.8">
				<path id="&lt;Path&gt;" class="shp4" d="M528.9 845.68C522.43 832.26 528.07 815.52 538.39 804.76C548.71 794 562.8 787.86 576.44 781.85C606.55 768.59 638.43 752.78 653.74 723.66C658.9 713.84 661.84 703.03 664.75 692.33C670.37 671.6 675.64 648.06 664.34 629.8C661.08 624.55 656.2 619.87 650.11 618.79C643.19 617.56 636.07 621.38 631.8 626.97C627.53 632.56 625.7 639.64 624.82 646.61C623.14 659.89 624.53 673.39 623.13 686.7C621.74 700 616.87 713.92 605.89 721.57C592.57 730.86 573.55 728.78 560.6 738.59C550.15 746.52 546.17 760.27 537.99 770.53C531.12 779.16 521.51 785.05 512.7 791.68C503.89 798.31 495.37 806.41 492.38 817.02C489.27 828.04 493.16 840.72 501.91 848.11C510.67 855.49 523.82 857.19 534.16 852.27" />
			</g>
		</g>
		<g id="&lt;Group&gt;">
			<g id="&lt;Group&gt;">
				<path id="&lt;Path&gt;" class="shp3" d="M328.65 167.71C318.05 159.85 311.58 146.7 311.81 133.5C312.05 120.3 318.98 107.39 329.86 99.9C336.01 95.67 343.3 93.09 348.77 88.01C353.63 83.49 356.8 77.22 362.24 73.42C369 68.7 378.8 68.91 385.36 73.91C391.91 78.91 394.69 88.32 391.92 96.08C389.41 103.1 383.11 108.23 380.48 115.2C377.65 122.71 379.47 131.12 378.42 139.07C377.13 148.85 371.19 157.9 362.74 162.99C354.29 168.07 343.51 169.08 334.27 165.64" />
				<g id="&lt;Group&gt;" style="opacity: 0.8">
					<path id="&lt;Path&gt;" class="shp4" d="M328.65 167.71C318.05 159.85 311.58 146.7 311.81 133.5C312.05 120.3 318.98 107.39 329.86 99.9C336.01 95.67 343.3 93.09 348.77 88.01C353.63 83.49 356.8 77.22 362.24 73.42C369 68.7 378.8 68.91 385.36 73.91C391.91 78.91 394.69 88.32 391.92 96.08C389.41 103.1 383.11 108.23 380.48 115.2C377.65 122.71 379.47 131.12 378.42 139.07C377.13 148.85 371.19 157.9 362.74 162.99C354.29 168.07 343.51 169.08 334.27 165.64" />
				</g>
			</g>
			<g id="&lt;Group&gt;">
				<path id="&lt;Path&gt;" class="shp3" d="M343.17 186.33L340.25 186.33C334.27 186.33 329.42 181.48 329.42 175.5L329.42 124.83L354 124.83L354 175.5C354 181.48 349.15 186.33 343.17 186.33Z" />
				<path id="&lt;Path&gt;" class="shp5" d="M329.42 124.83L341.71 102.29L354 124.83L329.42 124.83Z" />
				<path id="&lt;Path&gt;" class="shp3" d="M336.84 111.22C339.33 114.96 342.58 114.96 346.58 111.22L341.71 102.29L336.84 111.22Z" />
				<path id="&lt;Path&gt;" class="shp6" d="M333.06 124.83L338.34 124.83" />
			</g>
			<g id="&lt;Group&gt;">
				<path id="&lt;Path&gt;" class="shp7" d="M354.34 173.04C354.34 173.31 348.75 173.53 341.85 173.53C334.94 173.53 329.35 173.31 329.35 173.04C329.35 172.76 334.94 172.54 341.85 172.54C348.75 172.54 354.34 172.76 354.34 173.04Z" />
			</g>
			<g id="&lt;Group&gt;">
				<path id="&lt;Path&gt;" class="shp7" d="M354.09 169.27C354.09 169.54 348.61 169.77 341.85 169.77C335.08 169.77 329.6 169.54 329.6 169.27C329.6 168.99 335.08 168.77 341.85 168.77C348.61 168.77 354.09 168.99 354.09 169.27Z" />
			</g>
			<g id="&lt;Group&gt;">
				<path id="&lt;Path&gt;" class="shp8" d="M336.63 125.19C336.91 125.19 337.13 135 337.13 147.1C337.13 159.21 336.91 169.02 336.63 169.02C336.36 169.02 336.14 159.21 336.14 147.1C336.14 135 336.36 125.19 336.63 125.19Z" />
			</g>
			<g id="&lt;Group&gt;">
				<path id="&lt;Path&gt;" class="shp8" d="M346.58 125.19C346.85 125.19 347.08 135 347.08 147.1C347.08 159.21 346.85 169.02 346.58 169.02C346.3 169.02 346.08 159.21 346.08 147.1C346.08 135 346.3 125.19 346.58 125.19Z" />
			</g>
		</g>
	</g>
	<g id="Notebook">
		<g id="&lt;Group&gt;">
			<path id="&lt;Path&gt;" class="shp7" d="M542.97 817.44L654.64 822.21L657.34 828.72L584.15 947.51L452.02 943.66L542.97 817.44Z" />
			<path id="&lt;Path&gt;" class="shp0" d="M447.01 932.08L579.93 939.67L649.35 831.94L600.61 835.9L477.22 879.35L447.01 932.08Z" />
			<g id="&lt;Group&gt;">
				<path id="&lt;Path&gt;" class="shp1" d="M428.34 924.09L550.4 926.02C545.33 910.4 557.29 888.41 573.7 881.01C584.57 876.11 605.04 869.76 615.6 864.34C635.66 854.05 653.8 834.56 652.21 817.83L602.08 816.23L538.1 813.76C532.75 829.63 521.3 840.03 503.91 846.28C488.34 851.88 470.62 851.87 455.43 858.23C430.99 868.47 419.24 901.63 428.34 924.09Z" />
				<g id="&lt;Group&gt;">
					<path id="&lt;Path&gt;" class="shp7" d="M428.34 924.09C428.27 923.92 428.16 923.66 428.04 923.31C427.84 922.75 427.56 921.97 427.2 920.95C426.77 919.93 426.53 918.58 426.16 917C425.72 915.43 425.58 913.55 425.32 911.44C425.01 907.22 425.05 901.94 426.29 895.92C427.53 889.93 429.89 883.18 434.12 876.55C435.21 874.92 436.26 873.2 437.63 871.65C438.29 870.85 438.91 870.01 439.63 869.23C440.37 868.48 441.12 867.72 441.88 866.95C442.61 866.15 443.46 865.45 444.32 864.76C445.19 864.07 446.02 863.32 446.94 862.65C448.85 861.45 450.71 860.05 452.88 859.11C461.34 854.85 471.44 853.05 481.96 851.14C487.24 850.18 492.67 849.18 498.12 847.68C503.55 846.14 509.02 844.08 514.21 841.2C516.82 839.79 519.34 838.15 521.73 836.28C524.13 834.43 526.37 832.33 528.39 829.98C532.49 825.34 535.58 819.7 537.66 813.61L537.77 813.29L538.12 813.3C555.11 813.95 572.94 814.63 591.43 815.33C609.91 816.06 629.06 816.56 648.65 817.22C649.86 817.26 651.06 817.3 652.23 817.33L652.67 817.35L652.71 817.78C653.04 821.65 652.34 825.5 651.09 829.07C650.52 830.88 649.65 832.56 648.86 834.27C647.91 835.89 647.03 837.55 645.94 839.07C641.77 845.28 636.44 850.48 630.81 855.05C625.14 859.59 618.98 863.35 612.57 866.33C606.13 869.22 599.61 871.58 593.22 873.94C586.84 876.3 580.53 878.54 574.53 881.15C571.59 882.52 568.77 884.08 566.32 886.13C565.03 887.06 563.94 888.23 562.76 889.27C561.71 890.45 560.55 891.52 559.62 892.77C555.68 897.61 552.72 903.09 551.09 908.82C549.36 914.5 549.17 920.52 550.79 925.89L550.95 926.43L550.39 926.42C513.42 925.77 482.92 925.23 461.63 924.85C451.01 924.63 442.7 924.47 437.01 924.35C434.2 924.28 432.04 924.23 430.55 924.19C429.58 924.16 428.84 924.13 428.34 924.09C428.84 924.07 429.58 924.06 430.56 924.07C432.04 924.08 434.2 924.09 437.01 924.11C442.71 924.17 451.02 924.27 461.63 924.39C482.93 924.68 513.43 925.1 550.41 925.61L550.02 926.14C548.32 920.58 548.52 914.39 550.27 908.58C551.93 902.73 554.93 897.15 558.94 892.21C559.88 890.93 561.06 889.84 562.13 888.64C563.33 887.57 564.44 886.38 565.76 885.43C568.25 883.33 571.17 881.71 574.16 880.31C580.21 877.67 586.52 875.43 592.9 873.06C599.28 870.69 605.79 868.32 612.17 865.45C618.5 862.51 624.59 858.77 630.2 854.29C635.77 849.76 641.03 844.62 645.12 838.51C646.2 837.02 647.05 835.4 647.98 833.81C648.75 832.14 649.61 830.5 650.15 828.74C651.36 825.27 652.04 821.57 651.72 817.88L652.2 818.33C651.02 818.29 649.82 818.25 648.62 818.21C629.02 817.56 609.88 817.05 591.39 816.31C572.91 815.58 555.07 814.88 538.08 814.22L538.53 813.91C536.41 820.1 533.25 825.84 529.06 830.57C527 832.95 524.7 835.09 522.26 836.96C519.83 838.86 517.27 840.52 514.62 841.95C509.36 844.85 503.83 846.92 498.34 848.46C492.84 849.96 487.38 850.95 482.1 851.9C471.57 853.77 461.52 855.54 453.18 859.71C451.04 860.62 449.21 862 447.31 863.18C446.41 863.83 445.58 864.56 444.73 865.24C443.87 865.92 443.03 866.6 442.31 867.39C441.56 868.15 440.81 868.9 440.07 869.64C439.36 870.4 438.74 871.23 438.09 872.01C436.73 873.55 435.68 875.25 434.59 876.85C430.37 883.4 427.99 890.08 426.71 896.01C425.44 901.98 425.35 907.22 425.62 911.42C425.85 913.52 425.97 915.39 426.38 916.95C426.72 918.53 426.94 919.88 427.35 920.91C427.68 921.93 427.93 922.72 428.11 923.28C428.22 923.63 428.3 923.91 428.34 924.09Z" />
				</g>
			</g>
			<g id="&lt;Group&gt;">
				<path id="&lt;Path&gt;" class="shp7" d="M572.39 815.74C572.3 815.71 572.55 814.95 572.66 813.56C572.77 812.17 572.68 810.09 571.7 807.79C570.76 805.52 568.89 803.01 565.93 801.61C563.02 800.21 559.17 799.91 555.65 801.24C552.1 802.54 549.55 805.43 548.22 808.39C546.83 811.38 546.65 814.45 547.04 816.89C547.44 819.36 548.38 821.21 549.13 822.39C549.88 823.57 550.45 824.14 550.39 824.2C550.35 824.23 549.69 823.76 548.81 822.61C547.94 821.47 546.86 819.59 546.35 817.02C545.84 814.47 545.96 811.2 547.38 808.02C548.74 804.86 551.46 801.72 555.3 800.31C559.09 798.88 563.21 799.23 566.33 800.79C569.52 802.35 571.45 805.11 572.36 807.53C573.3 809.99 573.28 812.18 573.05 813.6C572.93 814.32 572.78 814.86 572.64 815.21C572.5 815.57 572.42 815.75 572.39 815.74Z" />
			</g>
			<g id="&lt;Group&gt;">
				<path id="&lt;Path&gt;" class="shp7" d="M591.52 815.74C591.43 815.71 591.68 814.95 591.79 813.56C591.9 812.17 591.81 810.09 590.83 807.79C589.89 805.52 588.02 803.01 585.06 801.61C582.15 800.21 578.3 799.91 574.78 801.24C571.23 802.54 568.68 805.43 567.35 808.39C565.96 811.38 565.78 814.45 566.17 816.89C566.57 819.36 567.51 821.21 568.26 822.39C569.01 823.57 569.58 824.14 569.52 824.2C569.48 824.23 568.82 823.76 567.94 822.61C567.07 821.47 565.99 819.59 565.48 817.02C564.97 814.47 565.09 811.2 566.51 808.02C567.87 804.86 570.59 801.72 574.43 800.31C578.22 798.88 582.34 799.23 585.46 800.79C588.65 802.35 590.58 805.11 591.48 807.53C592.43 809.99 592.41 812.18 592.18 813.6C592.06 814.32 591.91 814.86 591.77 815.21C591.63 815.57 591.55 815.75 591.52 815.74Z" />
			</g>
			<g id="&lt;Group&gt;">
				<path id="&lt;Path&gt;" class="shp7" d="M606.05 816.73C605.96 816.71 606.16 815.94 606.2 814.54C606.23 813.15 606.02 811.07 604.91 808.84C603.85 806.62 601.84 804.22 598.8 802.99C595.81 801.75 591.95 801.68 588.51 803.2C585.05 804.7 582.66 807.73 581.5 810.76C580.29 813.82 580.27 816.9 580.81 819.32C581.35 821.76 582.38 823.55 583.2 824.69C584.02 825.83 584.62 826.36 584.56 826.42C584.53 826.46 583.84 826.03 582.9 824.93C581.96 823.83 580.78 822.02 580.13 819.48C579.47 816.97 579.41 813.7 580.64 810.44C581.82 807.21 584.36 803.92 588.11 802.3C591.81 800.66 595.95 800.77 599.16 802.15C602.42 803.53 604.51 806.17 605.55 808.54C606.63 810.94 606.73 813.13 606.58 814.56C606.5 815.28 606.39 815.83 606.27 816.19C606.15 816.56 606.08 816.74 606.05 816.73Z" />
			</g>
			<g id="&lt;Group&gt;">
				<path id="&lt;Path&gt;" class="shp7" d="M621.62 817.62C621.53 817.6 621.7 816.82 621.66 815.42C621.61 814.03 621.29 811.97 620.07 809.79C618.89 807.64 616.76 805.34 613.66 804.28C610.61 803.2 606.75 803.33 603.4 805.04C600.02 806.72 597.79 809.87 596.8 812.96C595.74 816.08 595.9 819.15 596.56 821.54C597.22 823.95 598.35 825.68 599.23 826.77C600.11 827.87 600.74 828.36 600.68 828.43C600.65 828.47 599.94 828.08 598.94 827.03C597.95 825.99 596.67 824.24 595.88 821.74C595.1 819.26 594.86 816 595.92 812.68C596.93 809.39 599.29 805.97 602.95 804.15C606.56 802.32 610.7 802.21 613.97 803.42C617.3 804.62 619.53 807.15 620.69 809.46C621.9 811.81 622.12 813.98 622.04 815.42C622 816.15 621.92 816.7 621.82 817.07C621.72 817.44 621.66 817.63 621.62 817.62Z" />
			</g>
			<g id="&lt;Group&gt;">
				<path id="&lt;Path&gt;" class="shp7" d="M637.23 817.25C637.14 817.24 637.28 816.45 637.2 815.05C637.12 813.66 636.74 811.62 635.46 809.47C634.22 807.36 632.02 805.12 628.9 804.14C625.82 803.15 621.96 803.39 618.66 805.19C615.33 806.96 613.19 810.18 612.28 813.29C611.32 816.44 611.56 819.51 612.28 821.88C613.02 824.26 614.2 825.97 615.11 827.03C616.02 828.1 616.65 828.58 616.6 828.65C616.57 828.69 615.85 828.32 614.82 827.29C613.8 826.28 612.48 824.57 611.62 822.09C610.76 819.64 610.43 816.39 611.4 813.04C612.32 809.72 614.58 806.24 618.18 804.32C621.74 802.38 625.87 802.16 629.18 803.27C632.55 804.38 634.84 806.85 636.07 809.13C637.34 811.43 637.62 813.6 637.59 815.04C637.57 815.77 637.5 816.33 637.41 816.7C637.32 817.07 637.26 817.26 637.23 817.25Z" />
			</g>
			<g id="&lt;Group&gt;">
				<path id="&lt;Path&gt;" class="shp7" d="M650.38 819C650.29 818.99 650.46 818.21 650.44 816.81C650.41 815.42 650.12 813.35 648.92 811.16C647.77 809 645.66 806.67 642.58 805.57C639.54 804.46 635.68 804.55 632.31 806.21C628.91 807.85 626.64 810.98 625.61 814.05C624.52 817.16 624.64 820.24 625.27 822.63C625.91 825.04 627.02 826.8 627.88 827.89C628.75 829 629.37 829.5 629.31 829.57C629.28 829.61 628.58 829.21 627.59 828.14C626.61 827.09 625.36 825.33 624.6 822.82C623.84 820.34 623.64 817.07 624.74 813.76C625.79 810.49 628.19 807.1 631.87 805.32C635.5 803.53 639.64 803.47 642.9 804.72C646.22 805.96 648.41 808.52 649.55 810.84C650.73 813.2 650.92 815.38 650.83 816.81C650.78 817.54 650.69 818.09 650.58 818.46C650.48 818.83 650.41 819.01 650.38 819Z" />
			</g>
		</g>
	</g>
	<g id="Air Balloon">
		<g id="&lt;Group&gt;">
			<path id="&lt;Path&gt;" class="shp3" d="M707.9 409.3C702.65 409.16 697.08 409.34 691.37 410.05C656.9 414.32 631.22 443.92 631.29 478.65C631.31 488.76 632.39 500.08 635.57 511.34C645.18 545.46 648.15 575.53 647.04 590.17L679.23 607.48C689.17 593.2 698.94 582.99 708.53 576.83C722.93 567.59 770.86 542.9 789.83 517.52C802.07 501.15 804.42 467.57 775.26 438.2C757.44 420.25 733.18 410.02 707.9 409.3Z" />
			<path id="&lt;Path&gt;" class="shp9" d="M631.8 627.42L660.89 643.14L641.95 667.19L622.57 658.37L631.8 627.42Z" />
			<g id="&lt;Group&gt;">
				<path id="&lt;Path&gt;" class="shp7" d="M633.21 628.39C632.96 628.3 635.84 619.67 639.66 609.11C643.48 598.56 646.78 590.08 647.04 590.17C647.3 590.26 644.41 598.9 640.59 609.45C636.78 620.01 633.47 628.49 633.21 628.39Z" />
			</g>
			<g id="&lt;Group&gt;">
				<path id="&lt;Path&gt;" class="shp7" d="M659.05 641.96C658.82 641.82 663.37 633.67 669.23 623.75C675.09 613.83 680.03 605.9 680.26 606.04C680.5 606.18 675.94 614.33 670.08 624.25C664.23 634.17 659.29 642.1 659.05 641.96Z" />
			</g>
			<g id="&lt;Group&gt;" style="opacity: 0.4">
				<path id="&lt;Path&gt;" class="shp10" d="M717.6 410.22C716.3 410.29 700.29 429.02 693.21 441.7C669.4 484.35 668.33 525.86 661.72 574.27C660.77 581.18 657.34 596.09 657.4 595.74C659.75 597.58 664.87 600.34 672.77 604C680.21 595.02 685.42 588.26 688.38 583.74C706.15 556.59 725.44 535.43 740.66 506.76C755.87 478.1 770.51 452.68 756.43 423.45C740.18 414.09 727.23 409.68 717.6 410.22Z" />
			</g>
			<g id="&lt;Group&gt;">
				<path id="&lt;Path&gt;" class="shp7" d="M789.96 521.81C789.93 521.82 789.79 521.5 789.54 520.89C789.27 520.28 788.97 519.34 788.43 518.18C787.38 515.86 785.66 512.51 782.81 508.73C779.94 504.98 775.95 500.75 770.46 497.2C765.05 493.57 758.08 490.69 750.19 489.7L750 489.68L749.88 489.52C746.18 484.53 741.94 479.38 736.89 474.61C731.85 469.84 725.95 465.46 719.15 462.39C712.37 459.37 705.07 458.03 698.19 458.4C691.3 458.74 684.84 460.93 679.84 464.51L679.55 464.72L679.28 464.48C673.3 459.22 666.14 456.51 659.69 455.78C653.19 455.03 647.43 456.22 643.03 457.9C638.6 459.58 635.48 461.73 633.46 463.29C632.45 464.07 631.7 464.71 631.21 465.16C630.72 465.6 630.45 465.82 630.44 465.81C630.42 465.79 630.65 465.53 631.11 465.06C631.57 464.57 632.3 463.89 633.28 463.06C635.26 461.43 638.37 459.19 642.84 457.4C647.27 455.63 653.13 454.33 659.77 455.04C666.37 455.72 673.71 458.45 679.87 463.81L679.32 463.79C684.45 460.08 691.08 457.8 698.13 457.43C705.18 457.04 712.64 458.4 719.56 461.49C726.48 464.61 732.47 469.07 737.56 473.9C742.65 478.75 746.91 483.96 750.6 488.99L750.3 488.81C758.35 489.86 765.41 492.85 770.87 496.58C776.41 500.24 780.4 504.58 783.24 508.41C786.06 512.28 787.72 515.7 788.69 518.07C789.19 519.26 789.45 520.21 789.68 520.84C789.89 521.47 789.98 521.8 789.96 521.81Z" />
			</g>
			<g id="&lt;Group&gt;">
				<path id="&lt;Path&gt;" class="shp7" d="M730.11 564.31C729.92 564.38 729.95 561.4 727.34 557.31C726.02 555.33 724.04 553.08 721.16 551.38C718.34 549.63 714.57 548.46 710.5 548.86L710.1 548.89L710.04 548.49C709.39 544.36 707.68 539.96 704.75 536.06C701.85 532.18 697.77 528.72 692.81 526.79C688.74 525.16 684.4 524.59 680.32 524.87C676.24 525.16 672.43 526.32 669.2 528.01L668.89 528.18L668.66 527.92C665.44 524.48 661.29 522.54 657.48 521.87C653.66 521.09 650.17 521.48 647.45 522.18C641.95 523.68 639.61 526.34 639.5 526.13C639.48 526.11 639.63 525.97 639.92 525.7C640.23 525.44 640.65 525.01 641.29 524.57C642.54 523.66 644.53 522.48 647.31 521.67C650.08 520.87 653.65 520.4 657.61 521.14C661.55 521.77 665.91 523.72 669.32 527.32L668.78 527.23C672.1 525.45 676.04 524.23 680.25 523.91C684.46 523.6 688.95 524.18 693.18 525.86C698.33 527.87 702.54 531.47 705.52 535.49C708.52 539.53 710.26 544.09 710.88 548.37L710.41 548.01C714.72 547.64 718.63 548.93 721.52 550.79C724.48 552.6 726.46 554.97 727.76 557.05C729.04 559.16 729.62 561.03 729.89 562.31C730.03 562.95 730.05 563.46 730.1 563.8C730.13 564.13 730.14 564.31 730.11 564.31Z" />
			</g>
			<g id="&lt;Group&gt;">
				<path id="&lt;Path&gt;" class="shp7" d="M655.26 650.71C655.19 650.77 654.95 650.32 654.2 650.01C653.45 649.69 652.24 649.65 650.8 650.11C650.06 650.31 649.22 650.58 648.22 650.58C647.22 650.6 646.11 650.11 645.35 649.31C643.8 647.71 643.22 645.38 641.76 643.78C641.03 642.99 640.09 642.59 639.08 642.65C638.07 642.69 637.06 643.02 636.05 643.25C635.04 643.49 633.98 643.65 633 643.42C632.03 643.21 631.23 642.73 630.62 642.2C629.38 641.12 628.84 639.84 628.7 638.96C628.55 638.08 628.7 637.59 628.74 637.59C628.83 637.6 628.83 638.08 629.08 638.87C629.32 639.65 629.91 640.76 631.06 641.65C631.63 642.09 632.35 642.47 633.16 642.61C633.96 642.77 634.87 642.62 635.83 642.37C636.79 642.12 637.83 641.74 639.04 641.68C640.26 641.57 641.62 642.13 642.48 643.1C644.17 645.02 644.7 647.31 646.01 648.68C646.64 649.35 647.43 649.73 648.24 649.76C649.07 649.79 649.87 649.59 650.63 649.43C652.15 649.03 653.57 649.18 654.37 649.66C655.18 650.14 655.31 650.71 655.26 650.71Z" />
			</g>
			<g id="&lt;Group&gt;">
				<path id="&lt;Path&gt;" class="shp7" d="M658.6 646.05C658.47 646.29 652.12 643.15 644.41 639.04C636.7 634.93 630.56 631.4 630.69 631.16C630.82 630.92 637.17 634.05 644.88 638.16C652.58 642.28 658.73 645.8 658.6 646.05Z" />
			</g>
			<g id="&lt;Group&gt;">
				<path id="&lt;Path&gt;" class="shp7" d="M652.82 653.38C652.84 653.46 652.42 653.58 651.71 653.91C651.36 654.07 650.95 654.31 650.4 654.53C649.85 654.76 649.13 654.85 648.4 654.79C646.94 654.69 645.15 654.24 643.6 652.95C642.83 652.32 642.18 651.4 641.78 650.43C641.35 649.48 641.01 648.51 640.37 647.81C639.04 646.39 636.89 646.24 635.1 646.3C633.26 646.37 631.46 646.43 630.04 645.82C628.65 645.24 627.8 644.25 627.49 643.48C627.16 642.69 627.28 642.21 627.32 642.22C627.41 642.2 627.44 642.66 627.83 643.3C628.21 643.93 629.03 644.73 630.29 645.16C631.55 645.61 633.19 645.51 635.07 645.39C636.89 645.29 639.35 645.32 641.1 647.14C641.93 648.06 642.27 649.14 642.66 650.04C643.04 650.95 643.54 651.67 644.2 652.25C645.51 653.41 647.13 653.92 648.46 654.09C649.81 654.34 650.78 653.78 651.58 653.55C652.36 653.32 652.81 653.33 652.82 653.38Z" />
			</g>
		</g>
	</g>
	<g id="Character">
		<g id="&lt;Group&gt;">
			<g id="&lt;Group&gt;">
				<path id="&lt;Path&gt;" class="shp3" d="M433.24 466.59L483.53 459.13L459.49 425.07L446.59 425.83C437.91 426.34 430.26 431.7 426.82 439.69L426.82 439.69C425 443.93 424.49 448.62 425.36 453.16L433.24 466.59Z" />
				<path id="&lt;Path&gt;" class="shp11" d="M433.24 466.59L483.53 459.13L459.49 425.07L446.59 425.83C437.91 426.34 430.26 431.7 426.82 439.69L426.82 439.69C425 443.93 424.49 448.62 425.36 453.16L433.24 466.59Z" />
			</g>
			<g id="&lt;Group&gt;">
				<g id="&lt;Group&gt;">
					<path id="&lt;Path&gt;" class="shp5" d="M649.27 522.32C649.79 523.76 650.36 525.47 650.93 527.51C651.42 529.26 651.6 531.08 651.47 532.89C651.32 535.09 651.01 538.01 650.34 539.55C649.51 541.45 651.43 543.38 653.06 542.42C654.69 541.47 657.1 536.27 656.95 529.57C656.8 522.88 663.63 530.9 666.17 533.78C668.71 536.66 676.99 545.2 678.5 545.12C680.7 545 680.98 542.62 678.38 539.8C675.74 536.95 668.56 527.99 670.14 526.72C671.18 525.89 675.95 530.42 684.44 540.31C685.91 542.71 687.28 543.45 688.53 542.51C691.92 539.98 677.22 525.21 675.79 523.84C674.79 522.88 676.47 521.44 677.48 522.52C678.53 523.64 689.84 537.61 693.32 535.07C695.99 533.11 681.34 522.8 680.6 518.6C679.87 514.4 690.92 527.55 693.39 525.58C694.31 524.84 694.9 524.17 687.46 517.53C685.05 515.38 679.28 511.11 670.13 504.71L628.86 386.52L596.98 404.77L649.27 522.32Z" />
				</g>
				<path id="&lt;Path&gt;" class="shp5" d="M403.55 298.8L357.42 243.75L357.41 243.76C356.82 241.86 356.1 240.02 355.16 238.27C352.85 233.97 349.04 230.23 344.28 229.19C341.35 228.55 338 228.86 335.71 226.93C334.68 226.07 334 224.85 332.92 224.05C331.85 223.25 330.05 223.1 329.37 224.25C328.88 225.07 329.19 226.11 329.56 226.99C331.27 231.05 334.07 234.65 337.57 237.33C334.68 238.2 331.18 239.31 327.06 240.63C320.56 233.58 315.65 230.06 312.32 230.08C308.99 230.11 310.33 233.26 316.35 239.53C311.02 234.6 307.53 232.83 305.88 234.22C304.22 235.61 305.51 238.13 309.75 241.79C307.73 240.71 305.52 239.6 303.26 239.97C301.01 240.35 299.06 243.02 300.28 244.96C300.74 245.7 301.54 246.16 302.31 246.58C306.4 248.86 310.49 251.15 314.59 253.43C316.64 254.57 318.8 255.75 321.15 255.82C327.38 256.01 332.11 252.16 338.34 252.32C361.53 301.14 374.3 326.8 376.64 329.32C378.99 331.84 405.63 334.81 456.58 338.24L500.81 300.13L403.55 298.8Z" />
				<g id="&lt;Group&gt;">
					<path id="&lt;Path&gt;" class="shp3" d="M542.09 697.65L589.2 718.17L563.97 776.91C560.33 775.07 559.1 762.41 560.29 738.93L529.57 727.02L542.09 697.65Z" />
					<g id="&lt;Group&gt;" style="opacity: 0.6">
						<path id="&lt;Path&gt;" class="shp4" d="M565.55 719.67C566.35 718.67 567.96 718.43 569 719.19C570.03 719.95 570.29 721.59 569.51 722.6C568.73 723.62 566.79 723.97 565.85 723.1C564.91 722.23 564.71 720.29 565.72 719.49" />
					</g>
					<path id="&lt;Path&gt;" class="shp12" d="M589.2 718.17L584.37 716.29L561.99 773.31C562 775.38 562.66 776.58 563.97 776.91L589.2 718.17Z" />
					<g id="&lt;Group&gt;">
						<path id="&lt;Path&gt;" class="shp7" d="M559.59 739.75C559.88 739.87 560.62 738.49 562.15 737.47C563.65 736.42 565.21 736.22 565.21 735.91C565.26 735.62 563.37 735.31 561.54 736.57C559.7 737.82 559.3 739.7 559.59 739.75Z" />
					</g>
					<g id="&lt;Group&gt;">
						<path id="&lt;Path&gt;" class="shp7" d="M559.49 747.01C559.74 747.19 560.76 746.16 562.39 745.71C564.01 745.2 565.43 745.52 565.54 745.23C565.7 744.98 564.1 744.06 562.08 744.66C560.06 745.25 559.22 746.88 559.49 747.01Z" />
					</g>
					<g id="&lt;Group&gt;">
						<path id="&lt;Path&gt;" class="shp7" d="M565.36 753.67C565.53 753.44 564.27 752.42 562.38 752.49C560.49 752.53 559.29 753.62 559.48 753.84C559.65 754.11 560.86 753.6 562.41 753.57C563.96 753.51 565.21 753.94 565.36 753.67Z" />
					</g>
					<g id="&lt;Group&gt;">
						<path id="&lt;Path&gt;" class="shp7" d="M552.89 736.26C553.2 736.25 553.37 734.77 554.17 733.19C554.95 731.6 556.03 730.58 555.85 730.32C555.72 730.07 554.13 730.84 553.2 732.71C552.26 734.57 552.6 736.31 552.89 736.26Z" />
					</g>
					<g id="&lt;Group&gt;">
						<path id="&lt;Path&gt;" class="shp7" d="M546.52 731.87C546.63 731.92 547.3 730.87 547.77 728.92C548 727.95 548.16 726.76 548.14 725.44C548.13 724.77 548.08 724.08 547.97 723.36C547.91 723.02 547.88 722.62 547.66 722.18C547.5 721.73 546.81 721.22 546.19 721.39C545.61 721.5 545.19 721.95 545 722.37C544.8 722.79 544.73 723.18 544.67 723.53C544.55 724.26 544.51 724.96 544.52 725.63C544.54 726.97 544.8 728.16 545.13 729.11C545.81 731.02 546.68 731.94 546.78 731.87C546.93 731.78 546.31 730.73 545.87 728.89C545.65 727.98 545.49 726.87 545.52 725.64C545.53 725.02 545.6 724.38 545.72 723.72C545.83 723.03 546.05 722.5 546.39 722.46C546.52 722.45 546.57 722.46 546.7 722.66C546.81 722.87 546.86 723.19 546.92 723.53C547.04 724.2 547.11 724.85 547.14 725.47C547.21 726.71 547.14 727.84 547.01 728.78C546.76 730.67 546.36 731.81 546.52 731.87Z" />
					</g>
					<g id="&lt;Group&gt;">
						<path id="&lt;Path&gt;" class="shp7" d="M547.09 731.67C547.18 731.59 546.39 730.58 544.58 729.68C543.68 729.23 542.52 728.85 541.19 728.69C540.52 728.62 539.81 728.61 539.08 728.68C538.35 728.77 537.39 728.86 536.79 729.92C536.52 730.49 536.76 731.16 537.08 731.5C537.4 731.86 537.72 732.05 538.03 732.26C538.67 732.66 539.35 732.94 540.01 733.11C541.34 733.47 542.6 733.4 543.59 733.16C545.6 732.67 546.46 731.62 546.37 731.55C546.27 731.4 545.29 732.16 543.45 732.41C542.54 732.53 541.42 732.51 540.28 732.15C539.72 731.98 539.14 731.72 538.61 731.37C538.02 731.01 537.62 730.56 537.78 730.35C537.9 730.06 538.59 729.76 539.19 729.74C539.85 729.66 540.49 729.65 541.1 729.69C542.32 729.78 543.4 730.06 544.28 730.38C546.04 731.04 546.98 731.81 547.09 731.67Z" />
					</g>
				</g>
				<g id="&lt;Group&gt;">
					<path id="&lt;Path&gt;" class="shp3" d="M505.81 778.34L525.3 819.16L531.4 855.89C531.84 858.54 534.43 860.26 537.04 859.64C538.5 859.29 539.7 858.28 540.26 856.88C543.84 848.01 556.85 815.33 555.26 812.42C554.03 810.18 548.13 795.37 537.57 768L505.81 778.34Z" />
					<path id="&lt;Path&gt;" class="shp12" d="M537.04 859.64L554.01 809.64L554.79 811.38C555.47 812.9 555.6 814.6 555.14 816.19C553.9 820.44 550.23 832.12 540.38 856.83C539.81 858.26 538.55 859.33 537.04 859.64Z" />
					<g id="&lt;Group&gt;" style="opacity: 0.6">
						<path id="&lt;Path&gt;" class="shp4" d="M539.56 800.13C538.85 801.31 539.21 803.03 540.36 803.79C541.51 804.55 543.26 804.19 543.99 803.03C544.72 801.86 544.35 799.79 543.12 799.16C541.9 798.53 539.87 799.06 539.43 800.37" />
					</g>
					<g id="&lt;Group&gt;">
						<path id="&lt;Path&gt;" class="shp7" d="M538.36 837.38C538.18 837.6 536.28 835.85 533.3 835.8C530.33 835.65 528.31 837.25 528.14 837.02C528.06 836.94 528.44 836.38 529.35 835.81C530.24 835.24 531.7 834.75 533.34 834.8C534.98 834.86 536.4 835.45 537.25 836.09C538.11 836.72 538.45 837.3 538.36 837.38Z" />
					</g>
					<g id="&lt;Group&gt;">
						<path id="&lt;Path&gt;" class="shp7" d="M537.91 844.22C537.79 844.49 535.86 843.74 533.46 844.09C531.04 844.39 529.38 845.61 529.19 845.38C528.98 845.23 530.57 843.46 533.33 843.11C536.07 842.73 538.07 844.02 537.91 844.22Z" />
					</g>
					<g id="&lt;Group&gt;">
						<path id="&lt;Path&gt;" class="shp7" d="M540.65 827.84C540.54 828.12 537.59 826.96 533.79 827.17C530 827.33 527.16 828.77 527.03 828.5C526.87 828.31 529.67 826.36 533.75 826.18C537.81 825.96 540.8 827.63 540.65 827.84Z" />
					</g>
					<g id="&lt;Group&gt;">
						<path id="&lt;Path&gt;" class="shp7" d="M535.76 814.94C535.76 815.23 533.06 815.3 530.04 816.53C527.01 817.72 525 819.53 524.8 819.31C524.59 819.16 526.42 816.89 529.68 815.61C532.92 814.3 535.81 814.69 535.76 814.94Z" />
					</g>
					<g id="&lt;Group&gt;">
						<path id="&lt;Path&gt;" class="shp7" d="M530.35 802.81C530.33 803.1 527.42 802.76 524.35 804.31C521.25 805.79 519.74 808.31 519.5 808.14C519.39 808.09 519.61 807.37 520.31 806.39C521.01 805.42 522.25 804.24 523.91 803.42C525.57 802.61 527.26 802.34 528.46 802.38C529.66 802.42 530.37 802.69 530.35 802.81Z" />
					</g>
					<g id="&lt;Group&gt;">
						<path id="&lt;Path&gt;" class="shp7" d="M523.39 801.97C523.33 802 522.99 801.48 522.63 800.44C522.27 799.4 521.9 797.8 522.03 795.79C522.13 794.83 522.15 793.63 523.06 792.57C523.51 792.04 524.41 791.76 525.15 792.09C525.87 792.4 526.33 793.01 526.64 793.66C527.77 796.3 526.66 799.84 523.88 801.54C521.07 803.19 517.64 802.71 515.45 800.97C514.93 800.5 514.43 799.87 514.44 799.03C514.43 798.18 515.15 797.52 515.78 797.36C517.09 796.99 518.18 797.35 519.14 797.55C521.07 798.05 522.49 798.86 523.39 799.49C524.3 800.13 524.7 800.59 524.67 800.63C524.57 800.8 522.71 799.07 518.98 798.23C518.05 798.07 516.97 797.82 516.05 798.14C515.6 798.29 515.31 798.63 515.31 799.04C515.3 799.45 515.62 799.93 516.05 800.29C517.87 801.69 521.01 802.13 523.37 800.69C525.72 799.28 526.69 796.16 525.8 794.03C525.58 793.52 525.21 793.07 524.81 792.89C524.41 792.72 523.96 792.82 523.65 793.14C523 793.83 522.85 794.94 522.73 795.86C522.36 799.67 523.59 801.93 523.39 801.97Z" />
					</g>
				</g>
				<g id="&lt;Group&gt;">
					<path id="&lt;Compound Path&gt;" fill-rule="evenodd" class="shp7" d="M548.49 746.2L532.89 737.11L547.87 788.4L501.45 809.98C481.09 769.87 467.57 734.74 460.9 704.59C460.26 701.7 459.75 698.2 459.35 694.2C430.07 676.75 383.7 645.34 382.77 632.78C379.84 593.11 392.67 573.5 410.95 518.77C416.67 501.61 425.98 479.63 438.86 452.83L485.13 463.56L535.72 493.1L518.05 666.69L571.46 702.64L548.49 746.2ZM459.5 616.73C460.36 599.03 461.56 580.58 462.88 562.89L456.65 590.71C455.47 599.46 456.49 608.55 459.5 616.73Z" />
					<g id="&lt;Group&gt;">
						<path id="&lt;Path&gt;" class="shp9" d="M501.45 809.98C501.43 809.99 501.31 809.74 501.09 809.25C500.86 808.71 500.54 807.98 500.13 807.06C499.29 805.07 498.08 802.23 496.54 798.59C493.46 791.22 489.04 780.55 483.73 767.29C478.45 754.03 472.16 738.23 465.82 720.44C464.24 715.99 462.7 711.4 461.24 706.66C460.6 704.27 459.79 701.9 459.37 699.36C459.25 698.74 459.1 698.11 459 697.48L458.78 695.59C458.64 694.32 458.5 693.05 458.35 691.77C457.81 686.66 457.36 681.44 457.02 676.14C456.86 673.49 456.71 670.82 456.61 668.13C456.51 665.45 456.39 662.71 456.55 659.99C457.33 638.18 459.17 617.5 460.67 598.68C462.24 579.88 463.66 562.95 464.85 548.71C466 534.48 466.81 522.96 467.27 514.99C467.51 511 467.65 507.91 467.75 505.81C467.8 504.8 467.84 504.01 467.88 503.42C467.91 502.89 467.94 502.61 467.95 502.61C467.97 502.61 467.98 502.89 467.98 503.43C467.97 504.01 467.96 504.8 467.95 505.82C467.92 507.92 467.84 511.02 467.65 515.01C467.31 522.99 466.61 534.52 465.55 548.76C464.42 563.01 463.08 579.95 461.58 598.76C460.13 617.57 458.32 638.27 457.54 660.01C457.38 662.73 457.51 665.4 457.6 668.09C457.7 670.78 457.85 673.44 458.01 676.08C458.34 681.37 458.79 686.57 459.32 691.67C459.46 692.94 459.6 694.21 459.74 695.47L459.96 697.36C460.06 697.98 460.2 698.59 460.32 699.2C460.71 701.64 461.52 704.02 462.15 706.39C463.59 711.11 465.12 715.69 466.69 720.13C472.96 737.92 479.19 753.74 484.38 767.04C489.65 780.26 493.92 790.98 496.9 798.44C498.37 802.11 499.51 804.98 500.31 806.98C500.68 807.92 500.97 808.66 501.18 809.21C501.38 809.71 501.47 809.97 501.45 809.98Z" />
					</g>
					<g id="&lt;Group&gt;">
						<path id="&lt;Path&gt;" class="shp9" d="M465.75 496.74C465.71 496.8 465.28 496.45 464.53 495.76C463.84 495.03 462.99 493.79 462.27 492.13C460.84 488.79 460.11 483.8 460 478.36C459.9 472.9 460.3 467.99 460.66 464.45C461.03 460.91 461.33 458.73 461.46 458.74C461.6 458.75 461.55 460.96 461.36 464.5C461.18 468.05 460.89 472.94 460.99 478.34C461.1 483.72 461.71 488.59 462.93 491.87C463.54 493.5 464.25 494.73 464.83 495.51C465.46 496.25 465.79 496.69 465.75 496.74Z" />
					</g>
					<g id="&lt;Group&gt;">
						<path id="&lt;Path&gt;" class="shp9" d="M445.77 455.43C445.87 455.41 446.36 457.25 446.17 460.29C446 463.3 444.98 467.53 442.34 471.4C439.7 475.28 436.14 477.78 433.4 479.03C430.64 480.32 428.75 480.54 428.73 480.44C428.68 480.28 430.49 479.81 433.08 478.41C435.66 477.03 439 474.54 441.52 470.84C444.04 467.14 445.13 463.13 445.47 460.22C445.83 457.3 445.6 455.45 445.77 455.43Z" />
					</g>
					<g id="&lt;Group&gt;">
						<path id="&lt;Path&gt;" class="shp9" d="M528.77 556.35C528.79 556.35 528.79 556.53 528.76 556.88C528.73 557.29 528.69 557.79 528.63 558.42C528.49 559.85 528.29 561.84 528.04 564.35C527.47 569.57 526.66 576.99 525.66 586.13C523.58 604.57 520.71 629.93 517.53 657.94C516.31 671.96 517.53 685.46 520.16 697.35C521.46 703.3 523.19 708.84 525 713.96C526.8 719.08 528.47 723.86 530 728.24C533.01 736.92 535.46 743.97 537.18 748.93C537.98 751.33 538.62 753.22 539.08 754.58C539.27 755.18 539.43 755.67 539.55 756.06C539.65 756.39 539.7 756.56 539.68 756.57C539.66 756.58 539.59 756.41 539.46 756.09C539.31 755.71 539.12 755.24 538.89 754.65C538.39 753.3 537.69 751.43 536.81 749.06C535.02 744.13 532.47 737.11 529.34 728.47C527.77 724.11 526.06 719.34 524.22 714.23C522.37 709.11 520.6 703.54 519.27 697.55C516.57 685.58 515.31 671.98 516.54 657.85C519.67 629.77 522.77 604.43 524.97 586.06C526.09 576.93 527.01 569.52 527.65 564.31C527.98 561.81 528.24 559.83 528.43 558.41C528.53 557.78 528.6 557.27 528.66 556.87C528.72 556.53 528.76 556.35 528.77 556.35Z" />
					</g>
				</g>
				<g id="&lt;Group&gt;">
					<path id="&lt;Path&gt;" class="shp5" d="M438.86 452.5L447.06 431.57L465.75 459.44L440.82 453.21" />
					<path id="&lt;Path&gt;" class="shp3" d="M634.51 389.57L612.32 339.82C609.66 331.83 604.69 330.58 600.52 325.94L544.93 294.59C517.93 283.53 497.07 296.55 482.37 333.65L445.55 417.63C416.68 427.2 412.47 443.07 432.91 465.24C425.06 451.59 424.99 442.3 432.71 437.38C444.84 429.65 458.29 450.02 471.2 469.38C481.37 484.61 502.98 497.17 536.02 507.07C541.81 500.94 540.19 479.56 544.73 468.09C545.69 465.66 557.61 437.95 580.49 384.96L593.79 417.19C605.16 403.86 613.6 396.14 619.11 394.02C624.62 391.9 629.75 390.41 634.51 389.57Z" />
					<g id="&lt;Group&gt;">
						<path id="&lt;Path&gt;" class="shp7" d="M536.02 424.92C536.05 424.97 535.47 425.41 534.33 426.09C533.2 426.77 531.49 427.65 529.28 428.49C524.88 430.18 518.23 431.5 511.01 430.38C503.79 429.27 497.84 426.01 494.16 423.07C492.3 421.6 490.94 420.25 490.06 419.26C489.19 418.27 488.77 417.67 488.81 417.63C488.95 417.5 490.82 419.76 494.59 422.51C498.31 425.25 504.15 428.32 511.16 429.4C518.18 430.48 524.67 429.32 529.04 427.83C533.46 426.34 535.92 424.75 536.02 424.92Z" />
					</g>
					<path id="&lt;Path&gt;" class="shp3" d="M443.9 346.04L478.2 349.27L533.08 291.27L500.81 290.16L443.33 295.84C446.73 311.81 446.92 328.54 443.9 346.04Z" />
					<g id="&lt;Group&gt;">
						<path id="&lt;Path&gt;" class="shp7" d="M491.55 315.48C491.58 315.49 491.43 315.86 491.13 316.54C490.76 317.31 490.31 318.29 489.75 319.5C488.49 322.19 486.77 325.87 484.66 330.37C480.39 339.56 474.73 352.37 468.6 366.56C462.46 380.77 456.88 393.62 452.66 402.84C450.56 407.45 448.82 411.17 447.57 413.72C446.98 414.91 446.5 415.88 446.12 416.64C445.77 417.3 445.58 417.65 445.55 417.63C445.52 417.62 445.65 417.25 445.93 416.56C446.27 415.77 446.7 414.78 447.22 413.55C448.41 410.84 450.03 407.11 452.02 402.55C456.08 393.13 461.59 380.32 467.69 366.17C473.82 351.97 479.59 339.19 484.02 330.07C486.23 325.5 488.07 321.83 489.4 319.33C490.03 318.16 490.54 317.2 490.95 316.45C491.31 315.8 491.51 315.46 491.55 315.48Z" />
					</g>
					<g id="&lt;Group&gt;">
						<path id="&lt;Path&gt;" class="shp7" d="M596.24 332.35C596.34 332.51 594.21 333.62 591.31 336.09C589.84 337.31 588.26 338.94 586.67 340.89C585.13 342.87 583.6 345.18 582.32 347.78C581.08 350.4 580.2 353.03 579.61 355.46C579.07 357.92 578.77 360.17 578.72 362.07C578.57 365.88 579.02 368.24 578.83 368.27C578.76 368.28 578.62 367.7 578.41 366.64C578.3 366.1 578.19 365.45 578.14 364.68C578.09 363.91 577.97 363.03 578.01 362.06C577.98 360.11 578.21 357.79 578.71 355.27C579.28 352.75 580.15 350.04 581.43 347.35C582.75 344.67 584.34 342.31 585.96 340.31C587.63 338.35 589.31 336.73 590.86 335.55C591.6 334.92 592.36 334.46 593 334.03C593.63 333.59 594.21 333.27 594.7 333.03C595.66 332.53 596.21 332.28 596.24 332.35Z" />
					</g>
				</g>
				<g id="&lt;Group&gt;">
					<g id="&lt;Group&gt;">
						<g id="&lt;Group&gt;">
							<g id="&lt;Group&gt;">
								<g id="&lt;Group&gt;">
									<g id="&lt;Group&gt;">
										<g id="&lt;Group&gt;">
											<g id="&lt;Group&gt;">
												<g id="&lt;Group&gt;">
													<g id="&lt;Group&gt;">
														<g id="&lt;Group&gt;">
															<g id="&lt;Group&gt;">
																<g id="&lt;Group&gt;">
																	<g id="&lt;Group&gt;">
																		<path id="&lt;Path&gt;" class="shp5" d="M605.83 252.68L573.64 312.84C568.39 322.66 556.44 326.74 546.27 322.19C535.08 317.18 530.44 303.75 536.18 292.91C538.2 289.09 540.05 285.61 541.73 282.49C532.4 276.44 529.92 268.38 534.28 258.3C540.12 244.82 561.55 206.75 566.1 198.7L593.23 210.83C608.46 218.75 614.16 237.67 605.83 252.68Z" />
																	</g>
																</g>
															</g>
														</g>
													</g>
												</g>
											</g>
											<g id="&lt;Group&gt;">
												<g id="&lt;Group&gt;">
													<g id="&lt;Group&gt;">
														<g id="&lt;Group&gt;">
															<g id="&lt;Group&gt;">
																<g id="&lt;Group&gt;">
																	<g id="&lt;Group&gt;">
																		<path id="&lt;Path&gt;" class="shp13" d="M541.8 282.26C547.91 285.61 555.27 286.68 563.9 285.46C557.58 291.29 549.62 291.52 540.02 286.14L541.8 282.26Z" />
																	</g>
																</g>
															</g>
														</g>
													</g>
												</g>
											</g>
										</g>
									</g>
								</g>
								<g id="&lt;Group&gt;">
									<g id="&lt;Group&gt;">
										<g id="&lt;Group&gt;">
											<g id="&lt;Group&gt;">
												<g id="&lt;Group&gt;">
													<g id="&lt;Group&gt;">
														<g id="&lt;Group&gt;">
															<g id="&lt;Group&gt;">
																<g id="&lt;Group&gt;">
																	<g id="&lt;Group&gt;">
																		<g id="&lt;Group&gt;">
																			<g id="&lt;Group&gt;">
																				<g id="&lt;Group&gt;">
																					<path id="&lt;Path&gt;" class="shp7" d="M552.14 234.17C551.59 235.28 552.08 236.67 553.24 237.26C554.39 237.85 555.77 237.43 556.32 236.31C556.87 235.2 556.37 233.81 555.22 233.22C554.07 232.63 552.69 233.05 552.14 234.17Z" />
																				</g>
																			</g>
																		</g>
																	</g>
																</g>
															</g>
														</g>
														<g id="&lt;Group&gt;">
															<g id="&lt;Group&gt;">
																<g id="&lt;Group&gt;">
																	<g id="&lt;Group&gt;">
																		<g id="&lt;Group&gt;">
																			<g id="&lt;Group&gt;">
																				<g id="&lt;Group&gt;">
																					<g id="&lt;Group&gt;">
																						<path id="&lt;Path&gt;" class="shp7" d="M552.26 232.25C552.4 232.65 554.57 232.17 556.87 233.21C559.19 234.22 560.36 236.17 560.74 236C560.91 235.93 560.87 235.3 560.37 234.43C559.88 233.57 558.88 232.5 557.44 231.86C555.99 231.22 554.55 231.21 553.61 231.44C552.65 231.67 552.19 232.07 552.26 232.25Z" />
																					</g>
																				</g>
																			</g>
																		</g>
																	</g>
																</g>
															</g>
														</g>
													</g>
													<g id="&lt;Group&gt;">
														<g id="&lt;Group&gt;">
															<g id="&lt;Group&gt;">
																<g id="&lt;Group&gt;">
																	<g id="&lt;Group&gt;">
																		<g id="&lt;Group&gt;">
																			<g id="&lt;Group&gt;">
																				<g id="&lt;Group&gt;">
																					<path id="&lt;Path&gt;" class="shp7" d="M573.75 244.8C573.21 245.92 573.7 247.3 574.86 247.89C576.01 248.48 577.39 248.06 577.94 246.95C578.48 245.83 577.99 244.45 576.84 243.85C575.68 243.26 574.3 243.68 573.75 244.8Z" />
																				</g>
																			</g>
																		</g>
																	</g>
																</g>
															</g>
														</g>
														<g id="&lt;Group&gt;">
															<g id="&lt;Group&gt;">
																<g id="&lt;Group&gt;">
																	<g id="&lt;Group&gt;">
																		<g id="&lt;Group&gt;">
																			<g id="&lt;Group&gt;">
																				<g id="&lt;Group&gt;">
																					<g id="&lt;Group&gt;">
																						<path id="&lt;Path&gt;" class="shp7" d="M574.78 242.85C574.92 243.24 577.09 242.77 579.39 243.81C581.71 244.82 582.88 246.76 583.25 246.59C583.43 246.52 583.39 245.9 582.89 245.03C582.4 244.17 581.4 243.09 579.95 242.45C578.51 241.82 577.06 241.81 576.13 242.04C575.17 242.26 574.7 242.66 574.78 242.85Z" />
																					</g>
																				</g>
																			</g>
																		</g>
																	</g>
																</g>
															</g>
														</g>
													</g>
													<g id="&lt;Group&gt;">
														<g id="&lt;Group&gt;">
															<g id="&lt;Group&gt;">
																<g id="&lt;Group&gt;">
																	<g id="&lt;Group&gt;">
																		<g id="&lt;Group&gt;">
																			<g id="&lt;Group&gt;">
																				<g id="&lt;Group&gt;">
																					<path id="&lt;Path&gt;" class="shp7" d="M558.73 256.23C558.79 256.1 557.47 255.21 555.28 253.87C554.71 253.55 554.21 253.18 554.29 252.73C554.34 252.24 554.87 251.72 555.46 251.16C556.66 249.98 557.91 248.74 559.22 247.45C564.5 242.14 568.61 237.66 568.4 237.45C568.18 237.24 563.72 241.37 558.44 246.69C557.15 248 555.92 249.26 554.74 250.46C554.22 251.03 553.49 251.62 553.4 252.64C553.36 253.15 553.65 253.66 553.98 253.93C554.31 254.22 554.64 254.37 554.92 254.52C557.21 255.69 558.66 256.36 558.73 256.23Z" />
																				</g>
																			</g>
																		</g>
																	</g>
																</g>
															</g>
														</g>
													</g>
													<g id="&lt;Group&gt;">
														<g id="&lt;Group&gt;">
															<g id="&lt;Group&gt;">
																<g id="&lt;Group&gt;">
																	<g id="&lt;Group&gt;">
																		<g id="&lt;Group&gt;">
																			<g id="&lt;Group&gt;">
																				<g id="&lt;Group&gt;">
																					<path id="&lt;Path&gt;" class="shp7" d="M564.81 260.87C564.44 260.68 563.32 263.18 560.37 264C557.43 264.83 554.88 263.35 554.71 263.7C554.6 263.84 555.09 264.45 556.2 264.98C557.29 265.52 559.07 265.89 560.87 265.38C562.66 264.88 563.88 263.67 564.42 262.68C564.99 261.68 564.99 260.93 564.81 260.87Z" />
																				</g>
																			</g>
																		</g>
																	</g>
																</g>
															</g>
														</g>
													</g>
												</g>
											</g>
										</g>
										<g id="&lt;Group&gt;">
											<g id="&lt;Group&gt;">
												<g id="&lt;Group&gt;">
													<g id="&lt;Group&gt;">
														<g id="&lt;Group&gt;">
															<g id="&lt;Group&gt;">
																<g id="&lt;Group&gt;">
																	<path id="&lt;Path&gt;" class="shp7" d="M578.23 233.52C578.18 234.25 580.62 234.99 583.19 236.53C585.78 238.02 587.61 239.79 588.22 239.39C588.5 239.19 588.39 238.43 587.78 237.42C587.17 236.42 586.03 235.22 584.49 234.31C582.94 233.41 581.33 233 580.17 232.96C578.99 232.91 578.27 233.18 578.23 233.52Z" />
																</g>
															</g>
														</g>
													</g>
												</g>
											</g>
										</g>
										<g id="&lt;Group&gt;">
											<g id="&lt;Group&gt;">
												<g id="&lt;Group&gt;">
													<g id="&lt;Group&gt;">
														<g id="&lt;Group&gt;">
															<g id="&lt;Group&gt;">
																<g id="&lt;Group&gt;">
																	<path id="&lt;Path&gt;" class="shp7" d="M556.1 225.94C556.27 226.65 558.11 226.82 560.03 227.65C561.99 228.41 563.41 229.58 564.03 229.2C564.31 229.01 564.29 228.37 563.81 227.56C563.33 226.75 562.34 225.82 561.01 225.27C559.68 224.73 558.33 224.69 557.42 224.93C556.5 225.17 556.04 225.61 556.1 225.94Z" />
																</g>
															</g>
														</g>
													</g>
												</g>
											</g>
										</g>
									</g>
								</g>
								<g id="&lt;Group&gt;">
									<g id="&lt;Group&gt;">
										<g id="&lt;Group&gt;">
											<g id="&lt;Group&gt;">
												<g id="&lt;Group&gt;">
													<g id="&lt;Group&gt;">
														<g id="&lt;Group&gt;">
															<g id="&lt;Group&gt;">
																<path id="&lt;Path&gt;" class="shp5" d="M595.71 261.7C596.01 261.7 607.4 263.27 602.48 273.4C597.55 283.53 588.39 276.49 588.52 276.19C588.6 275.99 591 271.16 595.71 261.7Z" />
															</g>
														</g>
													</g>
												</g>
											</g>
										</g>
									</g>
									<g id="&lt;Group&gt;">
										<g id="&lt;Group&gt;">
											<g id="&lt;Group&gt;">
												<g id="&lt;Group&gt;">
													<g id="&lt;Group&gt;">
														<g id="&lt;Group&gt;">
															<g id="&lt;Group&gt;">
																<g id="&lt;Group&gt;">
																	<path id="&lt;Path&gt;" class="shp13" d="M593.48 273.86C593.54 273.85 593.59 274.07 593.83 274.35C594.05 274.63 594.51 274.96 595.13 275.02C596.39 275.15 598.12 273.89 599.06 272.08C599.53 271.18 599.77 270.2 599.79 269.32C599.85 268.43 599.62 267.67 599.13 267.32C598.65 266.93 598.11 267.07 597.85 267.29C597.58 267.51 597.54 267.74 597.48 267.74C597.44 267.75 597.34 267.46 597.63 267.08C597.77 266.9 598 266.72 598.34 266.64C598.68 266.56 599.08 266.63 599.44 266.86C600.19 267.29 600.55 268.35 600.52 269.33C600.53 270.32 600.29 271.43 599.76 272.45C598.7 274.46 596.72 275.86 595.05 275.57C594.25 275.41 593.76 274.91 593.57 274.52C593.38 274.11 593.43 273.86 593.48 273.86Z" />
																</g>
															</g>
														</g>
													</g>
												</g>
											</g>
										</g>
									</g>
								</g>
							</g>
						</g>
						<g id="&lt;Group&gt;">
							<g id="&lt;Group&gt;">
								<g id="&lt;Group&gt;">
									<path id="&lt;Path&gt;" class="shp7" d="M601.58 263.91C600.18 262.83 596.82 263.06 595.5 264.23C594.17 265.4 593.28 267 591.96 268.17C590.63 269.34 588.53 269.99 587.13 268.92C586.16 268.18 585.84 266.82 586.04 265.61C586.23 264.41 586.86 263.33 587.49 262.29C590.24 257.76 593.38 253.45 595.74 248.7C598.1 243.95 599.66 238.62 598.96 233.36C598.27 228.11 594.96 222.99 589.96 221.22C586.65 220.05 582.98 220.41 579.6 219.43C575.6 218.27 572.22 215.17 570.73 211.28C570.6 210.95 570.16 210.19 569.41 209.01C569.52 208.76 570.71 206.72 571.91 206.31C580.81 203.31 592.89 206.76 600.27 212.57C607.65 218.39 612.81 227.75 612.9 237.14C612.99 246.54 607.08 256.9 601.58 263.91Z" />
								</g>
							</g>
						</g>
					</g>
					<g id="&lt;Group&gt;">
						<path id="&lt;Path&gt;" class="shp7" d="M601.68 262.89C604.49 258.11 609.06 254.64 612.55 250.32C616.03 245.99 618.43 239.9 615.95 234.94C615.1 233.24 613.74 231.82 613.03 230.06C612.32 228.29 612.32 226.33 612.05 224.44C611.2 218.61 607.51 213.25 602.36 210.38C598.8 208.39 594.69 207.58 591.09 205.68C585.37 202.68 581.19 197.11 575.19 194.74C573.19 193.95 570.86 193.57 568.96 194.55C567.05 195.53 566.03 198.29 567.42 199.93C567.17 198.01 564.69 196.96 562.93 197.75C561.17 198.55 560.27 200.65 560.39 202.57C560.51 204.5 561.46 206.28 562.57 207.86C566.21 213.09 571.79 216.93 577.97 218.47L591.77 217.39L603.09 225.78L611.47 239.11L596.28 258.85L601.68 262.89Z" />
					</g>
				</g>
			</g>
		</g>
	</g>
	<g id="Light Bulb">
		<g id="&lt;Group&gt;">
			<g id="&lt;Group&gt;">
				<path id="&lt;Path&gt;" class="shp3" d="M515.3 184.2C513.57 157.32 490.38 136.95 463.5 138.68C436.63 140.42 416.26 163.61 417.99 190.48C419.25 209.94 431.76 225.98 448.76 232.7C449.01 236.54 449.27 240.64 449.55 244.98L492.2 242.22C492.07 237.62 491.91 233.26 491.71 229.16C506.86 220.06 516.52 203.04 515.3 184.2Z" />
				<g id="&lt;Group&gt;">
					<path id="&lt;Path&gt;" class="shp7" d="M476.76 243.01C476.76 242.88 476.76 242.68 476.77 242.41C476.79 241.99 476.82 241.4 476.86 240.64C476.95 239.09 477.07 236.8 477.32 233.85C477.56 230.91 477.9 227.3 478.57 223.15C479.25 219.01 480.24 214.29 482.11 209.33C483.04 206.84 484.14 204.29 485.64 201.79C486.41 200.56 487.4 199.34 488.77 198.58C490.14 197.81 491.91 197.7 493.4 198.44C494.14 198.8 494.78 199.45 495.07 200.26C495.38 201.06 495.35 201.99 495.02 202.77C494.37 204.36 493.01 205.52 491.48 206.25C488.33 207.59 484.61 207.54 481.31 206.19C478 204.84 475.25 202.01 473.92 198.52C473.28 196.78 472.87 194.85 473.27 192.92C473.61 191.01 475.33 189.2 477.47 189.26C478.53 189.26 479.53 189.92 480.06 190.81C480.61 191.69 480.8 192.77 480.64 193.79C480.31 195.85 478.94 197.46 477.54 198.84C474.63 201.57 470.55 203.25 466.41 202.87C462.29 202.48 458.47 200.02 456.55 196.46C455.55 194.71 455.19 192.53 455.84 190.59C456.16 189.63 456.85 188.71 457.83 188.3C458.8 187.85 459.93 187.96 460.84 188.38C461.77 188.79 462.54 189.52 463.04 190.38C463.54 191.24 463.81 192.19 463.96 193.14C464.22 195.03 464.07 196.95 463.58 198.75C462.62 202.35 460.29 205.49 457.25 207.35C454.22 209.23 450.6 209.91 447.27 209.38C445.62 209.13 443.92 208.59 442.74 207.34C441.58 206.13 441.14 204.11 442.17 202.67C442.68 201.98 443.48 201.58 444.28 201.46C445.09 201.35 445.9 201.47 446.63 201.76C448.12 202.38 449.09 203.67 449.83 204.91C451.22 207.47 452.37 209.97 453.52 212.36C458.05 221.91 461.33 229.81 463.54 235.29C464.64 238.03 465.47 240.17 466.02 241.63C466.28 242.34 466.49 242.89 466.64 243.29C466.73 243.54 466.79 243.73 466.83 243.86C466.76 243.74 466.68 243.55 466.58 243.31C466.42 242.92 466.2 242.37 465.91 241.67C465.31 240.21 464.44 238.09 463.32 235.38C461.05 229.93 457.71 222.06 453.14 212.54C451.98 210.17 450.8 207.65 449.43 205.15C448.72 203.94 447.78 202.75 446.45 202.21C445.17 201.68 443.43 201.79 442.57 202.97C441.72 204.13 442.08 205.93 443.11 206.99C444.17 208.1 445.76 208.63 447.35 208.86C450.55 209.36 454.05 208.69 456.96 206.88C459.88 205.09 462.11 202.07 463.03 198.6C463.5 196.87 463.63 195.02 463.38 193.22C463.14 191.45 462.28 189.64 460.6 188.91C459.8 188.55 458.86 188.47 458.07 188.84C457.26 189.17 456.69 189.93 456.39 190.78C455.83 192.53 456.12 194.53 457.07 196.18C458.88 199.55 462.55 201.91 466.46 202.27C470.4 202.64 474.34 201.03 477.13 198.41C478.49 197.08 479.77 195.52 480.06 193.7C480.2 192.81 480.02 191.87 479.56 191.12C479.11 190.37 478.31 189.85 477.45 189.84C476.59 189.81 475.73 190.19 475.08 190.78C474.43 191.36 474.02 192.18 473.84 193.05C473.46 194.8 473.84 196.65 474.45 198.31C475.72 201.66 478.36 204.39 481.53 205.68C484.67 206.99 488.29 207.02 491.25 205.78C492.69 205.1 493.97 203.99 494.55 202.59C495.16 201.19 494.51 199.5 493.17 198.88C491.87 198.22 490.24 198.31 489 199C487.73 199.7 486.79 200.84 486.03 202.03C484.56 204.47 483.44 207.02 482.5 209.47C480.63 214.4 479.61 219.08 478.9 223.21C478.2 227.34 477.83 230.93 477.55 233.87C477.3 236.8 477.11 239.08 476.98 240.65C476.92 241.41 476.87 241.99 476.83 242.42C476.81 242.68 476.79 242.88 476.76 243.01Z" />
				</g>
				<path id="&lt;Path&gt;" class="shp7" d="M489.43 250.33L452.81 252.69C451.29 252.79 449.98 251.64 449.89 250.12C449.79 248.61 450.94 247.3 452.46 247.2L489.07 244.83C490.59 244.73 491.9 245.88 492 247.4C492.09 248.92 490.94 250.23 489.43 250.33Z" />
				<path id="&lt;Path&gt;" class="shp7" d="M489.58 252.73L452.97 255.09C451.45 255.19 450.3 256.5 450.4 258.02C450.49 259.54 451.8 260.69 453.32 260.59L457.34 260.33L463.33 270.13C464.01 271.26 465.26 271.9 466.58 271.82L479.66 270.97C480.98 270.89 482.15 270.07 482.68 268.85L487.2 258.4L489.94 258.22C491.45 258.12 492.61 256.82 492.51 255.3C492.41 253.78 491.1 252.63 489.58 252.73Z" />
			</g>
			<g id="&lt;Group&gt;" style="opacity: 0.2">
				<path id="&lt;Path&gt;" class="shp4" d="M433.39 158.36C436.46 155.12 439.75 152.78 442.71 151.25C445.67 149.71 448.24 148.89 450.07 148.59C451.9 148.28 452.96 148.39 453.07 148.77C453.34 149.64 449.74 151.19 444.98 154.83C440.24 158.4 434.4 164.48 431.18 172.75C427.98 181.04 428.19 189.47 429.28 195.3C430.34 201.19 431.96 204.77 431.17 205.23C430.83 205.43 429.97 204.8 428.83 203.34C427.69 201.88 426.34 199.54 425.19 196.41C424.04 193.28 423.19 189.33 423.1 184.87C423 180.42 423.74 175.45 425.6 170.59" />
			</g>
			<g id="&lt;Group&gt;" style="opacity: 0.2">
				<path id="&lt;Path&gt;" class="shp4" d="M464.91 150.11C461.82 150.28 459.05 149.62 458.63 148C458.44 147.2 458.95 146.3 460.02 145.56C461.09 144.81 462.71 144.24 464.55 144.13C466.4 144.02 468.08 144.4 469.22 145.01C470.37 145.62 470.99 146.46 470.9 147.27" />
			</g>
			<g id="&lt;Group&gt;">
				<path id="&lt;Path&gt;" class="shp9" d="M482.05 269.76C482.01 269.86 481.07 269.49 479.49 269.15C477.91 268.8 475.67 268.54 473.22 268.77C470.77 269 468.63 269.67 467.14 270.31C465.65 270.94 464.79 271.47 464.73 271.38C464.7 271.33 465.48 270.67 466.96 269.92C468.44 269.17 470.64 268.41 473.17 268.17C475.7 267.94 478 268.28 479.59 268.74C481.18 269.2 482.08 269.7 482.05 269.76Z" />
			</g>
			<g id="&lt;Group&gt;">
				<path id="&lt;Path&gt;" class="shp9" d="M487.29 258.52C487.3 258.68 480.69 259.25 472.53 259.77C464.36 260.3 457.73 260.59 457.72 260.43C457.71 260.26 464.32 259.7 472.49 259.18C480.65 258.65 487.28 258.35 487.29 258.52Z" />
			</g>
			<g id="&lt;Group&gt;">
				<path id="&lt;Path&gt;" class="shp9" d="M485.28 263.01C485.29 263.09 483.92 263.33 481.7 263.61C479.48 263.89 476.4 264.22 472.99 264.49C469.58 264.76 466.48 264.92 464.24 264.99C462 265.05 460.62 265.03 460.61 264.95C460.61 264.87 461.99 264.74 464.22 264.56C466.63 264.38 469.63 264.15 472.94 263.89C476.25 263.63 479.24 263.38 481.65 263.19C483.89 263.01 485.27 262.93 485.28 263.01Z" />
			</g>
		</g>
	</g>
	<g id="Book">
		<g id="&lt;Group&gt;">
			<path id="&lt;Path&gt;" class="shp3" d="M221.6 507.95L229.55 520.69C252.16 499.88 274.69 492.42 297.12 498.3C276.96 481.2 251.79 484.42 221.6 507.95Z" />
			<path id="&lt;Path&gt;" class="shp3" d="M297.12 498.3C313.72 480.27 334.19 473.32 358.53 477.43L368.49 478.93L365.31 473.18C322.98 458.68 300.25 467.05 297.12 498.3Z" />
			<g id="&lt;Group&gt;">
				<path id="&lt;Path&gt;" class="shp2" d="M244.57 407.13C211.32 401.41 183.79 404.45 161.98 416.24L213.92 514.04C242.26 486.72 270 481.47 297.12 498.3L244.57 407.13Z" />
				<g id="&lt;Group&gt;">
					<path id="&lt;Path&gt;" class="shp7" d="M244.57 407.13C244.57 407.12 244.66 407.25 244.83 407.52C245.02 407.83 245.26 408.24 245.58 408.76C246.25 409.89 247.21 411.52 248.45 413.62C250.97 417.93 254.63 424.2 259.26 432.13C268.56 448.15 281.76 470.93 297.5 498.08C297.63 498.29 297.55 498.56 297.34 498.68C297.2 498.76 297.02 498.75 296.89 498.67C291.25 495.21 284.77 492.58 277.77 491.33C274.26 490.76 270.65 490.51 266.99 490.58C263.33 490.73 259.63 491.19 255.95 491.97C241.21 495.24 226.9 503.24 214.69 514L214.26 514.4C214.07 514.59 213.75 514.59 213.56 514.39C213.53 514.36 213.5 514.31 213.48 514.28C194.18 477.88 176.3 444.14 161.62 416.44C161.51 416.24 161.58 416 161.77 415.89L161.78 415.89C173.22 409.97 184.83 407.41 195.03 406.05C205.28 404.72 214.28 404.68 221.63 404.89C228.99 405.13 234.74 405.72 238.63 406.2C240.58 406.44 242.06 406.67 243.06 406.83C243.53 406.92 243.91 406.98 244.19 407.04C244.45 407.09 244.57 407.12 244.57 407.13C244.56 407.14 244.42 407.12 244.17 407.1C243.89 407.06 243.52 407.02 243.04 406.96C242.04 406.83 240.55 406.64 238.6 406.45C234.7 406.05 228.96 405.53 221.62 405.36C214.28 405.22 205.31 405.33 195.11 406.7C184.97 408.11 173.45 410.72 162.17 416.6L162.34 416.05C177.07 443.73 195 477.44 214.36 513.81L213.57 513.69L214.02 513.27C220.17 507.76 226.91 503.13 233.91 499.32C240.92 495.54 248.27 492.64 255.74 491.03C259.48 490.25 263.24 489.78 266.96 489.64C270.69 489.57 274.36 489.82 277.93 490.42C285.05 491.7 291.64 494.39 297.35 497.92L296.74 498.52C281.17 471.35 268.11 448.56 258.92 432.52C254.36 424.51 250.77 418.19 248.29 413.84C247.08 411.69 246.15 410.03 245.5 408.87C245.2 408.33 244.97 407.9 244.79 407.58C244.63 407.29 244.56 407.14 244.57 407.13Z" />
				</g>
			</g>
			<g id="&lt;Group&gt;">
				<path id="&lt;Path&gt;" class="shp2" d="M322.96 387.06C297.81 371.03 271.89 377.72 245.21 407.13L297.76 498.3C304.91 473.63 329.41 465.58 371.24 474.16L322.96 387.06Z" />
				<g id="&lt;Group&gt;">
					<path id="&lt;Path&gt;" class="shp7" d="M322.96 387.06C322.97 387.05 323.06 387.18 323.22 387.44C323.39 387.74 323.62 388.12 323.91 388.62C324.53 389.71 325.41 391.26 326.55 393.26C328.87 397.39 332.23 403.36 336.49 410.94C345.02 426.24 357.14 447.99 371.62 473.95C371.74 474.16 371.66 474.43 371.45 474.55C371.36 474.6 371.26 474.61 371.17 474.6L371.15 474.59C368.09 474.09 364.98 473.58 361.81 473.06C360.23 472.74 358.61 472.65 356.98 472.52C355.35 472.39 353.71 472.26 352.05 472.13C350.4 471.94 348.73 471.98 347.04 472.01C345.36 472.03 343.66 472.05 341.96 472.07C340.25 472.11 338.55 472.42 336.83 472.58C335.11 472.8 333.36 472.89 331.67 473.36C329.96 473.75 328.24 474.14 326.51 474.53C324.84 475.11 323.16 475.7 321.47 476.29C319.78 476.88 318.22 477.81 316.58 478.56C315.74 478.92 314.98 479.4 314.22 479.91L311.92 481.38C310.41 482.39 309.05 483.64 307.62 484.79C306.35 486.13 304.93 487.33 303.83 488.84C301.48 491.68 299.46 494.95 298.24 498.44L298.23 498.46C298.14 498.72 297.86 498.86 297.6 498.77C297.48 498.73 297.39 498.64 297.33 498.55C296.66 497.39 295.94 496.13 295.21 494.87C276.63 462.58 259.31 432.48 244.84 407.34C244.75 407.18 244.78 406.98 244.9 406.85C253.78 397.15 263.59 389.76 273.37 385.44C283.12 381.01 292.64 379.91 300.23 380.4C307.86 380.87 313.65 382.73 317.41 384.25C319.3 385.01 320.68 385.73 321.61 386.23C322.04 386.48 322.38 386.67 322.64 386.83C322.86 386.98 322.97 387.05 322.96 387.06C322.96 387.07 322.83 387.01 322.6 386.88C322.33 386.74 321.99 386.57 321.55 386.34C320.61 385.88 319.21 385.21 317.31 384.49C313.54 383.05 307.77 381.28 300.2 380.88C292.67 380.47 283.27 381.63 273.65 386.06C264 390.39 254.31 397.75 245.52 407.41L245.57 406.92C260.08 432.04 277.44 462.11 296.08 494.37C296.8 495.63 297.52 496.89 298.19 498.05L297.29 498.16C298.59 494.43 300.64 491.15 303.07 488.21C304.2 486.67 305.65 485.43 306.95 484.06C308.41 482.88 309.81 481.61 311.36 480.57L313.71 479.07C314.48 478.55 315.27 478.06 316.12 477.69C317.79 476.93 319.39 475.98 321.11 475.39C322.83 474.79 324.54 474.19 326.25 473.6C328 473.2 329.75 472.81 331.48 472.42C333.2 471.95 334.97 471.86 336.71 471.64C338.46 471.48 340.18 471.17 341.9 471.13C343.63 471.11 345.35 471.09 347.05 471.08C348.75 471.04 350.44 471.01 352.1 471.21C353.77 471.34 355.43 471.48 357.07 471.61C358.71 471.75 360.34 471.84 361.93 472.17C365.12 472.7 368.25 473.22 371.32 473.74L370.85 474.38C356.53 448.37 344.53 426.59 336.09 411.27C331.92 403.63 328.62 397.6 326.35 393.45C325.25 391.41 324.4 389.83 323.81 388.72C323.54 388.2 323.33 387.8 323.16 387.49C323.02 387.21 322.96 387.07 322.96 387.06Z" />
				</g>
			</g>
			<g id="&lt;Group&gt;">
				<path id="&lt;Path&gt;" class="shp2" d="M176.02 369.23L232.27 477.54C262.75 476.2 284.44 482.96 297.34 497.81L245.21 407.13C224.83 381.87 201.77 369.23 176.02 369.23Z" />
				<g id="&lt;Group&gt;">
					<path id="&lt;Path&gt;" class="shp7" d="M176.02 369.23C176.33 369.24 176.81 369.25 177.45 369.28C178.47 369.32 179.92 369.38 181.79 369.46C182.27 369.48 182.78 369.49 183.31 369.55C183.83 369.63 184.38 369.72 184.95 369.82C186.1 370.01 187.36 370.22 188.71 370.44C190.08 370.6 191.49 371.07 193.02 371.47C194.53 371.93 196.19 372.24 197.84 372.9C211.29 377.37 229.31 388.21 245.52 406.87L245.55 406.91L245.56 406.92C260.4 432.69 278.37 463.89 297.77 497.57C297.9 497.8 297.82 498.11 297.58 498.24C297.39 498.36 297.14 498.32 296.99 498.17L296.96 498.14C296.26 497.45 295.51 496.7 294.75 495.95C290.57 491.89 285.62 488.69 280.36 486.43C275.12 484.12 269.72 482.33 264.27 481.16C253.39 478.72 242.54 477.8 232.29 478L232.28 478C232.1 478 231.94 477.9 231.86 477.75C215.46 445.95 201.46 418.79 191.53 399.53C186.63 389.99 182.74 382.41 180.05 377.17C178.74 374.61 177.73 372.63 177.02 371.25C176.7 370.61 176.45 370.11 176.26 369.73C176.09 369.4 176.01 369.23 176.02 369.23C176.04 369.24 176.14 369.42 176.33 369.77C176.53 370.16 176.81 370.67 177.16 371.33C177.9 372.72 178.95 374.73 180.32 377.31C183.07 382.55 187.06 390.14 192.07 399.69C202.07 418.8 216.18 445.76 232.68 477.32L232.25 477.07C242.62 476.85 253.5 477.75 264.48 480.21C269.98 481.38 275.45 483.18 280.76 485.53C286.1 487.82 291.16 491.08 295.45 495.24C296.22 496.01 297 496.78 297.71 497.49L296.9 498.06C277.56 464.35 259.65 433.12 244.85 407.33L244.89 407.38C236.97 398.08 228.34 390.78 220.27 385.1C212.12 379.51 204.38 375.61 197.69 373.34C196.05 372.67 194.41 372.34 192.91 371.87C191.4 371.45 190 370.97 188.64 370.79C187.29 370.55 186.05 370.32 184.91 370.12C184.34 370.01 183.79 369.91 183.27 369.82C182.76 369.75 182.27 369.74 181.81 369.7C178.37 369.42 176.78 369.29 176.02 369.23Z" />
				</g>
			</g>
		</g>
	</g>
	<g id="Stars">
		<g id="&lt;Group&gt;">
			<g id="&lt;Group&gt;">
				<g id="&lt;Group&gt;">
					<g id="&lt;Group&gt;">
						<path id="&lt;Path&gt;" class="shp3" d="M351.6 676.4L352.8 678.4C354.16 680.66 356.13 682.47 358.49 683.64L360.59 684.68L358.58 685.89C356.33 687.24 354.51 689.21 353.35 691.57L352.31 693.67L351.1 691.66C349.75 689.41 347.77 687.59 345.42 686.43L343.32 685.39L345.32 684.18C347.58 682.83 349.39 680.85 350.56 678.5L351.6 676.4Z" />
					</g>
				</g>
			</g>
		</g>
		<g id="&lt;Group&gt;">
			<g id="&lt;Group&gt;">
				<g id="&lt;Group&gt;">
					<g id="&lt;Group&gt;">
						<path id="&lt;Path&gt;" class="shp3" d="M240.71 263.87L241.92 265.87C243.27 268.13 245.25 269.94 247.6 271.11L249.7 272.15L247.7 273.35C245.44 274.71 243.63 276.68 242.46 279.04L241.42 281.14L240.21 279.13C238.86 276.88 236.89 275.06 234.53 273.9L232.43 272.86L234.44 271.65C236.69 270.3 238.51 268.32 239.67 265.97L240.71 263.87Z" />
					</g>
				</g>
			</g>
		</g>
		<g id="&lt;Group&gt;">
			<g id="&lt;Group&gt;">
				<g id="&lt;Group&gt;">
					<g id="&lt;Group&gt;">
						<path id="&lt;Path&gt;" class="shp3" d="M753.88 335.04L755.09 337.05C756.44 339.3 758.42 341.12 760.77 342.28L762.87 343.32L760.87 344.53C758.61 345.88 756.8 347.86 755.63 350.21L754.59 352.31L753.39 350.31C752.03 348.05 750.06 346.24 747.7 345.07L745.6 344.03L747.61 342.83C749.86 341.47 751.68 339.5 752.84 337.14L753.88 335.04Z" />
					</g>
				</g>
			</g>
		</g>
		<g id="&lt;Group&gt;">
			<g id="&lt;Group&gt;">
				<g id="&lt;Group&gt;">
					<g id="&lt;Group&gt;">
						<path id="&lt;Path&gt;" class="shp3" d="M693.28 702.31L694.49 704.31C695.84 706.57 697.82 708.38 700.17 709.55L702.27 710.59L700.26 711.79C698.01 713.15 696.2 715.12 695.03 717.48L693.99 719.58L692.78 717.57C691.43 715.32 689.46 713.5 687.1 712.34L685 711.3L687.01 710.09C689.26 708.74 691.08 706.76 692.24 704.41L693.28 702.31Z" />
					</g>
				</g>
			</g>
		</g>
		<g id="&lt;Group&gt;">
			<g id="&lt;Group&gt;">
				<g id="&lt;Group&gt;">
					<g id="&lt;Group&gt;">
						<path id="&lt;Path&gt;" class="shp3" d="M704.82 779.49L705.39 779.72C706.04 779.98 706.75 780.05 707.44 779.92L708.05 779.8L707.82 780.38C707.56 781.03 707.49 781.74 707.62 782.43L707.74 783.04L707.16 782.81C706.51 782.54 705.8 782.48 705.11 782.61L704.5 782.72L704.73 782.14C704.99 781.49 705.06 780.78 704.93 780.1L704.82 779.49Z" />
					</g>
				</g>
			</g>
		</g>
		<g id="&lt;Group&gt;">
			<g id="&lt;Group&gt;">
				<g id="&lt;Group&gt;">
					<g id="&lt;Group&gt;">
						<path id="&lt;Path&gt;" class="shp3" d="M739.71 257.62L740.29 257.86C740.94 258.12 741.65 258.19 742.33 258.06L742.95 257.94L742.71 258.52C742.45 259.17 742.38 259.88 742.51 260.56L742.63 261.18L742.05 260.94C741.4 260.68 740.69 260.61 740.01 260.74L739.39 260.86L739.63 260.28C739.89 259.63 739.96 258.92 739.83 258.23L739.71 257.62Z" />
					</g>
				</g>
			</g>
		</g>
		<g id="&lt;Group&gt;">
			<g id="&lt;Group&gt;">
				<g id="&lt;Group&gt;">
					<g id="&lt;Group&gt;">
						<path id="&lt;Path&gt;" class="shp3" d="M263.26 209.97L263.84 210.21C264.49 210.47 265.2 210.54 265.88 210.41L266.5 210.29L266.26 210.87C266 211.52 265.93 212.23 266.06 212.91L266.18 213.53L265.6 213.29C264.95 213.03 264.24 212.96 263.56 213.09L262.94 213.21L263.18 212.63C263.44 211.98 263.51 211.27 263.38 210.59L263.26 209.97Z" />
					</g>
				</g>
			</g>
		</g>
		<g id="&lt;Group&gt;">
			<g id="&lt;Group&gt;">
				<g id="&lt;Group&gt;">
					<g id="&lt;Group&gt;">
						<path id="&lt;Path&gt;" class="shp3" d="M322.06 616.32L322.64 616.55C323.29 616.81 324 616.88 324.69 616.75L325.3 616.63L325.07 617.21C324.81 617.86 324.74 618.57 324.87 619.26L324.98 619.87L324.4 619.64C323.76 619.38 323.05 619.31 322.36 619.44L321.75 619.55L321.98 618.97C322.24 618.33 322.31 617.62 322.18 616.93L322.06 616.32Z" />
					</g>
				</g>
			</g>
		</g>
		<g id="&lt;Group&gt;">
			<g id="&lt;Group&gt;">
				<g id="&lt;Group&gt;">
					<g id="&lt;Group&gt;">
						<g id="&lt;Group&gt;">
							<g id="&lt;Group&gt;">
								<path id="&lt;Path&gt;" class="shp3" d="M385.81 773.38C385.7 773.52 385.51 773.71 385.27 773.96C384.87 774.36 384.31 774.91 383.61 775.61C382.1 777.08 379.93 779.19 377.14 781.91C371.47 787.38 363.3 795.26 353.17 805.03L353.26 804.79C354.4 829.89 355.95 864 357.68 901.93L357.71 902.79L357 902.31C354.25 900.47 351.31 898.51 348.34 896.52C328.6 883.3 309.9 870.79 293.45 859.78L293.34 859.7L293.3 859.58C285.11 835.12 278.2 814.49 273.32 799.93C270.93 792.69 269.03 786.96 267.73 783C267.1 781.07 266.61 779.57 266.27 778.51C266.12 778.02 266 777.64 265.91 777.35C265.84 777.09 265.8 776.95 265.81 776.95C265.82 776.95 265.88 777.08 265.98 777.33C266.08 777.62 266.22 777.99 266.39 778.47C266.76 779.52 267.29 781 267.96 782.92C269.32 786.86 271.29 792.57 273.77 799.78C278.72 814.31 285.73 834.91 294.04 859.32L293.89 859.12C310.35 870.12 329.06 882.61 348.83 895.8C351.79 897.78 354.73 899.75 357.48 901.59L356.81 901.97C355.18 864.03 353.72 829.92 352.65 804.82L352.64 804.68L352.74 804.58C362.95 794.9 371.19 787.09 376.91 781.66C379.74 779 381.95 776.92 383.48 775.49C384.22 774.81 384.79 774.28 385.21 773.9C385.47 773.66 385.67 773.49 385.81 773.38Z" />
							</g>
						</g>
					</g>
				</g>
			</g>
			<g id="&lt;Group&gt;">
				<g id="&lt;Group&gt;">
					<g id="&lt;Group&gt;">
						<g id="&lt;Group&gt;">
							<path id="&lt;Path&gt;" class="shp3" d="M360.26 890.51L360.09 896.17L364.65 899.52L359.21 901.11L357.43 906.49L354.25 901.8L348.58 901.77L352.05 897.29L350.33 891.9L355.66 893.81L360.26 890.51Z" />
						</g>
					</g>
				</g>
			</g>
			<g id="&lt;Group&gt;">
				<g id="&lt;Group&gt;">
					<g id="&lt;Group&gt;">
						<g id="&lt;Group&gt;">
							<path id="&lt;Path&gt;" class="shp3" d="M294.14 852.08L294.25 855.74L297.33 857.73L293.88 858.97L292.94 862.51L290.7 859.61L287.04 859.82L289.11 856.79L287.78 853.37L291.3 854.39L294.14 852.08Z" />
						</g>
					</g>
				</g>
			</g>
			<g id="&lt;Group&gt;">
				<g id="&lt;Group&gt;">
					<g id="&lt;Group&gt;">
						<g id="&lt;Group&gt;">
							<path id="&lt;Path&gt;" class="shp3" d="M265.66 770.22L268.43 773.77L272.92 773.51L270.4 777.24L272.04 781.43L267.71 780.18L264.23 783.04L264.08 778.54L260.29 776.11L264.52 774.58L265.66 770.22Z" />
						</g>
					</g>
				</g>
			</g>
			<g id="&lt;Group&gt;">
				<g id="&lt;Group&gt;">
					<g id="&lt;Group&gt;">
						<g id="&lt;Group&gt;">
							<path id="&lt;Path&gt;" class="shp3" d="M383.05 766.67L385.81 770.22L390.3 769.96L387.78 773.69L389.42 777.88L385.1 776.63L381.62 779.48L381.47 774.99L377.68 772.56L381.91 771.03L383.05 766.67Z" />
						</g>
					</g>
				</g>
			</g>
			<g id="&lt;Group&gt;">
				<g id="&lt;Group&gt;">
					<g id="&lt;Group&gt;">
						<g id="&lt;Group&gt;">
							<path id="&lt;Path&gt;" class="shp3" d="M352.23 800.97L354 803.23L356.86 803.06L355.25 805.44L356.3 808.12L353.54 807.32L351.32 809.14L351.22 806.27L348.81 804.72L351.51 803.74L352.23 800.97Z" />
						</g>
					</g>
				</g>
			</g>
		</g>
	</g>
	<g id="Planets">
		<g id="&lt;Group&gt;">
			<g id="&lt;Group&gt;">
				<g id="&lt;Group&gt;">
					<g id="&lt;Group&gt;">
						<g id="&lt;Group&gt;">
							<g id="&lt;Group&gt;">
								<path id="&lt;Path&gt;" class="shp3" d="M286.27 609.82C286.27 631.85 268.41 649.71 246.38 649.71C224.35 649.71 206.5 631.85 206.5 609.82C206.5 587.79 224.35 569.93 246.38 569.93C268.41 569.93 286.27 587.79 286.27 609.82Z" />
							</g>
						</g>
					</g>
				</g>
				<g id="&lt;Group&gt;" style="opacity: 0.302">
					<g id="&lt;Group&gt;">
						<g id="&lt;Group&gt;">
							<g id="&lt;Group&gt;">
								<path id="&lt;Path&gt;" class="shp4" d="M241.2 622.27C241.2 625.86 238.29 628.78 234.69 628.78C231.1 628.78 228.19 625.86 228.19 622.27C228.19 618.68 231.1 615.76 234.69 615.76C238.29 615.76 241.2 618.68 241.2 622.27Z" />
							</g>
						</g>
					</g>
				</g>
				<g id="&lt;Group&gt;" style="opacity: 0.302">
					<g id="&lt;Group&gt;">
						<g id="&lt;Group&gt;">
							<g id="&lt;Group&gt;">
								<path id="&lt;Path&gt;" class="shp4" d="M231.97 603.5C231.97 605.59 230.28 607.28 228.19 607.28C226.1 607.28 224.4 605.59 224.4 603.5C224.4 601.41 226.1 599.71 228.19 599.71C230.28 599.71 231.97 601.41 231.97 603.5Z" />
							</g>
						</g>
					</g>
				</g>
			</g>
			<g id="&lt;Group&gt;">
				<g id="&lt;Group&gt;">
					<g id="&lt;Group&gt;">
						<g id="&lt;Group&gt;">
							<path id="&lt;Path&gt;" class="shp3" d="M207.69 619.52C207.87 620.21 173.55 653.14 182.39 660.16C191.24 667.17 228.45 649.17 260.18 623.55C291.9 597.93 320.88 566.82 312.95 558.58C307.66 553.09 291.8 558.47 265.37 574.73L270.11 577.75C286.09 567.5 296.6 564.36 301.66 568.34C309.24 574.31 287.63 597.62 257.13 619.89C226.62 642.16 197.15 657.79 192.57 651.69C189.52 647.62 195.19 638.81 209.59 625.24L207.69 619.52Z" />
						</g>
					</g>
				</g>
			</g>
			<g id="&lt;Group&gt;" style="opacity: 0.302">
				<g id="&lt;Group&gt;">
					<g id="&lt;Group&gt;">
						<g id="&lt;Group&gt;">
							<path id="&lt;Path&gt;" class="shp10" d="M207.69 619.52C207.87 620.21 173.55 653.14 182.39 660.16C191.24 667.17 228.45 649.17 260.18 623.55C291.9 597.93 320.88 566.82 312.95 558.58C307.66 553.09 291.8 558.47 265.37 574.73L270.11 577.75C286.09 567.5 296.6 564.36 301.66 568.34C309.24 574.31 287.63 597.62 257.13 619.89C226.62 642.16 197.15 657.79 192.57 651.69C189.52 647.62 195.19 638.81 209.59 625.24L207.69 619.52Z" />
						</g>
					</g>
				</g>
			</g>
			<g id="&lt;Group&gt;" style="opacity: 0.302">
				<g id="&lt;Group&gt;">
					<g id="&lt;Group&gt;">
						<g id="&lt;Group&gt;">
							<g id="&lt;Group&gt;">
								<path id="&lt;Path&gt;" class="shp4" d="M224.4 581.72C224.73 582.11 222.02 584.4 218.96 589.01C215.9 593.54 212.7 600.72 212.52 609.05C212.36 617.39 215.28 624.69 218.16 629.35C221.03 634.07 223.64 636.47 223.3 636.84C223.1 637.12 219.9 635.27 216.35 630.57C214.58 628.23 212.82 625.17 211.5 621.49C210.18 617.82 209.37 613.53 209.43 608.99C209.55 604.46 210.53 600.2 212 596.59C213.46 592.97 215.35 589.98 217.2 587.71C220.93 583.16 224.21 581.43 224.4 581.72Z" />
							</g>
						</g>
					</g>
				</g>
			</g>
		</g>
		<g id="&lt;Group&gt;">
			<g id="&lt;Group&gt;">
				<g id="&lt;Group&gt;">
					<g id="&lt;Group&gt;">
						<g id="&lt;Group&gt;">
							<path id="&lt;Path&gt;" class="shp3" d="M653.04 235.42C653.47 217.25 668.55 202.87 686.71 203.3C704.88 203.73 719.26 218.81 718.83 236.98C718.4 255.15 703.32 269.52 685.15 269.09C666.99 268.66 652.61 253.59 653.04 235.42Z" />
						</g>
					</g>
				</g>
			</g>
			<g id="&lt;Group&gt;" style="opacity: 0.4">
				<g id="&lt;Group&gt;">
					<g id="&lt;Group&gt;">
						<g id="&lt;Group&gt;">
							<path id="&lt;Path&gt;" class="shp10" d="M696.66 223.6C696.73 220.63 699.19 218.29 702.15 218.36C705.11 218.43 707.46 220.89 707.39 223.85C707.32 226.81 704.86 229.16 701.89 229.09C698.93 229.02 696.59 226.56 696.66 223.6Z" />
						</g>
					</g>
				</g>
			</g>
			<g id="&lt;Group&gt;" style="opacity: 0.4">
				<g id="&lt;Group&gt;">
					<g id="&lt;Group&gt;">
						<g id="&lt;Group&gt;">
							<path id="&lt;Path&gt;" class="shp10" d="M707.39 236.12C707.43 234.4 708.86 233.04 710.58 233.08C712.31 233.12 713.67 234.55 713.63 236.27C713.59 238 712.16 239.36 710.44 239.32C708.71 239.28 707.35 237.85 707.39 236.12Z" />
						</g>
					</g>
				</g>
			</g>
			<g id="&lt;Group&gt;" style="opacity: 0.4">
				<g id="&lt;Group&gt;">
					<g id="&lt;Group&gt;">
						<g id="&lt;Group&gt;">
							<path id="&lt;Path&gt;" class="shp10" d="M703.2 245.71C703.84 245.73 704.34 246.25 704.32 246.89C704.31 247.52 703.78 248.03 703.15 248.01C702.51 248 702.01 247.47 702.02 246.83C702.04 246.2 702.56 245.7 703.2 245.71Z" />
						</g>
					</g>
				</g>
			</g>
		</g>
	</g>
</svg>