<svg xmlns="http://www.w3.org/2000/svg" viewBox="0 0 3710 3710" width="3710" height="3710">
	<defs>
		<linearGradient id="grd1" gradientUnits="userSpaceOnUse"  x1="980.132" y1="504.264" x2="2589.638" y2="504.264">
			<stop offset="0.004" stop-color="#e38ddd"  />
			<stop offset="1" stop-color="#9571f6"  />
		</linearGradient>
		<linearGradient id="grd2" gradientUnits="userSpaceOnUse"  x1="2061.116" y1="1081.813" x2="3193.363" y2="1081.813">
			<stop offset="0.004" stop-color="#e38ddd"  />
			<stop offset="1" stop-color="#9571f6"  />
		</linearGradient>
		<linearGradient id="grd3" gradientUnits="userSpaceOnUse"  x1="1794.091" y1="1824.112" x2="3007.394" y2="1824.112">
			<stop offset="0.004" stop-color="#e38ddd"  />
			<stop offset="1" stop-color="#9571f6"  />
		</linearGradient>
		<linearGradient id="grd4" gradientUnits="userSpaceOnUse"  x1="500.01" y1="1482.502" x2="2288.059" y2="1482.502">
			<stop offset="0.004" stop-color="#e38ddd"  />
			<stop offset="1" stop-color="#9571f6"  />
		</linearGradient>
		<linearGradient id="grd5" gradientUnits="userSpaceOnUse"  x1="2852.555" y1="844.049" x2="2967.514" y2="844.049">
			<stop offset="0.004" stop-color="#e38ddd"  />
			<stop offset="1" stop-color="#9571f6"  />
		</linearGradient>
		<linearGradient id="grd6" gradientUnits="userSpaceOnUse"  x1="501.429" y1="2048.174" x2="706.165" y2="2048.174">
			<stop offset="0.004" stop-color="#e38ddd"  />
			<stop offset="1" stop-color="#9571f6"  />
		</linearGradient>
		<linearGradient id="grd7" gradientUnits="userSpaceOnUse"  x1="2720.407" y1="587.247" x2="2860.566" y2="587.247">
			<stop offset="0.004" stop-color="#e38ddd"  />
			<stop offset="1" stop-color="#9571f6"  />
		</linearGradient>
		<linearGradient id="grd8" gradientUnits="userSpaceOnUse"  x1="394.581" y1="1033.442" x2="652.608" y2="1033.442">
			<stop offset="0.004" stop-color="#e38ddd"  />
			<stop offset="1" stop-color="#9571f6"  />
		</linearGradient>
		<linearGradient id="grd9" gradientUnits="userSpaceOnUse"  x1="2976.808" y1="1484.489" x2="3115.322" y2="1535.891">
			<stop offset="0.004" stop-color="#e38ddd"  />
			<stop offset="1" stop-color="#9571f6"  />
		</linearGradient>
		<linearGradient id="grd10" gradientUnits="userSpaceOnUse"  x1="905.443" y1="1355.576" x2="2801.242" y2="1355.576">
			<stop offset="0" stop-color="#ff9085"  />
			<stop offset="1" stop-color="#fb6fbb"  />
		</linearGradient>
		<linearGradient id="grd11" gradientUnits="userSpaceOnUse"  x1="1664.045" y1="1902.839" x2="1469.345" y2="2921.485">
			<stop offset="0" stop-color="#aa80f9"  />
			<stop offset="0.996" stop-color="#6165d7"  />
		</linearGradient>
		<linearGradient id="grd12" gradientUnits="userSpaceOnUse"  x1="846.531" y1="2077.594" x2="1613.551" y2="2362.264">
			<stop offset="0.004" stop-color="#e38ddd"  />
			<stop offset="1" stop-color="#9571f6"  />
		</linearGradient>
		<linearGradient id="grd13" gradientUnits="userSpaceOnUse"  x1="569.399" y1="2594.464" x2="1522.678" y2="2594.464">
			<stop offset="0.004" stop-color="#e38ddd"  />
			<stop offset="1" stop-color="#9571f6"  />
		</linearGradient>
		<linearGradient id="grd14" gradientUnits="userSpaceOnUse"  x1="2234.621" y1="1690.659" x2="2207.579" y2="1742.04">
			<stop offset="0" stop-color="#ffc444"  />
			<stop offset="0.996" stop-color="#f36f56"  />
		</linearGradient>
		<linearGradient id="grd15" gradientUnits="userSpaceOnUse"  x1="2619.864" y1="2141.282" x2="3002.078" y2="3415.333">
			<stop offset="0" stop-color="#444b8c"  />
			<stop offset="0.996" stop-color="#26264f"  />
		</linearGradient>
		<linearGradient id="grd16" gradientUnits="userSpaceOnUse"  x1="1802.199" y1="2117.562" x2="1685.722" y2="2238.962">
			<stop offset="0" stop-color="#ffc444"  />
			<stop offset="0.996" stop-color="#f36f56"  />
		</linearGradient>
		<linearGradient id="grd17" gradientUnits="userSpaceOnUse"  x1="2218.022" y1="2066.9" x2="2351.331" y2="2161.914">
			<stop offset="0" stop-color="#ffc444"  />
			<stop offset="0.996" stop-color="#f36f56"  />
		</linearGradient>
		<linearGradient id="grd18" gradientUnits="userSpaceOnUse"  x1="1868.061" y1="2920.746" x2="1804.97" y2="3057.833">
			<stop offset="0" stop-color="#ffc444"  />
			<stop offset="0.996" stop-color="#f36f56"  />
		</linearGradient>
		<linearGradient id="grd19" gradientUnits="userSpaceOnUse"  x1="1878.254" y1="2847.748" x2="1819.645" y2="2975.095">
			<stop offset="0" stop-color="#ffc444"  />
			<stop offset="0.996" stop-color="#f36f56"  />
		</linearGradient>
		<linearGradient id="grd20" gradientUnits="userSpaceOnUse"  x1="2522.997" y1="3272.965" x2="2544.811" y2="3421.302">
			<stop offset="0" stop-color="#ffc444"  />
			<stop offset="0.996" stop-color="#f36f56"  />
		</linearGradient>
		<linearGradient id="grd21" gradientUnits="userSpaceOnUse"  x1="2563.288" y1="3321.249" x2="2484.241" y2="3321.249">
			<stop offset="0" stop-color="#311944"  />
			<stop offset="1" stop-color="#893976"  />
		</linearGradient>
		<linearGradient id="grd22" gradientUnits="userSpaceOnUse"  x1="2194.942" y1="3234.7" x2="2228.39" y2="3435.391">
			<stop offset="0" stop-color="#ffc444"  />
			<stop offset="0.996" stop-color="#f36f56"  />
		</linearGradient>
		<linearGradient id="grd23" gradientUnits="userSpaceOnUse"  x1="2266.731" y1="3290.925" x2="2208.262" y2="3290.925">
			<stop offset="0" stop-color="#311944"  />
			<stop offset="1" stop-color="#893976"  />
		</linearGradient>
		<linearGradient id="grd24" gradientUnits="userSpaceOnUse"  x1="2566.844" y1="2529.704" x2="2265.801" y2="2669.211">
			<stop offset="0" stop-color="#ffc444"  />
			<stop offset="0.996" stop-color="#f36f56"  />
		</linearGradient>
		<linearGradient id="grd25" gradientUnits="userSpaceOnUse"  x1="2563.739" y1="2530.699" x2="2266.994" y2="2668.215">
			<stop offset="0" stop-color="#ffc444"  />
			<stop offset="0.996" stop-color="#f36f56"  />
		</linearGradient>
		<linearGradient id="grd26" gradientUnits="userSpaceOnUse"  x1="1914.606" y1="2880.42" x2="2220.377" y2="3269.914">
			<stop offset="0" stop-color="#ffc444"  />
			<stop offset="0.996" stop-color="#f36f56"  />
		</linearGradient>
		<linearGradient id="grd27" gradientUnits="userSpaceOnUse"  x1="2559.195" y1="2182.968" x2="2954.339" y2="3500.121">
			<stop offset="0" stop-color="#444b8c"  />
			<stop offset="0.996" stop-color="#26264f"  />
		</linearGradient>
		<linearGradient id="grd28" gradientUnits="userSpaceOnUse"  x1="1813.73" y1="2123.519" x2="2408.267" y2="2866.69">
			<stop offset="0" stop-color="#444b8c"  />
			<stop offset="0.996" stop-color="#26264f"  />
		</linearGradient>
		<linearGradient id="grd29" gradientUnits="userSpaceOnUse"  x1="3485.44" y1="2528" x2="3151.294" y2="3165.606">
			<stop offset="0" stop-color="#aa80f9"  />
			<stop offset="0.996" stop-color="#6165d7"  />
		</linearGradient>
		<linearGradient id="grd30" gradientUnits="userSpaceOnUse"  x1="3307.797" y1="3005.445" x2="2918.055" y2="3472.666">
			<stop offset="0" stop-color="#ff9085"  />
			<stop offset="1" stop-color="#fb6fbb"  />
		</linearGradient>
	</defs>
	<style>
		tspan { white-space:pre }
		.shp0 { fill: #f4f7fa } 
		.shp1 { fill: url(#grd1) } 
		.shp2 { fill: url(#grd2) } 
		.shp3 { fill: url(#grd3) } 
		.shp4 { fill: url(#grd4) } 
		.shp5 { fill: url(#grd5) } 
		.shp6 { fill: url(#grd6) } 
		.shp7 { fill: url(#grd7) } 
		.shp8 { fill: url(#grd8) } 
		.shp9 { fill: url(#grd9) } 
		.shp10 { fill: #b7c0ce } 
		.shp11 { fill: #ffffff } 
		.shp12 { fill: #d8dee8 } 
		.shp13 { fill: url(#grd10) } 
		.shp14 { fill: url(#grd11) } 
		.shp15 { fill: url(#grd12) } 
		.shp16 { opacity: 0.302;mix-blend-mode: multiply;fill: url(#grd13) } 
		.shp17 { fill: url(#grd14) } 
		.shp18 { fill: url(#grd15) } 
		.shp19 { fill: url(#grd16) } 
		.shp20 { fill: url(#grd17) } 
		.shp21 { fill: url(#grd18) } 
		.shp22 { fill: #26264f } 
		.shp23 { fill: url(#grd19) } 
		.shp24 { fill: url(#grd20) } 
		.shp25 { fill: url(#grd21) } 
		.shp26 { fill: url(#grd22) } 
		.shp27 { fill: url(#grd23) } 
		.shp28 { fill: url(#grd24) } 
		.shp29 { opacity: 0.302;mix-blend-mode: multiply;fill: url(#grd25) } 
		.shp30 { fill: url(#grd26) } 
		.shp31 { fill: url(#grd27) } 
		.shp32 { opacity: 0.302;mix-blend-mode: multiply;fill: url(#grd28) } 
		.shp33 { fill: url(#grd29) } 
		.shp34 { opacity: 0.502;fill: #ffffff } 
		.shp35 { fill: url(#grd30) } 
	</style>
	<g id="Background">
		<g id="&lt;Group&gt;">
			<g id="&lt;Group&gt;">
			</g>
		</g>
	</g>
	<g id="Illustration">
		<g id="&lt;Group&gt;">
			<path id="&lt;Path&gt;" class="shp0" d="M1641.94 455.24C1266.73 461.52 686.21 596.73 519.12 944.21C460.76 1065.57 464.71 1243.98 472.61 1600.81C474.93 1705.69 478.78 1858.56 505.83 2048.23C562.01 2442.24 600.26 2710.47 745.01 2866.65C1107.71 3258.01 2417.89 3246.7 2977.37 2542.14C3282.57 2157.8 3329.52 1611.06 3050.45 1159.2C2743.2 661.72 2144.25 446.83 1641.94 455.24Z" />
			<g id="&lt;Group&gt;" style="opacity: 0.502">
				<g id="&lt;Group&gt;">
					<path id="&lt;Path&gt;" class="shp1" d="M2486.63 627.58L1131.66 506.95C1046.09 499.34 978.62 550.09 979.38 620.26L979.82 660.83C980.58 730.97 1050.31 791.5 1135.79 796.04L2489.21 867.92C2547.2 870.99 2590.5 827.67 2590.07 771.35L2589.82 738.77C2589.38 682.43 2544.66 632.75 2486.63 627.58Z" />
				</g>
				<g id="&lt;Group&gt;">
					<path id="&lt;Path&gt;" class="shp2" d="M3193.49 1196.73C3193.2 1151.28 3159.81 1113.45 3117.42 1112.19L2164.73 1083.84C2107.12 1082.13 2060.18 1124.55 2060.65 1178.61L2060.91 1208.57C2061.38 1262.61 2109.47 1306.34 2167.05 1306.22L3118.55 1304.36C3160.91 1304.28 3193.95 1267.37 3193.66 1221.93L3193.49 1196.73Z" />
				</g>
				<g id="&lt;Group&gt;">
					<path id="&lt;Path&gt;" class="shp3" d="M3007.54 1904.15C3007.21 1857.36 2970.32 1822.5 2925.22 1826.34L1905.96 1913.21C1844.02 1918.49 1793.06 1968.21 1793.58 2024.18L1793.86 2055.19C1794.38 2111.14 1845.86 2150.52 1907.76 2143.29L2926.56 2024.26C2971.63 2018.99 3008.04 1976.86 3007.71 1930.08L3007.54 1904.15Z" />
				</g>
				<g id="&lt;Group&gt;">
					<path id="&lt;Path&gt;" class="shp4" d="M2172.51 1484.5L671.39 1525.62C575.75 1528.24 498.27 1590.5 499.15 1664.59L499.65 1707.42C500.52 1781.47 579.02 1836.48 674.57 1830.44L2175.21 1735.61C2238.73 1731.6 2289.03 1680.73 2288.54 1621.92L2288.26 1587.91C2287.77 1529.08 2236.09 1482.76 2172.51 1484.5Z" />
				</g>
				<g id="&lt;Group&gt;">
					<path id="&lt;Path&gt;" class="shp5" d="M2967.74 909.86C2967.97 942.81 2942.69 968.19 2910.98 966.54C2878.96 964.87 2852.56 936.31 2852.32 902.75C2852.08 869.19 2878.1 843.84 2910.13 846.12C2941.85 848.38 2967.51 876.91 2967.74 909.86Z" />
				</g>
				<g id="&lt;Group&gt;">
					<path id="&lt;Path&gt;" class="shp6" d="M706.66 2120.6C707.15 2164.33 662.38 2204.73 605.97 2210.91C548.79 2217.18 501.44 2186 500.91 2141.19C500.38 2096.37 546.9 2055.78 604.11 2050.6C660.55 2045.49 706.16 2076.86 706.66 2120.6Z" />
				</g>
				<g id="&lt;Group&gt;">
					<path id="&lt;Compound Path&gt;" fill-rule="evenodd" class="shp7" d="M2791.78 733.7C2752.75 730.29 2720.41 694.8 2720.11 654.62C2719.81 614.44 2751.69 585.27 2790.73 589.56C2829.3 593.8 2860.56 629.2 2860.84 668.51C2861.12 707.82 2830.33 737.07 2791.78 733.7ZM2790.88 610.92C2763.46 608 2741.15 628.53 2741.36 656.72C2741.56 684.9 2764.21 709.87 2791.62 712.35C2818.8 714.82 2840.58 694.24 2840.38 666.49C2840.18 638.74 2818.07 613.82 2790.88 610.92Z" />
				</g>
				<g id="&lt;Group&gt;">
					<path id="&lt;Compound Path&gt;" fill-rule="evenodd" class="shp8" d="M652.61 1208.98L394.58 1208.68L524.31 1035.44L652.61 1208.98ZM439.7 1188.85L610.13 1189.59L524.77 1074.69L439.7 1188.85Z" />
				</g>
				<g id="&lt;Group&gt;">
					<path id="&lt;Path&gt;" class="shp9" d="M2951.12 1553.72L3114.63 1537.77L3043.04 1685.97L2951.12 1553.72Z" />
				</g>
			</g>
			<g id="&lt;Group&gt;">
				<path id="&lt;Path&gt;" class="shp10" d="M2854.03 1097.97C2854.03 1039.41 2815.12 989.74 2766.27 987L833.61 878.51C831.29 878.38 829.06 878.3 826.76 878.29C783.19 878.03 745.6 898.53 722.43 930.82C707.8 951.22 699.99 976.31 699.99 1003.84L699.99 1099.19L699.99 2595.62C699.99 2604.79 700.21 2613.64 702.03 2622.08C702.48 2624.19 702.62 2626.27 703.18 2628.33C705.42 2636.56 708.31 2644.36 712.12 2651.66C728.34 2682.67 757.88 2704.56 793.79 2711.32C806.47 2713.7 819.88 2714.41 833.8 2712.76L2349.07 2533.9L2349.06 2533.9L2766.27 2484.36C2815.13 2478.58 2854.03 2426.28 2854.03 2367.72L2854.03 1174.03L2854.03 1097.97Z" />
				<g id="&lt;Group&gt;">
					<path id="&lt;Path&gt;" class="shp11" d="M2816.07 987L883.27 878.51C809.01 874.34 748.05 930.43 748.05 1003.84L748.05 2595.62C748.05 2669.03 809.01 2721.33 883.27 2712.56L2816.07 2484.16C2864.93 2478.38 2904.13 2426.28 2904.13 2367.72L2904.13 1097.97C2904.13 1039.41 2864.93 989.74 2816.07 987Z" />
					<path id="&lt;Path&gt;" class="shp0" d="M883.27 2670.66C832.92 2676.4 791.6 2640.7 791.6 2591.01L791.6 1005.74C791.6 956.05 832.92 917.78 883.27 920.41L2816.07 1021.21C2849.34 1022.94 2876.21 1056.83 2876.21 1096.75L2876.21 2370.67C2876.21 2410.6 2849.34 2446.15 2816.07 2449.95L883.27 2670.66Z" />
					<path id="&lt;Path&gt;" class="shp12" d="M2816.07 987L883.27 878.51C809.02 874.34 748.05 930.43 748.05 1003.84L748.05 1099.19L2904.13 1174.03L2904.13 1097.97C2904.13 1039.41 2864.93 989.74 2816.07 987Z" />
					<path id="&lt;Path&gt;" class="shp11" d="M986.89 1001.68C986.89 1025.17 967.67 1043.42 943.87 1042.45C919.96 1041.48 900.5 1021.48 900.5 997.8C900.5 974.12 919.96 955.87 943.87 957.04C967.67 958.21 986.89 978.19 986.89 1001.68Z" />
					<path id="&lt;Path&gt;" class="shp11" d="M1135.2 1008.33C1135.2 1031.49 1116.53 1049.49 1093.41 1048.55C1070.18 1047.6 1051.27 1027.91 1051.27 1004.57C1051.27 981.22 1070.18 963.23 1093.41 964.36C1116.53 965.49 1135.2 985.18 1135.2 1008.33Z" />
					<path id="&lt;Path&gt;" class="shp11" d="M1279.36 1014.8C1279.36 1037.63 1261.2 1055.4 1238.73 1054.48C1216.15 1053.56 1197.77 1034.15 1197.77 1011.14C1197.77 988.13 1216.15 970.37 1238.73 971.48C1261.2 972.58 1279.36 991.97 1279.36 1014.8Z" />
					<path id="&lt;Path&gt;" class="shp13" d="M2801.24 2093.21L905.44 2230.72L905.44 1357.58L2801.24 1377.72L2801.24 2093.21Z" />
					<path id="&lt;Path&gt;" class="shp12" d="M2801.24 2216.68L905.44 2381.39L905.44 2314.48L2801.24 2161.85L2801.24 2216.68Z" />
					<path id="&lt;Path&gt;" class="shp12" d="M2801.24 2351.18L905.44 2545.52L905.44 2478.61L2801.24 2296.35L2801.24 2351.18Z" />
					<g id="&lt;Group&gt;">
						<path id="&lt;Path&gt;" class="shp12" d="M1986.29 1239.14L905.44 1212.75L905.44 1279.66L1986.29 1299.16L1986.29 1239.14Z" />
						<path id="&lt;Path&gt;" class="shp12" d="M2705.66 1256.71L2705.66 1312.14L2801.24 1313.87L2801.24 1259.04L2705.66 1256.71Z" />
					</g>
					<g id="&lt;Group&gt;" style="opacity: 0.302">
						<path id="&lt;Path&gt;" class="shp11" d="M2124.11 1718.04C1902.41 1382.26 1502.17 1497.78 1237.51 1106.06C1188.79 1033.95 1155.56 960.42 1132.68 892.51L883.27 878.51C809.02 874.34 748.05 930.43 748.05 1003.84L748.05 2595.62C748.05 2669.03 809.02 2721.33 883.27 2712.56L2398.56 2533.5C2357.53 2473.31 2319.44 2404.97 2287.04 2327.37C2161.43 2026.47 2254.67 1915.76 2124.11 1718.04Z" />
					</g>
					<path id="&lt;Path&gt;" class="shp11" d="M1709.07 2039.99L1709.07 1483.79C1709.07 1448.08 1737.07 1424.63 1761.17 1439.96L2178.06 1705.2C2203.28 1721.24 2203.28 1771.15 2178.06 1788.8L1761.17 2080.51C1737.07 2097.37 1709.07 2075.7 1709.07 2039.99Z" />
				</g>
			</g>
			<g id="&lt;Group&gt;">
				<path id="&lt;Path&gt;" class="shp14" d="M846.39 2405.72L989.68 2607.65C828.56 2706.86 671.77 2802.86 510.65 2902.08C596.33 3017.57 682 3145.53 767.67 3261.02C909.36 3135.61 1046.72 3000.95 1188.4 2875.54L1348.14 3083.64L1569.87 2384.92L846.39 2405.72Z" />
				<path id="&lt;Path&gt;" class="shp15" d="M1609.97 2363.07L1522.68 2601.43L1363.59 3035.78L1228.51 2853.69C1086.8 2979.1 949.44 3101.27 807.76 3226.69C728.75 3120.19 648.6 3011.98 569.4 2905.22C562.73 2896.22 556.06 2887.22 549.39 2878.21C710.52 2779 866.01 2682.35 1027.1 2583.14L894.69 2403.67L1609.97 2363.07Z" />
				<path id="&lt;Path&gt;" class="shp16" d="M1522.68 2601.43L1363.59 3035.78L1228.51 2853.69C1086.8 2979.1 949.44 3101.27 807.76 3226.69C728.75 3120.19 648.6 3011.98 569.4 2905.22C624.95 2859.3 710.41 2820.77 833.02 2843.7C1086.33 2891.08 1095.44 2845.52 1201.14 2765.34C1288.54 2699.04 1400.87 2569.18 1522.68 2601.43Z" />
			</g>
			<g id="&lt;Group&gt;">
				<path id="&lt;Path&gt;" class="shp17" d="M2226.1 1702.06C2204.38 1705.1 2191.66 1699.17 2187.93 1684.26C2182.35 1661.91 2131.59 1666.73 2123.21 1666.73C2114.82 1666.73 2152.19 1682.9 2160.57 1694.07C2166.16 1701.53 2179.51 1708.38 2200.63 1714.64L2226.1 1702.06Z" />
				<path id="&lt;Path&gt;" class="shp18" d="M2183.77 1711.26C2192.76 1706.77 2201.75 1702.27 2210.75 1697.77C2254.09 1701.44 2377.54 1717.67 2467.06 1815.81C2587.4 1947.74 2595.37 2171.73 2527.77 2210.4C2478.62 2238.52 2369.07 2180.41 2342.28 2102.48C2319.56 2036.41 2370.14 1996.23 2362.51 1920.36C2357.22 1867.77 2323.48 1793.22 2183.77 1711.26Z" />
				<path id="&lt;Path&gt;" class="shp19" d="M1770.29 2147.41C1771.67 2121.54 1770.32 2104.82 1766.23 2097.24C1760.1 2085.88 1737.88 2085.24 1719.12 2076.58L1706.05 2028.78C1695.29 2050.77 1691.85 2069.95 1695.74 2086.33C1698.78 2099.15 1743.68 2115.28 1748.55 2123.22C1751.8 2128.52 1751.83 2140.87 1748.64 2160.28L1770.29 2147.41Z" />
				<path id="&lt;Path&gt;" class="shp20" d="M2262.44 2029.47L2293.22 2071.74L2263.41 2096.79L2237.73 2044.24L2262.44 2029.47Z" />
				<g id="&lt;Group&gt;">
					<g id="&lt;Group&gt;">
						<path id="&lt;Path&gt;" class="shp21" d="M2253.55 2053.31C2250.55 2053.37 2230.69 2061.75 2222.41 2053.23C2211.17 2041.67 2213.9 2018.19 2213.89 2014.67C2213.88 1999.92 2214.62 1997.5 2216.49 1993.92L2219.22 1989.17C2219.34 1989.02 2219.47 1988.87 2219.6 1988.72C2221.72 1986.36 2230.54 1981.22 2232.57 1980.62C2239.04 1978.71 2258.05 1998.98 2274.44 2033.34C2275.37 2034.48 2276.3 2035.64 2277.23 2036.81C2279.64 2039.86 2254.06 2054.59 2253.55 2053.31Z" />
						<path id="&lt;Path&gt;" class="shp22" d="M2198.73 1998.12C2204.44 2003.11 2216.6 2004.68 2222.03 2005.37C2222.82 2005.47 2225.24 2005.98 2228 2007.43C2228.4 2007.64 2228.81 2007.92 2229.25 2008.33C2235.06 2013.62 2228.86 2026.93 2232.45 2028.77C2235.06 2030.09 2240.56 2023.43 2242.4 2024.81C2244.12 2026.1 2240.2 2032.85 2242.22 2034.42C2243.74 2035.61 2246.57 2032.23 2250.14 2033.38C2251.92 2033.95 2252.1 2035.07 2255.27 2038.05C2257.06 2039.73 2259.23 2041.47 2260.65 2042.32C2267.53 2046.45 2278.86 2043.16 2279.49 2039.67C2279.67 2038.7 2278.89 2038.39 2278.21 2035.81C2277.79 2034.22 2277.63 2032.35 2277.72 2030.19C2277.92 2025.57 2281.63 2020.33 2284.74 2013.88C2290.49 2001.94 2289.91 1994.74 2289.61 1992.37C2289.58 1992.1 2289.55 1991.86 2289.51 1991.63C2289.46 1991.23 2289.4 1990.84 2289.31 1990.45C2287.48 1982.29 2277.71 1977.96 2272.76 1976.17C2265.69 1973.65 2254.37 1970.4 2240.19 1969.86C2236.33 1969.71 2198.93 1968.48 2193.63 1982.72C2191.73 1987.8 2194.86 1994.73 2198.73 1998.12Z" />
						<path id="&lt;Path&gt;" class="shp23" d="M2234.85 2024.31C2235.49 2019.45 2241.73 2020.3 2244.21 2024.8C2246.68 2029.29 2244.86 2036.35 2240.14 2037.77C2235.41 2039.18 2233.99 2030.86 2234.85 2024.31Z" />
					</g>
				</g>
				<path id="&lt;Path&gt;" class="shp24" d="M2557.81 3276.95L2553.39 3329.26L2534.52 3337.6L2527.31 3282.25L2557.81 3276.95Z" />
				<path id="&lt;Path&gt;" class="shp25" d="M2559.72 3328.62L2563.29 3346.2C2562.57 3351.26 2548.44 3357.18 2520.91 3363.96C2479.61 3374.13 2472.89 3357.81 2482.79 3355.06C2489.4 3353.23 2503 3347.41 2523.6 3337.6L2549.43 3323.78C2553.61 3321.54 2558.77 3323.97 2559.72 3328.62Z" />
				<path id="&lt;Path&gt;" class="shp26" d="M2232.96 3247.2L2253.39 3299.4L2242.39 3313.71L2201.96 3264.67L2232.96 3247.2Z" />
				<path id="&lt;Path&gt;" class="shp27" d="M2256.82 3294.9L2269.11 3307.97C2271.16 3312.65 2262.27 3325.12 2242.42 3345.38C2212.66 3375.76 2198.36 3365.42 2205.33 3357.87C2209.98 3352.84 2218.48 3340.73 2230.83 3321.54L2245.52 3296.2C2247.9 3292.09 2253.57 3291.44 2256.82 3294.9Z" />
				<path id="&lt;Path&gt;" class="shp28" d="M2507.24 2628.09C2510.69 2659.93 2517.01 2708.4 2529.03 2766.68C2556.16 2898.29 2585.02 2947.15 2598.44 3022.26C2609.75 3085.56 2612.2 3179.34 2565.61 3303.62C2550.7 3304.89 2535.8 3306.16 2520.89 3307.43C2516.85 3206.82 2497.22 3130.86 2481.06 3081.82C2449.66 2986.53 2395 2882.57 2357.45 2721.16C2349.64 2687.6 2341.83 2648.35 2363.27 2625.18C2400.17 2585.29 2495.71 2623.35 2507.24 2628.09Z" />
				<path id="&lt;Path&gt;" class="shp29" d="M2363.27 2625.18C2400.17 2585.29 2495.71 2623.35 2507.24 2628.09C2509.11 2645.33 2511.86 2667.57 2515.86 2693.47C2462.44 2765.24 2458.96 2813.14 2467.97 2844.77C2481.9 2893.63 2527.03 2909.58 2529.05 2966.93C2530.41 3005.31 2510.78 3014.54 2517.42 3052.73C2524.71 3094.62 2550.49 3095.95 2559.59 3135.63C2569.49 3178.76 2543.53 3196.87 2539.23 3250.52C2538.07 3265.08 2538.56 3283.6 2543.38 3305.52C2535.88 3306.15 2528.39 3306.79 2520.89 3307.43C2516.85 3206.82 2497.22 3130.86 2481.06 3081.82C2449.66 2986.53 2395 2882.57 2357.45 2721.16C2349.64 2687.6 2341.83 2648.35 2363.27 2625.18Z" />
				<path id="&lt;Path&gt;" class="shp30" d="M2483.97 2591.73C2480.43 2619.49 2471.86 2660.74 2448 2703.91C2406.64 2778.75 2357.67 2789.95 2300.98 2866.08C2287.81 2883.76 2249.63 2937.96 2230.93 3010.56C2203.57 3116.71 2230.81 3211.9 2252.22 3265.64C2238.82 3273.69 2225.42 3281.74 2212.02 3289.78C2179.63 3249.44 2122.56 3166.04 2109.3 3048.62C2081.9 2805.93 2266.37 2637.24 2287.38 2618.65C2352.91 2609.68 2418.44 2600.7 2483.97 2591.73Z" />
				<path id="&lt;Path&gt;" class="shp31" d="M2399.61 2019.57C2418.63 2019.05 2438.11 2026.37 2458.04 2041.54C2511.4 2082.14 2544.25 2163.46 2556.61 2285.52C2564.7 2365.37 2567.53 2491.98 2527.6 2648.45C2497.37 2651.04 2445.17 2655.79 2379.35 2663.28C2295.82 2672.81 2268.97 2677.8 2246.14 2660.34C2215.27 2636.74 2220.22 2593.86 2213.48 2533.56C2207.61 2481.16 2191.76 2405.27 2145.12 2313.96C2085.15 2376.15 1997.67 2402.31 1916.98 2381.15C1820.98 2355.97 1750.1 2267.87 1743.81 2163.16C1752.64 2157.91 1768.05 2147.84 1776.88 2142.59C1807.17 2168.08 1852.83 2208.75 1922.59 2216.6C2032.3 2228.94 2131.17 2165.95 2172.76 2139.45C2233.58 2100.7 2298.23 2068.28 2360.36 2031.65C2365.38 2028.69 2379.89 2020.11 2399.61 2019.57Z" />
				<path id="&lt;Path&gt;" class="shp32" d="M2319.64 2638.27C2327.31 2637.24 2390.44 2628.01 2409.8 2584.46C2424.76 2550.82 2397.78 2532.27 2411.26 2492.84C2425.86 2450.11 2464.39 2451.86 2478.15 2411.4C2489.23 2378.83 2468.66 2364.75 2462.16 2316.87C2450.83 2233.54 2503.3 2203.91 2498.51 2132.18C2497.05 2110.19 2490.03 2082.49 2468.71 2050.82C2516.04 2096.32 2545.34 2174.55 2556.61 2285.52C2564.7 2365.37 2567.53 2491.98 2527.6 2648.45C2497.37 2651.04 2445.17 2655.79 2379.35 2663.28C2295.82 2672.81 2268.97 2677.8 2246.14 2660.34C2231.51 2649.16 2224.97 2633.59 2221.37 2613.95C2247.21 2630.29 2280.97 2643.41 2319.64 2638.27Z" />
			</g>
			<g id="&lt;Group&gt;">
				<path id="&lt;Path&gt;" class="shp33" d="M3290.85 2827.01C3274.24 2813.57 3230.51 2831.69 3203.86 2860.77C3166.15 2901.91 3172.62 2953.95 3143.14 2964C3129.91 2968.52 3114.64 2962.76 3108.37 2952.51C3094.05 2929.1 3124.48 2879.3 3145.14 2853.32C3190.68 2796.03 3228.59 2804.83 3247.5 2762.63C3261.74 2730.87 3258.59 2684.57 3230.94 2663.26C3208.45 2645.93 3171.26 2646.23 3147.2 2664.14C3099.36 2699.73 3117.99 2794.38 3093.92 2800.3C3082.97 2802.99 3070.69 2785.24 3065.52 2771.14C3055 2742.44 3068.55 2714.35 3083.91 2675.31C3115.38 2595.28 3130.68 2556.4 3119.29 2528.5C3108.21 2501.34 3076.56 2483.45 3044.75 2484.08C3008.17 2484.8 2969.41 2510.09 2957.48 2541.25C2941.92 2581.92 2983.05 2602.83 2976.6 2679.1C2975.73 2689.41 2971.29 2732.58 2956.57 2736.73C2943.98 2740.28 2929.47 2713.68 2922.47 2700.83C2899.57 2658.85 2909.59 2637.88 2891.62 2622.63C2871.76 2605.77 2831.01 2607.29 2807.24 2625.98C2771.55 2654.05 2776.32 2719.2 2791.45 2759.22C2825.96 2850.47 2931.82 2861.52 2920.89 2905.29C2916.64 2922.31 2896.68 2937.4 2881.51 2939.26C2866.73 2941.08 2858.39 2930.1 2824.95 2894.84C2784.56 2852.27 2777.38 2847.92 2768.22 2849.16C2746.73 2852.08 2721.18 2885.07 2716 2915.67C2706.83 2969.83 2760.38 3021.66 2813.87 3041.29C2866.56 3060.63 2911.48 3045.87 2926.23 3079.5C2931.31 3091.08 2933.03 3108.77 2924.9 3119.38C2908.41 3140.91 2858.44 3124.54 2848.76 3121.36C2796.34 3104.19 2784.62 3071.49 2759.46 3080.9C2742.32 3087.32 2726.61 3110.3 2724 3130.02C2716.92 3183.57 2804.49 3222.47 2866.31 3231.92C2923.11 3240.6 2975.54 3227.06 3014.46 3211.11C3181.19 3125.55 3242.55 3019.7 3265.44 2969.96C3283.98 2929.68 3314.37 2846.05 3290.85 2827.01Z" />
				<path id="&lt;Path&gt;" class="shp34" d="M3024.21 3186.12C3010.43 3147.89 3002.2 3082.5 3001.04 3002C3000.05 2933.93 3004.28 2861.46 3012.07 2812.87C3026.06 2725.58 3025.21 2602.6 3025.2 2601.37L3032.49 2601.31C3032.5 2602.55 3033.35 2726.14 3019.26 2814.02C2996.45 2956.36 3011.02 3128.01 3031.06 3183.65L3024.21 3186.12Z" />
			</g>
			<path id="&lt;Path&gt;" class="shp35" d="M3165.95 3062.99C3148.76 3062.56 3142.42 3083.95 3102.71 3111.09C3086.2 3122.38 3061.13 3139.52 3050.04 3130.62C3042.28 3124.39 3043.71 3107.21 3047.32 3095.41C3057.04 3063.56 3085.63 3061.35 3114.26 3027.94C3136.27 3002.24 3159.29 2956.89 3145.48 2931.89C3135.68 2914.15 3107.63 2907.01 3090.33 2917.6C3074.71 2927.15 3079.03 2944.24 3058.99 2971.63C3043.63 2992.64 3016.46 3016.3 3002.85 3010.03C2990.92 3004.52 2990.99 2976.65 2996.45 2955.88C3008.6 2909.71 3046.29 2903.46 3055.49 2862.84C3061.16 2837.83 3054.21 2807.52 3036.9 2800.89C3016.95 2793.25 2983.39 2817.16 2966.86 2844.51C2943.23 2883.6 2962.89 2915.41 2937.12 2940.37C2924.51 2952.58 2904.87 2959.48 2895.13 2952.97C2883.49 2945.18 2888.63 2919.98 2893.23 2898.62C2905.45 2841.81 2927.77 2829.39 2926.3 2800.34C2924.85 2771.85 2901.27 2743.86 2876.66 2744.16C2838.22 2744.64 2799.8 2814.71 2783.97 2858.81C2751.25 2949.96 2779.34 3029.6 2794.01 3071.16C2819.95 3144.71 2862.29 3195.86 2900.49 3230.05C2925.89 3252.78 2961.38 3260.81 2994.11 3251.29C3064.22 3230.89 3112.63 3200.93 3142.29 3178.96C3193.26 3141.21 3198.84 3119.64 3199.07 3107.51C3199.46 3085.81 3183.3 3063.42 3165.95 3062.99Z" />
		</g>
	</g>
</svg>